%TF.GenerationSoftware,KiCad,Pcbnew,7.0.7*%
%TF.CreationDate,2024-10-06T22:50:34+09:00*%
%TF.ProjectId,evoroll,65766f72-6f6c-46c2-9e6b-696361645f70,rev?*%
%TF.SameCoordinates,Original*%
%TF.FileFunction,Soldermask,Bot*%
%TF.FilePolarity,Negative*%
%FSLAX46Y46*%
G04 Gerber Fmt 4.6, Leading zero omitted, Abs format (unit mm)*
G04 Created by KiCad (PCBNEW 7.0.7) date 2024-10-06 22:50:34*
%MOMM*%
%LPD*%
G01*
G04 APERTURE LIST*
G04 Aperture macros list*
%AMRoundRect*
0 Rectangle with rounded corners*
0 $1 Rounding radius*
0 $2 $3 $4 $5 $6 $7 $8 $9 X,Y pos of 4 corners*
0 Add a 4 corners polygon primitive as box body*
4,1,4,$2,$3,$4,$5,$6,$7,$8,$9,$2,$3,0*
0 Add four circle primitives for the rounded corners*
1,1,$1+$1,$2,$3*
1,1,$1+$1,$4,$5*
1,1,$1+$1,$6,$7*
1,1,$1+$1,$8,$9*
0 Add four rect primitives between the rounded corners*
20,1,$1+$1,$2,$3,$4,$5,0*
20,1,$1+$1,$4,$5,$6,$7,0*
20,1,$1+$1,$6,$7,$8,$9,0*
20,1,$1+$1,$8,$9,$2,$3,0*%
%AMRotRect*
0 Rectangle, with rotation*
0 The origin of the aperture is its center*
0 $1 length*
0 $2 width*
0 $3 Rotation angle, in degrees counterclockwise*
0 Add horizontal line*
21,1,$1,$2,0,0,$3*%
%AMOutline5P*
0 Free polygon, 5 corners , with rotation*
0 The origin of the aperture is its center*
0 number of corners: always 5*
0 $1 to $10 corner X, Y*
0 $11 Rotation angle, in degrees counterclockwise*
0 create outline with 5 corners*
4,1,5,$1,$2,$3,$4,$5,$6,$7,$8,$9,$10,$1,$2,$11*%
%AMOutline6P*
0 Free polygon, 6 corners , with rotation*
0 The origin of the aperture is its center*
0 number of corners: always 6*
0 $1 to $12 corner X, Y*
0 $13 Rotation angle, in degrees counterclockwise*
0 create outline with 6 corners*
4,1,6,$1,$2,$3,$4,$5,$6,$7,$8,$9,$10,$11,$12,$1,$2,$13*%
%AMOutline7P*
0 Free polygon, 7 corners , with rotation*
0 The origin of the aperture is its center*
0 number of corners: always 7*
0 $1 to $14 corner X, Y*
0 $15 Rotation angle, in degrees counterclockwise*
0 create outline with 7 corners*
4,1,7,$1,$2,$3,$4,$5,$6,$7,$8,$9,$10,$11,$12,$13,$14,$1,$2,$15*%
%AMOutline8P*
0 Free polygon, 8 corners , with rotation*
0 The origin of the aperture is its center*
0 number of corners: always 8*
0 $1 to $16 corner X, Y*
0 $17 Rotation angle, in degrees counterclockwise*
0 create outline with 8 corners*
4,1,8,$1,$2,$3,$4,$5,$6,$7,$8,$9,$10,$11,$12,$13,$14,$15,$16,$1,$2,$17*%
G04 Aperture macros list end*
%ADD10C,1.701800*%
%ADD11C,3.000000*%
%ADD12C,4.950000*%
%ADD13R,2.600000X2.600000*%
%ADD14RoundRect,0.400000X-0.844804X-0.356275X0.802935X-0.442629X0.844804X0.356275X-0.802935X0.442629X0*%
%ADD15RoundRect,0.395000X-0.849535X-0.351020X0.808190X-0.437898X0.849535X0.351020X-0.808190X0.437898X0*%
%ADD16RoundRect,0.405000X-0.843767X-0.361336X0.801375X-0.447554X0.843767X0.361336X-0.801375X0.447554X0*%
%ADD17RoundRect,0.390000X-0.857962X-0.345571X0.817140X-0.433360X0.857962X0.345571X-0.817140X0.433360X0*%
%ADD18RoundRect,0.400000X-0.848499X-0.356081X0.806630X-0.442823X0.848499X0.356081X-0.806630X0.442823X0*%
%ADD19RoundRect,0.400050X-0.848451X-0.356134X0.806577X-0.442870X0.848451X0.356134X-0.806577X0.442870X0*%
%ADD20RoundRect,0.400050X-0.844756X-0.356327X0.802882X-0.442676X0.844756X0.356327X-0.802882X0.442676X0*%
%ADD21RoundRect,0.405025X-0.871006X-0.359933X0.828611X-0.449007X0.871006X0.359933X-0.828611X0.449007X0*%
%ADD22RoundRect,0.400050X-0.985563X-0.348948X0.943689X-0.450056X0.985563X0.348948X-0.943689X0.450056X0*%
%ADD23RoundRect,0.400000X-0.451160X-0.965712X0.347744X-1.007580X0.451160X0.965712X-0.347744X1.007580X0*%
%ADD24RoundRect,0.393700X-0.445198X-0.972333X0.341123X-1.013542X0.445198X0.972333X-0.341123X1.013542X0*%
%ADD25RoundRect,0.405025X-0.840049X-0.361556X0.797654X-0.447384X0.840049X0.361556X-0.797654X0.447384X0*%
%ADD26RoundRect,0.415025X-0.830586X-0.372065X0.787144X-0.456847X0.830586X0.372065X-0.787144X0.456847X0*%
%ADD27C,5.000000*%
%ADD28RotRect,2.600000X2.600000X185.000000*%
%ADD29RotRect,2.125000X2.550000X185.000000*%
%ADD30Outline5P,-1.300000X1.300000X1.300000X1.300000X1.300000X-1.300000X-0.780000X-1.300000X-1.300000X-0.780000X180.000000*%
%ADD31Outline5P,-0.850000X0.510000X-0.510000X0.850000X0.850000X0.850000X0.850000X-0.850000X-0.850000X-0.850000X270.000000*%
%ADD32O,1.700000X1.700000*%
%ADD33C,1.200000*%
%ADD34O,2.500000X1.700000*%
%ADD35O,2.400000X1.500000*%
%ADD36RotRect,2.600000X2.600000X357.000000*%
%ADD37R,2.175000X2.600000*%
%ADD38RotRect,2.600000X2.600000X177.000000*%
%ADD39RotRect,2.125000X2.600000X177.000000*%
%ADD40RotRect,2.600000X2.600000X205.000000*%
G04 APERTURE END LIST*
D10*
%TO.C,SW15*%
X31025000Y-80750000D03*
D11*
X30525000Y-77000000D03*
D12*
X25525000Y-80750000D03*
D11*
X25525000Y-74800000D03*
D10*
X20025000Y-80750000D03*
D13*
X22250000Y-74800000D03*
X33800000Y-77000000D03*
%TD*%
D14*
%TO.C,RZ1*%
X170678969Y-38491353D03*
D15*
X170552802Y-41038240D03*
D16*
X170420914Y-43554786D03*
D17*
X170286411Y-46121264D03*
D18*
X170154525Y-48637810D03*
D19*
X170021591Y-51174329D03*
D20*
X169981232Y-53715701D03*
D21*
X169728983Y-56236002D03*
D22*
X169485679Y-58776701D03*
D23*
X166237076Y-59505681D03*
D24*
X163700557Y-59372748D03*
X161164038Y-59239814D03*
X158627519Y-59106881D03*
X156091000Y-58973948D03*
D22*
X152936391Y-57909389D03*
D25*
X153017916Y-55360213D03*
D20*
X153042477Y-52827978D03*
X153175410Y-50291459D03*
X153308343Y-47754940D03*
D26*
X153442845Y-45188512D03*
D20*
X153574210Y-42681902D03*
X153689867Y-40144478D03*
X153840077Y-37608864D03*
%TD*%
D10*
%TO.C,SW1*%
X95150000Y-35375000D03*
D11*
X94650000Y-31625000D03*
D12*
X89650000Y-35375000D03*
D11*
X89650000Y-29425000D03*
D10*
X84150000Y-35375000D03*
D13*
X86375000Y-29425000D03*
X97925000Y-31625000D03*
%TD*%
D27*
%TO.C,Ref\u002A\u002A*%
X23525000Y-57475000D03*
%TD*%
D10*
%TO.C,SW12*%
X131125000Y-65125000D03*
D11*
X130625000Y-61375000D03*
D12*
X125625000Y-65125000D03*
D11*
X125625000Y-59175000D03*
D10*
X120125000Y-65125000D03*
D13*
X122350000Y-59175000D03*
X133900000Y-61375000D03*
%TD*%
D10*
%TO.C,SW19*%
X98272648Y-87998001D03*
D11*
X97447716Y-84305849D03*
D12*
X92793577Y-88477358D03*
D11*
X92275000Y-82550000D03*
D10*
X87314506Y-88956715D03*
D28*
X89012463Y-82835435D03*
D29*
X100475837Y-84066018D03*
%TD*%
D10*
%TO.C,SW16*%
X31075000Y-100725000D03*
D11*
X30575000Y-96975000D03*
D12*
X25575000Y-100725000D03*
D11*
X25575000Y-94775000D03*
D10*
X20075000Y-100725000D03*
D13*
X22300000Y-94775000D03*
X33850000Y-96975000D03*
%TD*%
D10*
%TO.C,SW3*%
X131175000Y-31125000D03*
D11*
X130675000Y-27375000D03*
D12*
X125675000Y-31125000D03*
D11*
X125675000Y-25175000D03*
D10*
X120175000Y-31125000D03*
D13*
X122400000Y-25175000D03*
D30*
X133950000Y-27375000D03*
%TD*%
D10*
%TO.C,SW10*%
X95150000Y-69375000D03*
D11*
X94650000Y-65625000D03*
D12*
X89650000Y-69375000D03*
D11*
X89650000Y-63425000D03*
D10*
X84150000Y-69375000D03*
D13*
X86375000Y-63425000D03*
X97925000Y-65625000D03*
%TD*%
D31*
%TO.C,J1*%
X61430000Y-76725000D03*
D32*
X58890000Y-76725000D03*
X56350000Y-76725000D03*
X53810000Y-76725000D03*
X51270000Y-76725000D03*
X48730000Y-76725000D03*
X46190000Y-76725000D03*
X43650000Y-76725000D03*
%TD*%
D33*
%TO.C,J2*%
X17625000Y-65600000D03*
X24625000Y-65600000D03*
D34*
X27925000Y-67700000D03*
D35*
X19425000Y-63500000D03*
X22425000Y-63500000D03*
X26425000Y-63500000D03*
%TD*%
D10*
%TO.C,SW6*%
X113150000Y-51525000D03*
D11*
X112650000Y-47775000D03*
D12*
X107650000Y-51525000D03*
D11*
X107650000Y-45575000D03*
D10*
X102150000Y-51525000D03*
D13*
X104375000Y-45575000D03*
X115925000Y-47775000D03*
%TD*%
D10*
%TO.C,SW2*%
X113125000Y-34525000D03*
D11*
X112625000Y-30775000D03*
D12*
X107625000Y-34525000D03*
D11*
X107625000Y-28575000D03*
D10*
X102125000Y-34525000D03*
D13*
X104350000Y-28575000D03*
X115900000Y-30775000D03*
%TD*%
D10*
%TO.C,SW13*%
X149150000Y-69400000D03*
D11*
X148650000Y-65650000D03*
D12*
X143650000Y-69400000D03*
D11*
X143650000Y-63450000D03*
D10*
X138150000Y-69400000D03*
D13*
X140375000Y-63450000D03*
X151925000Y-65650000D03*
%TD*%
D10*
%TO.C,SW9*%
X157241651Y-66875398D03*
D11*
X157544705Y-70646427D03*
D12*
X162734113Y-67163246D03*
D11*
X162422714Y-73105092D03*
D10*
X168226575Y-67451094D03*
D36*
X165693226Y-73276492D03*
X154274194Y-70475027D03*
%TD*%
D10*
%TO.C,SW5*%
X95125000Y-52350000D03*
D11*
X94625000Y-48600000D03*
D12*
X89625000Y-52350000D03*
D11*
X89625000Y-46400000D03*
D10*
X84125000Y-52350000D03*
D13*
X86350000Y-46400000D03*
X97900000Y-48600000D03*
%TD*%
D10*
%TO.C,SW17*%
X51025000Y-100725000D03*
D11*
X50525000Y-96975000D03*
D12*
X45525000Y-100725000D03*
D11*
X45525000Y-94775000D03*
D10*
X40025000Y-100725000D03*
D13*
X42250000Y-94775000D03*
X53800000Y-96975000D03*
%TD*%
D10*
%TO.C,SW7*%
X131125000Y-48125000D03*
D11*
X130625000Y-44375000D03*
D12*
X125625000Y-48125000D03*
D11*
X125625000Y-42175000D03*
D10*
X120125000Y-48125000D03*
D13*
X122350000Y-42175000D03*
X133900000Y-44375000D03*
%TD*%
D10*
%TO.C,SW11*%
X113150000Y-68525000D03*
D11*
X112650000Y-64775000D03*
D12*
X107650000Y-68525000D03*
D11*
X107650000Y-62575000D03*
D10*
X102150000Y-68525000D03*
D13*
X104375000Y-62575000D03*
X115925000Y-64775000D03*
%TD*%
D27*
%TO.C,Ref\u002A\u002A*%
X52525000Y-86750000D03*
%TD*%
D10*
%TO.C,SW4*%
X149150000Y-35350000D03*
D11*
X148650000Y-31600000D03*
D12*
X143650000Y-35350000D03*
D11*
X143650000Y-29400000D03*
D10*
X138150000Y-35350000D03*
D13*
X140375000Y-29400000D03*
D37*
X151712500Y-31600000D03*
%TD*%
D10*
%TO.C,SW14*%
X167356063Y-84454694D03*
D11*
X167053009Y-80683665D03*
D12*
X161863601Y-84166846D03*
D11*
X162175000Y-78225000D03*
D10*
X156371139Y-83878998D03*
D38*
X158904488Y-78053600D03*
D39*
X170086346Y-80842635D03*
%TD*%
D10*
%TO.C,SW8*%
X138275000Y-52225000D03*
D11*
X138775000Y-55975000D03*
D12*
X143775000Y-52225000D03*
D11*
X143775000Y-58175000D03*
D10*
X149275000Y-52225000D03*
D13*
X147050000Y-58175000D03*
X135500000Y-55975000D03*
%TD*%
D10*
%TO.C,SW18*%
X75424272Y-92118131D03*
D11*
X73386299Y-88930785D03*
D12*
X70439579Y-94442531D03*
D11*
X67925000Y-89050000D03*
D10*
X65454886Y-96766931D03*
D40*
X64956842Y-90434074D03*
X76354457Y-87546711D03*
%TD*%
M02*
