M48
METRIC,TZ
T1C1.200
T2C1.702
T3C3.000
T4C4.950
T5C5.000
%
G90
G05
T1
X17625Y-65600
X24625Y-65600
T2
X20025Y-80750
X20075Y-100725
X31025Y-80750
X31075Y-100725
X40025Y-100725
X51025Y-100725
X65455Y-96767
X75424Y-92118
X84125Y-52350
X84150Y-35375
X84150Y-69375
X87315Y-88957
X95125Y-52350
X95150Y-35375
X95150Y-69375
X98273Y-87998
X102125Y-34525
X102150Y-51525
X102150Y-68525
X113125Y-34525
X113150Y-51525
X113150Y-68525
X120125Y-48125
X120125Y-65125
X120175Y-31125
X131125Y-48125
X131125Y-65125
X131175Y-31125
X138150Y-35350
X138150Y-69400
X138275Y-52225
X149150Y-35350
X149150Y-69400
X149275Y-52225
X156371Y-83879
X157242Y-66875
X167356Y-84455
X168227Y-67451
T3
X25525Y-74800
X25575Y-94775
X30525Y-77000
X30575Y-96975
X45525Y-94775
X50525Y-96975
X67925Y-89050
X73386Y-88931
X89625Y-46400
X89650Y-29425
X89650Y-63425
X92275Y-82550
X94625Y-48600
X94650Y-31625
X94650Y-65625
X97448Y-84306
X107625Y-28575
X107650Y-45575
X107650Y-62575
X112625Y-30775
X112650Y-47775
X112650Y-64775
X125625Y-42175
X125625Y-59175
X125675Y-25175
X130625Y-44375
X130625Y-61375
X130675Y-27375
X138775Y-55975
X143650Y-29400
X143650Y-63450
X143775Y-58175
X148650Y-31600
X148650Y-65650
X157545Y-70646
X162175Y-78225
X162423Y-73105
X167053Y-80684
T4
X25525Y-80750
X25575Y-100725
X45525Y-100725
X70440Y-94443
X89625Y-52350
X89650Y-35375
X89650Y-69375
X92794Y-88477
X107625Y-34525
X107650Y-51525
X107650Y-68525
X125625Y-48125
X125625Y-65125
X125675Y-31125
X143650Y-35350
X143650Y-69400
X143775Y-52225
X161864Y-84167
X162734Y-67163
T5
X23525Y-57475
X52525Y-86750
T0
M30
