%TF.GenerationSoftware,KiCad,Pcbnew,7.0.7*%
%TF.CreationDate,2024-08-30T08:21:24+09:00*%
%TF.ProjectId,evoroll,65766f72-6f6c-46c2-9e6b-696361645f70,rev?*%
%TF.SameCoordinates,Original*%
%TF.FileFunction,Soldermask,Top*%
%TF.FilePolarity,Negative*%
%FSLAX46Y46*%
G04 Gerber Fmt 4.6, Leading zero omitted, Abs format (unit mm)*
G04 Created by KiCad (PCBNEW 7.0.7) date 2024-08-30 08:21:24*
%MOMM*%
%LPD*%
G01*
G04 APERTURE LIST*
G04 Aperture macros list*
%AMHorizOval*
0 Thick line with rounded ends*
0 $1 width*
0 $2 $3 position (X,Y) of the first rounded end (center of the circle)*
0 $4 $5 position (X,Y) of the second rounded end (center of the circle)*
0 Add line between two ends*
20,1,$1,$2,$3,$4,$5,0*
0 Add two circle primitives to create the rounded ends*
1,1,$1,$2,$3*
1,1,$1,$4,$5*%
%AMRotRect*
0 Rectangle, with rotation*
0 The origin of the aperture is its center*
0 $1 length*
0 $2 width*
0 $3 Rotation angle, in degrees counterclockwise*
0 Add horizontal line*
21,1,$1,$2,0,0,$3*%
%AMOutline5P*
0 Free polygon, 5 corners , with rotation*
0 The origin of the aperture is its center*
0 number of corners: always 5*
0 $1 to $10 corner X, Y*
0 $11 Rotation angle, in degrees counterclockwise*
0 create outline with 5 corners*
4,1,5,$1,$2,$3,$4,$5,$6,$7,$8,$9,$10,$1,$2,$11*%
%AMOutline6P*
0 Free polygon, 6 corners , with rotation*
0 The origin of the aperture is its center*
0 number of corners: always 6*
0 $1 to $12 corner X, Y*
0 $13 Rotation angle, in degrees counterclockwise*
0 create outline with 6 corners*
4,1,6,$1,$2,$3,$4,$5,$6,$7,$8,$9,$10,$11,$12,$1,$2,$13*%
%AMOutline7P*
0 Free polygon, 7 corners , with rotation*
0 The origin of the aperture is its center*
0 number of corners: always 7*
0 $1 to $14 corner X, Y*
0 $15 Rotation angle, in degrees counterclockwise*
0 create outline with 7 corners*
4,1,7,$1,$2,$3,$4,$5,$6,$7,$8,$9,$10,$11,$12,$13,$14,$1,$2,$15*%
%AMOutline8P*
0 Free polygon, 8 corners , with rotation*
0 The origin of the aperture is its center*
0 number of corners: always 8*
0 $1 to $16 corner X, Y*
0 $17 Rotation angle, in degrees counterclockwise*
0 create outline with 8 corners*
4,1,8,$1,$2,$3,$4,$5,$6,$7,$8,$9,$10,$11,$12,$13,$14,$15,$16,$1,$2,$17*%
G04 Aperture macros list end*
%ADD10Outline5P,-0.850000X0.510000X-0.510000X0.850000X0.850000X0.850000X0.850000X-0.850000X-0.850000X-0.850000X295.000000*%
%ADD11HorizOval,1.700000X0.000000X0.000000X0.000000X0.000000X0*%
%ADD12RotRect,1.300000X0.950000X5.000000*%
%ADD13RotRect,1.300000X0.950000X25.000000*%
%ADD14R,1.300000X0.950000*%
%ADD15RotRect,1.300000X0.950000X357.000000*%
%ADD16C,1.701800*%
%ADD17C,3.000000*%
%ADD18C,4.950000*%
%ADD19C,0.990600*%
%ADD20C,1.200000*%
%ADD21O,2.500000X1.700000*%
%ADD22O,2.400000X1.500000*%
%ADD23C,5.000000*%
G04 APERTURE END LIST*
D10*
%TO.C,J1*%
X73925000Y-89425000D03*
D11*
X71622978Y-90498450D03*
X69320956Y-91571901D03*
X67018935Y-92645351D03*
X64716913Y-93718802D03*
X62414891Y-94792252D03*
X60112869Y-95865702D03*
X57810848Y-96939153D03*
%TD*%
D12*
%TO.C,D20*%
X93756754Y-110629701D03*
X97293246Y-110320299D03*
%TD*%
D13*
%TO.C,D19*%
X73891304Y-118975147D03*
X77108696Y-117474853D03*
%TD*%
D14*
%TO.C,D18*%
X45250000Y-122275000D03*
X48800000Y-122275000D03*
%TD*%
%TO.C,D17*%
X25225000Y-122325000D03*
X28775000Y-122325000D03*
%TD*%
%TO.C,D16*%
X25275000Y-102425000D03*
X28825000Y-102425000D03*
%TD*%
D15*
%TO.C,D15*%
X162177433Y-106007104D03*
X165722567Y-106192896D03*
%TD*%
D14*
%TO.C,D14*%
X144200000Y-91350000D03*
X147750000Y-91350000D03*
%TD*%
%TO.C,D13*%
X126225000Y-87125000D03*
X129775000Y-87125000D03*
%TD*%
%TO.C,D12*%
X108200000Y-90525000D03*
X111750000Y-90525000D03*
%TD*%
%TO.C,D11*%
X90225000Y-91450000D03*
X93775000Y-91450000D03*
%TD*%
D15*
%TO.C,D10*%
X163127433Y-89057104D03*
X166672567Y-89242896D03*
%TD*%
D14*
%TO.C,D9*%
X144200000Y-74425000D03*
X147750000Y-74425000D03*
%TD*%
%TO.C,D8*%
X126225000Y-70100000D03*
X129775000Y-70100000D03*
%TD*%
%TO.C,D7*%
X108275000Y-73550000D03*
X111825000Y-73550000D03*
%TD*%
%TO.C,D6*%
X90225000Y-74400000D03*
X93775000Y-74400000D03*
%TD*%
D15*
%TO.C,D5*%
X164402433Y-63132104D03*
X167947567Y-63317896D03*
%TD*%
D14*
%TO.C,D4*%
X144225000Y-47875000D03*
X147775000Y-47875000D03*
%TD*%
%TO.C,D3*%
X126250000Y-53100000D03*
X129800000Y-53100000D03*
%TD*%
%TO.C,D2*%
X108200000Y-56525000D03*
X111750000Y-56525000D03*
%TD*%
%TO.C,D1*%
X90225000Y-57350000D03*
X93775000Y-57350000D03*
%TD*%
D16*
%TO.C,SW3*%
X133500000Y-48375000D03*
D17*
X133000000Y-44625000D03*
D18*
X128000000Y-48375000D03*
D17*
X128000000Y-42425000D03*
D19*
X122780000Y-52575000D03*
D16*
X122500000Y-48375000D03*
%TD*%
%TO.C,SW10*%
X170626575Y-84676094D03*
D17*
X170323521Y-80905065D03*
D18*
X165134113Y-84388246D03*
D17*
X165445512Y-78446400D03*
D19*
X159701456Y-88309296D03*
D16*
X159641651Y-84100398D03*
%TD*%
%TO.C,SW15*%
X158718130Y-101095333D03*
D19*
X158777935Y-105304231D03*
D17*
X164521991Y-95441335D03*
D18*
X164210592Y-101383181D03*
D17*
X169400000Y-97900000D03*
D16*
X169703054Y-101671029D03*
%TD*%
%TO.C,SW20*%
X89627043Y-106171280D03*
D19*
X90272032Y-110330894D03*
D17*
X94587537Y-99764565D03*
D18*
X95106114Y-105691923D03*
D17*
X99760253Y-101520414D03*
D16*
X100585185Y-105212566D03*
%TD*%
D20*
%TO.C,J2*%
X81600000Y-39250000D03*
X88600000Y-39250000D03*
D21*
X91900000Y-41350000D03*
D22*
X83400000Y-37150000D03*
X86400000Y-37150000D03*
X90400000Y-37150000D03*
%TD*%
D23*
%TO.C,Ref\u002A\u002A*%
X82500000Y-99300000D03*
%TD*%
D16*
%TO.C,SW19*%
X68543587Y-116291931D03*
D19*
X70572350Y-119980091D03*
D17*
X71013701Y-108575000D03*
D18*
X73528280Y-113967531D03*
D17*
X76475000Y-108455785D03*
D16*
X78512973Y-111643131D03*
%TD*%
%TO.C,SW18*%
X41525000Y-117575000D03*
D19*
X41805000Y-121775000D03*
D17*
X47025000Y-111625000D03*
D18*
X47025000Y-117575000D03*
D17*
X52025000Y-113825000D03*
D16*
X52525000Y-117575000D03*
%TD*%
%TO.C,SW17*%
X21525000Y-117550000D03*
D19*
X21805000Y-121750000D03*
D17*
X27025000Y-111600000D03*
D18*
X27025000Y-117550000D03*
D17*
X32025000Y-113800000D03*
D16*
X32525000Y-117550000D03*
%TD*%
%TO.C,SW16*%
X21550000Y-97550000D03*
D19*
X21830000Y-101750000D03*
D17*
X27050000Y-91600000D03*
D18*
X27050000Y-97550000D03*
D17*
X32050000Y-93800000D03*
D16*
X32550000Y-97550000D03*
%TD*%
%TO.C,SW14*%
X140475000Y-86600000D03*
D19*
X140755000Y-90800000D03*
D17*
X145975000Y-80650000D03*
D18*
X145975000Y-86600000D03*
D17*
X150975000Y-82850000D03*
D16*
X151475000Y-86600000D03*
%TD*%
%TO.C,SW13*%
X122475000Y-82350000D03*
D19*
X122755000Y-86550000D03*
D17*
X127975000Y-76400000D03*
D18*
X127975000Y-82350000D03*
D17*
X132975000Y-78600000D03*
D16*
X133475000Y-82350000D03*
%TD*%
%TO.C,SW12*%
X104475000Y-85750000D03*
D19*
X104755000Y-89950000D03*
D17*
X109975000Y-79800000D03*
D18*
X109975000Y-85750000D03*
D17*
X114975000Y-82000000D03*
D16*
X115475000Y-85750000D03*
%TD*%
%TO.C,SW11*%
X86505000Y-86600000D03*
D19*
X86785000Y-90800000D03*
D17*
X92005000Y-80650000D03*
D18*
X92005000Y-86600000D03*
D17*
X97005000Y-82850000D03*
D16*
X97505000Y-86600000D03*
%TD*%
%TO.C,SW9*%
X151475000Y-69600000D03*
D17*
X150975000Y-65850000D03*
D18*
X145975000Y-69600000D03*
D17*
X145975000Y-63650000D03*
D19*
X140755000Y-73800000D03*
D16*
X140475000Y-69600000D03*
%TD*%
%TO.C,SW8*%
X133505000Y-65350000D03*
D17*
X133005000Y-61600000D03*
D18*
X128005000Y-65350000D03*
D17*
X128005000Y-59400000D03*
D19*
X122785000Y-69550000D03*
D16*
X122505000Y-65350000D03*
%TD*%
%TO.C,SW7*%
X115525000Y-68750000D03*
D17*
X115025000Y-65000000D03*
D18*
X110025000Y-68750000D03*
D17*
X110025000Y-62800000D03*
D19*
X104805000Y-72950000D03*
D16*
X104525000Y-68750000D03*
%TD*%
%TO.C,SW6*%
X97475000Y-69625000D03*
D17*
X96975000Y-65875000D03*
D18*
X91975000Y-69625000D03*
D17*
X91975000Y-63675000D03*
D19*
X86755000Y-73825000D03*
D16*
X86475000Y-69625000D03*
%TD*%
%TO.C,SW5*%
X160474881Y-67133202D03*
D17*
X160777935Y-70904231D03*
D18*
X165967343Y-67421050D03*
D17*
X165655944Y-73362896D03*
D19*
X171400000Y-63500000D03*
D16*
X171459805Y-67708898D03*
%TD*%
%TO.C,SW4*%
X140475000Y-52600000D03*
D17*
X140975000Y-56350000D03*
D18*
X145975000Y-52600000D03*
D17*
X145975000Y-58550000D03*
D19*
X151195000Y-48400000D03*
D16*
X151475000Y-52600000D03*
%TD*%
%TO.C,SW2*%
X115480000Y-51750000D03*
D17*
X114980000Y-48000000D03*
D18*
X109980000Y-51750000D03*
D17*
X109980000Y-45800000D03*
D19*
X104760000Y-55950000D03*
D16*
X104480000Y-51750000D03*
%TD*%
%TO.C,SW1*%
X97475000Y-52600000D03*
D17*
X96975000Y-48850000D03*
D18*
X91975000Y-52600000D03*
D17*
X91975000Y-46650000D03*
D19*
X86755000Y-56800000D03*
D16*
X86475000Y-52600000D03*
%TD*%
M02*
