M48
; DRILL file {KiCad 7.0.7} date Fri Aug 30 08:21:24 2024
; FORMAT={-:-/ absolute / metric / decimal}
; #@! TF.CreationDate,2024-08-30T08:21:24+09:00
; #@! TF.GenerationSoftware,Kicad,Pcbnew,7.0.7
; #@! TF.FileFunction,NonPlated,1,2,NPTH
FMAT,2
METRIC
; #@! TA.AperFunction,NonPlated,NPTH,ComponentDrill
T1C0.991
; #@! TA.AperFunction,NonPlated,NPTH,ComponentDrill
T2C1.200
; #@! TA.AperFunction,NonPlated,NPTH,ComponentDrill
T3C1.702
; #@! TA.AperFunction,NonPlated,NPTH,ComponentDrill
T4C3.000
; #@! TA.AperFunction,NonPlated,NPTH,ComponentDrill
T5C4.950
; #@! TA.AperFunction,NonPlated,NPTH,ComponentDrill
T6C5.000
%
G90
G05
T1
X21.805Y-121.75
X21.83Y-101.75
X41.805Y-121.775
X70.572Y-119.98
X86.755Y-56.8
X86.755Y-73.825
X86.785Y-90.8
X90.272Y-110.331
X104.755Y-89.95
X104.76Y-55.95
X104.805Y-72.95
X122.755Y-86.55
X122.78Y-52.575
X122.785Y-69.55
X140.755Y-73.8
X140.755Y-90.8
X151.195Y-48.4
X158.778Y-105.304
X159.701Y-88.309
X171.4Y-63.5
T2
X81.6Y-39.25
X88.6Y-39.25
T3
X21.525Y-117.55
X21.55Y-97.55
X32.525Y-117.55
X32.55Y-97.55
X41.525Y-117.575
X52.525Y-117.575
X68.544Y-116.292
X78.513Y-111.643
X86.475Y-52.6
X86.475Y-69.625
X86.505Y-86.6
X89.627Y-106.171
X97.475Y-52.6
X97.475Y-69.625
X97.505Y-86.6
X100.585Y-105.213
X104.475Y-85.75
X104.48Y-51.75
X104.525Y-68.75
X115.475Y-85.75
X115.48Y-51.75
X115.525Y-68.75
X122.475Y-82.35
X122.5Y-48.375
X122.505Y-65.35
X133.475Y-82.35
X133.5Y-48.375
X133.505Y-65.35
X140.475Y-52.6
X140.475Y-69.6
X140.475Y-86.6
X151.475Y-52.6
X151.475Y-69.6
X151.475Y-86.6
X158.718Y-101.095
X159.642Y-84.1
X160.475Y-67.133
X169.703Y-101.671
X170.627Y-84.676
X171.46Y-67.709
T4
X27.025Y-111.6
X27.05Y-91.6
X32.025Y-113.8
X32.05Y-93.8
X47.025Y-111.625
X52.025Y-113.825
X71.014Y-108.575
X76.475Y-108.456
X91.975Y-46.65
X91.975Y-63.675
X92.005Y-80.65
X94.588Y-99.765
X96.975Y-48.85
X96.975Y-65.875
X97.005Y-82.85
X99.76Y-101.52
X109.975Y-79.8
X109.98Y-45.8
X110.025Y-62.8
X114.975Y-82.0
X114.98Y-48.0
X115.025Y-65.0
X127.975Y-76.4
X128.0Y-42.425
X128.005Y-59.4
X132.975Y-78.6
X133.0Y-44.625
X133.005Y-61.6
X140.975Y-56.35
X145.975Y-58.55
X145.975Y-63.65
X145.975Y-80.65
X150.975Y-65.85
X150.975Y-82.85
X160.778Y-70.904
X164.522Y-95.441
X165.446Y-78.446
X165.656Y-73.363
X169.4Y-97.9
X170.324Y-80.905
T5
X27.025Y-117.55
X27.05Y-97.55
X47.025Y-117.575
X73.528Y-113.968
X91.975Y-52.6
X91.975Y-69.625
X92.005Y-86.6
X95.106Y-105.692
X109.975Y-85.75
X109.98Y-51.75
X110.025Y-68.75
X127.975Y-82.35
X128.0Y-48.375
X128.005Y-65.35
X145.975Y-52.6
X145.975Y-69.6
X145.975Y-86.6
X164.211Y-101.383
X165.134Y-84.388
X165.967Y-67.421
T6
X82.5Y-99.3
T0
M30
