%TF.GenerationSoftware,KiCad,Pcbnew,7.0.7*%
%TF.CreationDate,2024-08-20T00:07:21+09:00*%
%TF.ProjectId,trackmacro,74726163-6b6d-4616-9372-6f2e6b696361,rev?*%
%TF.SameCoordinates,Original*%
%TF.FileFunction,Copper,L2,Bot*%
%TF.FilePolarity,Positive*%
%FSLAX46Y46*%
G04 Gerber Fmt 4.6, Leading zero omitted, Abs format (unit mm)*
G04 Created by KiCad (PCBNEW 7.0.7) date 2024-08-20 00:07:21*
%MOMM*%
%LPD*%
G01*
G04 APERTURE LIST*
G04 Aperture macros list*
%AMRoundRect*
0 Rectangle with rounded corners*
0 $1 Rounding radius*
0 $2 $3 $4 $5 $6 $7 $8 $9 X,Y pos of 4 corners*
0 Add a 4 corners polygon primitive as box body*
4,1,4,$2,$3,$4,$5,$6,$7,$8,$9,$2,$3,0*
0 Add four circle primitives for the rounded corners*
1,1,$1+$1,$2,$3*
1,1,$1+$1,$4,$5*
1,1,$1+$1,$6,$7*
1,1,$1+$1,$8,$9*
0 Add four rect primitives between the rounded corners*
20,1,$1+$1,$2,$3,$4,$5,0*
20,1,$1+$1,$4,$5,$6,$7,0*
20,1,$1+$1,$6,$7,$8,$9,0*
20,1,$1+$1,$8,$9,$2,$3,0*%
G04 Aperture macros list end*
%TA.AperFunction,ComponentPad*%
%ADD10O,2.500000X1.700000*%
%TD*%
%TA.AperFunction,SMDPad,CuDef*%
%ADD11R,2.600000X2.600000*%
%TD*%
%TA.AperFunction,SMDPad,CuDef*%
%ADD12RoundRect,0.400000X-0.856000X-0.400000X0.856000X-0.400000X0.856000X0.400000X-0.856000X0.400000X0*%
%TD*%
%TA.AperFunction,SMDPad,CuDef*%
%ADD13RoundRect,0.395000X-0.833700X-0.395000X0.833700X-0.395000X0.833700X0.395000X-0.833700X0.395000X0*%
%TD*%
%TA.AperFunction,SMDPad,CuDef*%
%ADD14RoundRect,0.405000X-0.823700X-0.405000X0.823700X-0.405000X0.823700X0.405000X-0.823700X0.405000X0*%
%TD*%
%TA.AperFunction,SMDPad,CuDef*%
%ADD15RoundRect,0.390000X-0.838700X-0.390000X0.838700X-0.390000X0.838700X0.390000X-0.838700X0.390000X0*%
%TD*%
%TA.AperFunction,SMDPad,CuDef*%
%ADD16RoundRect,0.400000X-0.828700X-0.400000X0.828700X-0.400000X0.828700X0.400000X-0.828700X0.400000X0*%
%TD*%
%TA.AperFunction,SMDPad,CuDef*%
%ADD17RoundRect,0.400050X-0.828650X-0.400050X0.828650X-0.400050X0.828650X0.400050X-0.828650X0.400050X0*%
%TD*%
%TA.AperFunction,SMDPad,CuDef*%
%ADD18RoundRect,0.400050X-0.855950X-0.400050X0.855950X-0.400050X0.855950X0.400050X-0.855950X0.400050X0*%
%TD*%
%TA.AperFunction,SMDPad,CuDef*%
%ADD19RoundRect,0.405025X-0.850975X-0.405025X0.850975X-0.405025X0.850975X0.405025X-0.850975X0.405025X0*%
%TD*%
%TA.AperFunction,SMDPad,CuDef*%
%ADD20RoundRect,0.400050X-0.965950X-0.400050X0.965950X-0.400050X0.965950X0.400050X-0.965950X0.400050X0*%
%TD*%
%TA.AperFunction,SMDPad,CuDef*%
%ADD21RoundRect,0.400000X-0.400000X-0.988000X0.400000X-0.988000X0.400000X0.988000X-0.400000X0.988000X0*%
%TD*%
%TA.AperFunction,SMDPad,CuDef*%
%ADD22RoundRect,0.393700X-0.393700X-0.994300X0.393700X-0.994300X0.393700X0.994300X-0.393700X0.994300X0*%
%TD*%
%TA.AperFunction,SMDPad,CuDef*%
%ADD23RoundRect,0.405025X-0.856975X-0.405025X0.856975X-0.405025X0.856975X0.405025X-0.856975X0.405025X0*%
%TD*%
%TA.AperFunction,SMDPad,CuDef*%
%ADD24RoundRect,0.400050X-0.849950X-0.400050X0.849950X-0.400050X0.849950X0.400050X-0.849950X0.400050X0*%
%TD*%
%TA.AperFunction,SMDPad,CuDef*%
%ADD25RoundRect,0.400050X-0.845950X-0.400050X0.845950X-0.400050X0.845950X0.400050X-0.845950X0.400050X0*%
%TD*%
%TA.AperFunction,SMDPad,CuDef*%
%ADD26RoundRect,0.415025X-0.834975X-0.415025X0.834975X-0.415025X0.834975X0.415025X-0.834975X0.415025X0*%
%TD*%
%TA.AperFunction,ComponentPad*%
%ADD27R,1.700000X1.700000*%
%TD*%
%TA.AperFunction,ComponentPad*%
%ADD28O,1.700000X1.700000*%
%TD*%
%TA.AperFunction,ViaPad*%
%ADD29C,0.800000*%
%TD*%
%TA.AperFunction,Conductor*%
%ADD30C,0.250000*%
%TD*%
%ADD31C,0.350000*%
%ADD32O,1.500000X1.000000*%
G04 APERTURE END LIST*
D10*
%TO.P,J1,A*%
%TO.N,unconnected-(J1-PadA)*%
X85075000Y-77500000D03*
%TO.P,J1,B*%
%TO.N,data*%
X93575000Y-81700000D03*
%TO.P,J1,C*%
%TO.N,GND*%
X90575000Y-81700000D03*
%TO.P,J1,D*%
%TO.N,VCC*%
X86575000Y-81700000D03*
%TD*%
D11*
%TO.P,SW3,1,1*%
%TO.N,col2*%
X64720000Y-73625000D03*
%TO.P,SW3,2,2*%
%TO.N,Net-(D3-A)*%
X76270000Y-75825000D03*
%TD*%
%TO.P,SW2,1,1*%
%TO.N,col1*%
X45725000Y-73625000D03*
%TO.P,SW2,2,2*%
%TO.N,Net-(D2-A)*%
X57275000Y-75825000D03*
%TD*%
%TO.P,SW1,1,1*%
%TO.N,col0*%
X26725000Y-73650000D03*
%TO.P,SW1,2,2*%
%TO.N,Net-(D1-A)*%
X38275000Y-75850000D03*
%TD*%
D12*
%TO.P,RZ1,1,GP0*%
%TO.N,unconnected-(RZ1-GP0-Pad1)*%
X92926000Y-40655000D03*
D13*
%TO.P,RZ1,2,GP1*%
%TO.N,unconnected-(RZ1-GP1-Pad2)*%
X92953300Y-43205000D03*
D14*
%TO.P,RZ1,3,GP2*%
%TO.N,unconnected-(RZ1-GP2-Pad3)*%
X92953300Y-45725000D03*
D15*
%TO.P,RZ1,4,GP3*%
%TO.N,unconnected-(RZ1-GP3-Pad4)*%
X92953300Y-48295000D03*
D16*
%TO.P,RZ1,5,GP4*%
%TO.N,unconnected-(RZ1-GP4-Pad5)*%
X92953300Y-50815000D03*
D17*
%TO.P,RZ1,6,GP5*%
%TO.N,col0*%
X92953300Y-53355000D03*
D18*
%TO.P,RZ1,7,GP6*%
%TO.N,col1*%
X92926000Y-55895000D03*
D19*
%TO.P,RZ1,8,GP7*%
%TO.N,col2*%
X92926000Y-58425050D03*
D20*
%TO.P,RZ1,9,GP8*%
%TO.N,row0*%
X92816000Y-60975000D03*
D21*
%TO.P,RZ1,10,GP9*%
%TO.N,data*%
X89610000Y-61873000D03*
D22*
%TO.P,RZ1,11,GP10*%
%TO.N,unconnected-(RZ1-GP10-Pad11)*%
X87070000Y-61873000D03*
%TO.P,RZ1,12,GP11*%
%TO.N,MOTION*%
X84530000Y-61873000D03*
%TO.P,RZ1,13,GP12*%
%TO.N,MISO*%
X81990000Y-61873000D03*
%TO.P,RZ1,14,GP13*%
%TO.N,CS*%
X79450000Y-61873000D03*
D20*
%TO.P,RZ1,15,GP14*%
%TO.N,SCLK*%
X76244000Y-60975000D03*
D23*
%TO.P,RZ1,16,GP15*%
%TO.N,MOSI*%
X76232000Y-58425050D03*
D24*
%TO.P,RZ1,17,GP26*%
%TO.N,unconnected-(RZ1-GP26-Pad17)*%
X76124000Y-55895000D03*
%TO.P,RZ1,18,GP27*%
%TO.N,unconnected-(RZ1-GP27-Pad18)*%
X76124000Y-53355000D03*
D25*
%TO.P,RZ1,19,GP28*%
%TO.N,unconnected-(RZ1-GP28-Pad19)*%
X76124000Y-50815000D03*
D26*
%TO.P,RZ1,20,GP29*%
%TO.N,unconnected-(RZ1-GP29-Pad20)*%
X76124000Y-48245050D03*
D24*
%TO.P,RZ1,21,3V3*%
%TO.N,3V3*%
X76124000Y-45735000D03*
%TO.P,RZ1,22,GND*%
%TO.N,GND*%
X76106700Y-43195000D03*
%TO.P,RZ1,23,5V*%
%TO.N,VCC*%
X76124000Y-40655000D03*
%TD*%
D27*
%TO.P,J2,1,Pin_1*%
%TO.N,GND*%
X50400000Y-65100000D03*
D28*
%TO.P,J2,2,Pin_2*%
%TO.N,3V3*%
X47860000Y-65100000D03*
%TO.P,J2,3,Pin_3*%
%TO.N,unconnected-(J2-Pin_3-Pad3)*%
X45320000Y-65100000D03*
%TO.P,J2,4,Pin_4*%
%TO.N,MOTION*%
X42780000Y-65100000D03*
%TO.P,J2,5,Pin_5*%
%TO.N,SCLK*%
X40240000Y-65100000D03*
%TO.P,J2,6,Pin_6*%
%TO.N,MOSI*%
X37700000Y-65100000D03*
%TO.P,J2,7,Pin_7*%
%TO.N,MISO*%
X35160000Y-65100000D03*
%TO.P,J2,8,Pin_8*%
%TO.N,CS*%
X32620000Y-65100000D03*
%TD*%
D29*
%TO.N,row0*%
X92402300Y-63239300D03*
%TO.N,Net-(D1-A)*%
X31277500Y-83087500D03*
%TO.N,Net-(D2-A)*%
X49000000Y-83700900D03*
%TO.N,Net-(D3-A)*%
X69223600Y-83074400D03*
%TO.N,GND*%
X72900000Y-69700000D03*
X73950000Y-43275000D03*
X41419349Y-66804229D03*
%TO.N,VCC*%
X73575000Y-41175000D03*
%TO.N,MOTION*%
X84175000Y-64075000D03*
X69375000Y-67675500D03*
%TO.N,SCLK*%
X76875000Y-63075000D03*
%TO.N,CS*%
X78200000Y-68375000D03*
%TO.N,col0*%
X33175000Y-70790400D03*
X94960000Y-60656800D03*
%TD*%
D30*
%TO.N,row0*%
X92150000Y-60975000D02*
X92150000Y-62987000D01*
X92150000Y-62987000D02*
X92402300Y-63239300D01*
%TO.N,Net-(D1-A)*%
X34047300Y-83087500D02*
X38275000Y-78859800D01*
X31277500Y-83087500D02*
X34047300Y-83087500D01*
X38275000Y-78859800D02*
X38275000Y-75850000D01*
%TO.N,Net-(D2-A)*%
X57275000Y-78899800D02*
X57275000Y-75825000D01*
X49000000Y-83700900D02*
X52473900Y-83700900D01*
X52473900Y-83700900D02*
X57275000Y-78899800D01*
%TO.N,Net-(D3-A)*%
X69223600Y-83074400D02*
X71525000Y-80773000D01*
X72825000Y-77925000D02*
X74170000Y-77925000D01*
X71525000Y-80773000D02*
X71525000Y-79225000D01*
X74170000Y-77925000D02*
X76270000Y-75825000D01*
X71525000Y-79225000D02*
X72825000Y-77925000D01*
%TO.N,data*%
X93575000Y-81700000D02*
X93575000Y-80523100D01*
X89610000Y-61185000D02*
X89610000Y-76558100D01*
X89610000Y-76558100D02*
X93575000Y-80523100D01*
%TO.N,GND*%
X74030000Y-43195000D02*
X73950000Y-43275000D01*
X76910000Y-43195000D02*
X74030000Y-43195000D01*
%TO.N,VCC*%
X74095000Y-40655000D02*
X76910000Y-40655000D01*
X73575000Y-41175000D02*
X74095000Y-40655000D01*
%TO.N,3V3*%
X49200000Y-68575000D02*
X47860000Y-67235000D01*
X69550000Y-68575000D02*
X49200000Y-68575000D01*
X76910000Y-45735000D02*
X75090000Y-45735000D01*
X73975000Y-64150000D02*
X69550000Y-68575000D01*
X47860000Y-67235000D02*
X47860000Y-65100000D01*
X75090000Y-45735000D02*
X73975000Y-46850000D01*
X73975000Y-46850000D02*
X73975000Y-64150000D01*
%TO.N,MOTION*%
X50125500Y-67675500D02*
X49225000Y-66775000D01*
X49225000Y-64803299D02*
X48346701Y-63925000D01*
X69375000Y-67675500D02*
X50125500Y-67675500D01*
X84175000Y-64075000D02*
X84530000Y-63720000D01*
X48346701Y-63925000D02*
X43955000Y-63925000D01*
X43955000Y-63925000D02*
X42780000Y-65100000D01*
X49225000Y-66775000D02*
X49225000Y-64803299D01*
X84530000Y-63720000D02*
X84530000Y-61185000D01*
%TO.N,SCLK*%
X76875000Y-63075000D02*
X76875000Y-61500000D01*
X76875000Y-61500000D02*
X76910000Y-61465000D01*
X76910000Y-61465000D02*
X76910000Y-60975000D01*
%TO.N,MOSI*%
X39100000Y-69025000D02*
X70850000Y-69025000D01*
X74425000Y-59275000D02*
X75265000Y-58435000D01*
X70850000Y-69025000D02*
X74425000Y-65450000D01*
X37700000Y-67625000D02*
X39100000Y-69025000D01*
X75265000Y-58435000D02*
X76910000Y-58435000D01*
X74425000Y-65450000D02*
X74425000Y-59275000D01*
X37700000Y-65100000D02*
X37700000Y-67625000D01*
%TO.N,MISO*%
X81990000Y-61185000D02*
X81825000Y-61350000D01*
X75550000Y-73000000D02*
X71557200Y-73000000D01*
X71557200Y-73000000D02*
X68846400Y-75710800D01*
X68846400Y-75710800D02*
X63285800Y-75710800D01*
X38422604Y-69659000D02*
X35160000Y-66396396D01*
X35160000Y-66396396D02*
X35160000Y-65100000D01*
X81825000Y-61350000D02*
X81825000Y-66725000D01*
X63285800Y-75710800D02*
X62675000Y-75100000D01*
X62675000Y-71050000D02*
X61284000Y-69659000D01*
X81825000Y-66725000D02*
X75550000Y-73000000D01*
X61284000Y-69659000D02*
X38422604Y-69659000D01*
X62675000Y-75100000D02*
X62675000Y-71050000D01*
%TO.N,CS*%
X79450000Y-67125000D02*
X79450000Y-61185000D01*
X78200000Y-68375000D02*
X79450000Y-67125000D01*
%TO.N,col0*%
X94960000Y-60656800D02*
X95450000Y-60166800D01*
X29584600Y-70790400D02*
X26725000Y-73650000D01*
X92735400Y-53355000D02*
X92150000Y-53355000D01*
X95450000Y-56069600D02*
X92735400Y-53355000D01*
X95450000Y-60166800D02*
X95450000Y-56069600D01*
X33175000Y-70790400D02*
X29584600Y-70790400D01*
%TO.N,col1*%
X86817700Y-59703600D02*
X94009100Y-59703600D01*
X94539800Y-59172900D02*
X94539800Y-57722900D01*
X76050000Y-73450000D02*
X85943000Y-63557000D01*
X71743596Y-73450000D02*
X76050000Y-73450000D01*
X47801900Y-71548100D02*
X56077100Y-71548100D01*
X94539800Y-57722900D02*
X92711900Y-55895000D01*
X92711900Y-55895000D02*
X92150000Y-55895000D01*
X85943000Y-60578300D02*
X86817700Y-59703600D01*
X85943000Y-63557000D02*
X85943000Y-60578300D01*
X69024496Y-76169100D02*
X71743596Y-73450000D01*
X56077100Y-71548100D02*
X60698100Y-76169100D01*
X60698100Y-76169100D02*
X69024496Y-76169100D01*
X45725000Y-73625000D02*
X47801900Y-71548100D01*
X94009100Y-59703600D02*
X94539800Y-59172900D01*
%TO.N,col2*%
X80483400Y-58435000D02*
X78284800Y-60633600D01*
X64720000Y-71998100D02*
X64720000Y-73625000D01*
X73875000Y-71175000D02*
X65543100Y-71175000D01*
X92150000Y-58435000D02*
X80483400Y-58435000D01*
X65543100Y-71175000D02*
X64720000Y-71998100D01*
X78284800Y-66765200D02*
X73875000Y-71175000D01*
X78284800Y-60633600D02*
X78284800Y-66765200D01*
%TD*%
%TA.AperFunction,Conductor*%
%TO.N,GND*%
G36*
X96503455Y-39100889D02*
G01*
X96516485Y-39102357D01*
X96526354Y-39103470D01*
X96568982Y-39109081D01*
X96605831Y-39113932D01*
X96630599Y-39119830D01*
X96664736Y-39131775D01*
X96667976Y-39133011D01*
X96722195Y-39155469D01*
X96740695Y-39165027D01*
X96775520Y-39186909D01*
X96780267Y-39190212D01*
X96828200Y-39226993D01*
X96834295Y-39232337D01*
X96867660Y-39265702D01*
X96873005Y-39271798D01*
X96909786Y-39319731D01*
X96913097Y-39324490D01*
X96934967Y-39359296D01*
X96944536Y-39377818D01*
X96966983Y-39432014D01*
X96968223Y-39435263D01*
X96980169Y-39469401D01*
X96986066Y-39494169D01*
X96996530Y-39573647D01*
X96999110Y-39596538D01*
X96999500Y-39603486D01*
X96999500Y-67096514D01*
X96999110Y-67103462D01*
X96996530Y-67126351D01*
X96986066Y-67205829D01*
X96980169Y-67230597D01*
X96968223Y-67264735D01*
X96966983Y-67267984D01*
X96944536Y-67322180D01*
X96934967Y-67340702D01*
X96913097Y-67375508D01*
X96909786Y-67380267D01*
X96873005Y-67428200D01*
X96867653Y-67434304D01*
X96834304Y-67467653D01*
X96828200Y-67473005D01*
X96780267Y-67509786D01*
X96775508Y-67513097D01*
X96740702Y-67534967D01*
X96722180Y-67544536D01*
X96667984Y-67566983D01*
X96664735Y-67568223D01*
X96630597Y-67580169D01*
X96605829Y-67586066D01*
X96526351Y-67596530D01*
X96505688Y-67598859D01*
X96503460Y-67599110D01*
X96496514Y-67599500D01*
X96348746Y-67599500D01*
X96269147Y-67609165D01*
X96179348Y-67620068D01*
X96175776Y-67620397D01*
X96094755Y-67625494D01*
X96073437Y-67632928D01*
X96048449Y-67635963D01*
X95989973Y-67650376D01*
X95868487Y-67680319D01*
X95865267Y-67681023D01*
X95790371Y-67695310D01*
X95773051Y-67703841D01*
X95754737Y-67708355D01*
X95754728Y-67708358D01*
X95566078Y-67779904D01*
X95563252Y-67780899D01*
X95496986Y-67802430D01*
X95483637Y-67811170D01*
X95471884Y-67815627D01*
X95275532Y-67918682D01*
X95219149Y-67945214D01*
X95209601Y-67953285D01*
X95204036Y-67956206D01*
X95204018Y-67956216D01*
X95003671Y-68094506D01*
X94961147Y-68121492D01*
X94957658Y-68125261D01*
X94958030Y-68125735D01*
X94955072Y-68128052D01*
X94753322Y-68306787D01*
X94731501Y-68324838D01*
X94730938Y-68325671D01*
X94731132Y-68325843D01*
X94729824Y-68327318D01*
X94729508Y-68327787D01*
X94728644Y-68328650D01*
X94528140Y-68554973D01*
X94528063Y-68555054D01*
X94356212Y-68804026D01*
X94354733Y-68806472D01*
X94354399Y-68807480D01*
X94215624Y-69071892D01*
X94212019Y-69081395D01*
X94212018Y-69081402D01*
X94108358Y-69354728D01*
X94104419Y-69370704D01*
X94104419Y-69370711D01*
X94036146Y-69647709D01*
X94035963Y-69648450D01*
X94033225Y-69670997D01*
X93999500Y-69948745D01*
X93999500Y-70251254D01*
X94033225Y-70529001D01*
X94033224Y-70529003D01*
X94035539Y-70548062D01*
X94035963Y-70551551D01*
X94076350Y-70715407D01*
X94104081Y-70827918D01*
X94104083Y-70827925D01*
X94108356Y-70845266D01*
X94108358Y-70845270D01*
X94211990Y-71118524D01*
X94211991Y-71118527D01*
X94215624Y-71128107D01*
X94215626Y-71128111D01*
X94215627Y-71128113D01*
X94323734Y-71334094D01*
X94354398Y-71392518D01*
X94354534Y-71393196D01*
X94356212Y-71395973D01*
X94528057Y-71644936D01*
X94528118Y-71645001D01*
X94540532Y-71659013D01*
X94728646Y-71871351D01*
X94729493Y-71872198D01*
X94729648Y-71872481D01*
X94731132Y-71874157D01*
X94730748Y-71874496D01*
X94730787Y-71874568D01*
X94753298Y-71893190D01*
X94831242Y-71962242D01*
X94955072Y-72071947D01*
X94958030Y-72074265D01*
X94957493Y-72074949D01*
X94959561Y-72077499D01*
X95003657Y-72105483D01*
X95165965Y-72217516D01*
X95204033Y-72243792D01*
X95209587Y-72246707D01*
X95216788Y-72253674D01*
X95275513Y-72281307D01*
X95471887Y-72384373D01*
X95483627Y-72388825D01*
X95493810Y-72396535D01*
X95563222Y-72419089D01*
X95566047Y-72420083D01*
X95754734Y-72491643D01*
X95773037Y-72496154D01*
X95786390Y-72503929D01*
X95865255Y-72518973D01*
X95868447Y-72519670D01*
X96048449Y-72564037D01*
X96073403Y-72567067D01*
X96089986Y-72574203D01*
X96175748Y-72579599D01*
X96179300Y-72579925D01*
X96311912Y-72596027D01*
X96348746Y-72600500D01*
X96348748Y-72600500D01*
X96496518Y-72600500D01*
X96503455Y-72600889D01*
X96516485Y-72602357D01*
X96526354Y-72603470D01*
X96568982Y-72609081D01*
X96605831Y-72613932D01*
X96630599Y-72619830D01*
X96664736Y-72631775D01*
X96667967Y-72633008D01*
X96722195Y-72655469D01*
X96740695Y-72665027D01*
X96775520Y-72686909D01*
X96780267Y-72690212D01*
X96828200Y-72726993D01*
X96834295Y-72732337D01*
X96867660Y-72765702D01*
X96873005Y-72771798D01*
X96909786Y-72819731D01*
X96913097Y-72824490D01*
X96934967Y-72859296D01*
X96944536Y-72877818D01*
X96966983Y-72932014D01*
X96968223Y-72935263D01*
X96980169Y-72969401D01*
X96986066Y-72994169D01*
X96996530Y-73073647D01*
X96999110Y-73096538D01*
X96999500Y-73103486D01*
X96999500Y-86096514D01*
X96999110Y-86103462D01*
X96996530Y-86126351D01*
X96986066Y-86205829D01*
X96980169Y-86230597D01*
X96968223Y-86264735D01*
X96966983Y-86267984D01*
X96944536Y-86322180D01*
X96934967Y-86340702D01*
X96913097Y-86375508D01*
X96909786Y-86380267D01*
X96873005Y-86428200D01*
X96867653Y-86434304D01*
X96834304Y-86467653D01*
X96828200Y-86473005D01*
X96780267Y-86509786D01*
X96775508Y-86513097D01*
X96740702Y-86534967D01*
X96722180Y-86544536D01*
X96667984Y-86566983D01*
X96664735Y-86568223D01*
X96630597Y-86580169D01*
X96605829Y-86586066D01*
X96526351Y-86596530D01*
X96505688Y-86598859D01*
X96503460Y-86599110D01*
X96496514Y-86599500D01*
X96348744Y-86599500D01*
X96164113Y-86621918D01*
X96160695Y-86622237D01*
X96085327Y-86627177D01*
X96066444Y-86633777D01*
X96048455Y-86635962D01*
X96048452Y-86635962D01*
X96048449Y-86635963D01*
X95929480Y-86665286D01*
X95832549Y-86689177D01*
X95829807Y-86689787D01*
X95770821Y-86701520D01*
X95759272Y-86707238D01*
X95754734Y-86708356D01*
X95754728Y-86708358D01*
X95499240Y-86805252D01*
X95474993Y-86813482D01*
X95475205Y-86813885D01*
X95204035Y-86956206D01*
X95200817Y-86958152D01*
X95200775Y-86958083D01*
X95199643Y-86958748D01*
X95197854Y-86960472D01*
X94955078Y-87128047D01*
X94955073Y-87128051D01*
X94940099Y-87141317D01*
X94939395Y-87141859D01*
X94939166Y-87142143D01*
X94755886Y-87304514D01*
X94755881Y-87304520D01*
X94728647Y-87328647D01*
X94704520Y-87355881D01*
X94704514Y-87355886D01*
X94542143Y-87539166D01*
X94541937Y-87539295D01*
X94541317Y-87540099D01*
X94528051Y-87555073D01*
X94528047Y-87555078D01*
X94360472Y-87797854D01*
X94359187Y-87798894D01*
X94358083Y-87800775D01*
X94358152Y-87800817D01*
X94356206Y-87804035D01*
X94213885Y-88075205D01*
X94213482Y-88074993D01*
X94205252Y-88099240D01*
X94108358Y-88354728D01*
X94108356Y-88354734D01*
X94107238Y-88359272D01*
X94102043Y-88368192D01*
X94089787Y-88429807D01*
X94089177Y-88432549D01*
X94035962Y-88648455D01*
X94033777Y-88666444D01*
X94027451Y-88681138D01*
X94022237Y-88760695D01*
X94021918Y-88764113D01*
X93999500Y-88948744D01*
X93999500Y-89096514D01*
X93999110Y-89103462D01*
X93996530Y-89126351D01*
X93986066Y-89205829D01*
X93980169Y-89230597D01*
X93968223Y-89264735D01*
X93966983Y-89267984D01*
X93944536Y-89322180D01*
X93934967Y-89340702D01*
X93913097Y-89375508D01*
X93909786Y-89380267D01*
X93873005Y-89428200D01*
X93867653Y-89434304D01*
X93834304Y-89467653D01*
X93828200Y-89473005D01*
X93780267Y-89509786D01*
X93775508Y-89513097D01*
X93740702Y-89534967D01*
X93722180Y-89544536D01*
X93667984Y-89566983D01*
X93664735Y-89568223D01*
X93630597Y-89580169D01*
X93605829Y-89586066D01*
X93526351Y-89596530D01*
X93505688Y-89598859D01*
X93503460Y-89599110D01*
X93496514Y-89599500D01*
X23503487Y-89599500D01*
X23496539Y-89599110D01*
X23473650Y-89596530D01*
X23394166Y-89586066D01*
X23369396Y-89580168D01*
X23335281Y-89568231D01*
X23332031Y-89566990D01*
X23277813Y-89544532D01*
X23259295Y-89534966D01*
X23224500Y-89513103D01*
X23219740Y-89509792D01*
X23171794Y-89473002D01*
X23165695Y-89467653D01*
X23132341Y-89434299D01*
X23126996Y-89428204D01*
X23090206Y-89380258D01*
X23086900Y-89375505D01*
X23065030Y-89340699D01*
X23055468Y-89322190D01*
X23033002Y-89267953D01*
X23031774Y-89264735D01*
X23019828Y-89230595D01*
X23013934Y-89205846D01*
X23007150Y-89154315D01*
X23003470Y-89126350D01*
X23000890Y-89103465D01*
X23000500Y-89096516D01*
X23000500Y-88948745D01*
X22978078Y-88764088D01*
X22977759Y-88760669D01*
X22972819Y-88685315D01*
X22966220Y-88666431D01*
X22964037Y-88648449D01*
X22910810Y-88432500D01*
X22910208Y-88429795D01*
X22898475Y-88370809D01*
X22892757Y-88359254D01*
X22891643Y-88354734D01*
X22794730Y-88099196D01*
X22786514Y-88074995D01*
X22786115Y-88075205D01*
X22643793Y-87804035D01*
X22641848Y-87800817D01*
X22641917Y-87800774D01*
X22641257Y-87799650D01*
X22639525Y-87797851D01*
X22471952Y-87555078D01*
X22471948Y-87555074D01*
X22458680Y-87540097D01*
X22458138Y-87539394D01*
X22457855Y-87539165D01*
X22295507Y-87355912D01*
X22295496Y-87355901D01*
X22271352Y-87328648D01*
X22271350Y-87328646D01*
X22244112Y-87304514D01*
X22244111Y-87304513D01*
X22060833Y-87142143D01*
X22060703Y-87141936D01*
X22059900Y-87141317D01*
X22044921Y-87128047D01*
X21802146Y-86960472D01*
X21801105Y-86959187D01*
X21799224Y-86958082D01*
X21799183Y-86958152D01*
X21795964Y-86956206D01*
X21524795Y-86813885D01*
X21525005Y-86813484D01*
X21500791Y-86805265D01*
X21245270Y-86708358D01*
X21240730Y-86707239D01*
X21231807Y-86702043D01*
X21170193Y-86689787D01*
X21167451Y-86689177D01*
X21072068Y-86665667D01*
X20951551Y-86635963D01*
X20933559Y-86633778D01*
X20918859Y-86627451D01*
X20839303Y-86622237D01*
X20835885Y-86621918D01*
X20651256Y-86599500D01*
X20651252Y-86599500D01*
X20503487Y-86599500D01*
X20496539Y-86599110D01*
X20473650Y-86596530D01*
X20394166Y-86586066D01*
X20369396Y-86580168D01*
X20335281Y-86568231D01*
X20332031Y-86566990D01*
X20277813Y-86544532D01*
X20259295Y-86534966D01*
X20224500Y-86513103D01*
X20219740Y-86509792D01*
X20171794Y-86473002D01*
X20165695Y-86467653D01*
X20132341Y-86434299D01*
X20126996Y-86428204D01*
X20090206Y-86380258D01*
X20086900Y-86375505D01*
X20065030Y-86340699D01*
X20055468Y-86322190D01*
X20033002Y-86267953D01*
X20031774Y-86264735D01*
X20019828Y-86230595D01*
X20013934Y-86205846D01*
X20007150Y-86154315D01*
X20003470Y-86126350D01*
X20000890Y-86103465D01*
X20000500Y-86096516D01*
X20000500Y-83843660D01*
X24030393Y-83843660D01*
X24060668Y-84015354D01*
X24129721Y-84175438D01*
X24129722Y-84175440D01*
X24129724Y-84175443D01*
X24231062Y-84311562D01*
X24233832Y-84315283D01*
X24367386Y-84427349D01*
X24523185Y-84505594D01*
X24692829Y-84545800D01*
X24692831Y-84545800D01*
X24823429Y-84545800D01*
X24823436Y-84545800D01*
X24953164Y-84530637D01*
X25116993Y-84471008D01*
X25262654Y-84375205D01*
X25382296Y-84248393D01*
X25469467Y-84097407D01*
X25519469Y-83930388D01*
X25529607Y-83756340D01*
X25499332Y-83584646D01*
X25430279Y-83424562D01*
X25326168Y-83284717D01*
X25315492Y-83275759D01*
X25192614Y-83172651D01*
X25192612Y-83172650D01*
X25036818Y-83094407D01*
X25036816Y-83094406D01*
X25036815Y-83094406D01*
X24867171Y-83054200D01*
X24736564Y-83054200D01*
X24623051Y-83067467D01*
X24606835Y-83069363D01*
X24606832Y-83069364D01*
X24443008Y-83128991D01*
X24443004Y-83128993D01*
X24297348Y-83224792D01*
X24297347Y-83224793D01*
X24177706Y-83351603D01*
X24177703Y-83351609D01*
X24090534Y-83502590D01*
X24040531Y-83669610D01*
X24040530Y-83669616D01*
X24035243Y-83760388D01*
X24030393Y-83843660D01*
X20000500Y-83843660D01*
X20000500Y-79547357D01*
X23394843Y-79547357D01*
X23395796Y-79567374D01*
X23404852Y-79757459D01*
X23454442Y-79961871D01*
X23498286Y-80057876D01*
X23541820Y-80153204D01*
X23541824Y-80153210D01*
X23663826Y-80324539D01*
X23663831Y-80324544D01*
X23816063Y-80469697D01*
X23993014Y-80583416D01*
X24188288Y-80661593D01*
X24317084Y-80686416D01*
X24394828Y-80701400D01*
X24394829Y-80701400D01*
X24552461Y-80701400D01*
X24552468Y-80701400D01*
X24709389Y-80686416D01*
X24911211Y-80627156D01*
X25098170Y-80530771D01*
X25263510Y-80400747D01*
X25401255Y-80241781D01*
X25506426Y-80059619D01*
X25575222Y-79860846D01*
X25605157Y-79652645D01*
X25602649Y-79600000D01*
X27269518Y-79600000D01*
X27289425Y-79929117D01*
X27289425Y-79929122D01*
X27289426Y-79929123D01*
X27348861Y-80253447D01*
X27348862Y-80253451D01*
X27348863Y-80253455D01*
X27446948Y-80568223D01*
X27446952Y-80568234D01*
X27446953Y-80568237D01*
X27446955Y-80568242D01*
X27582278Y-80868918D01*
X27752857Y-81151091D01*
X27773585Y-81177548D01*
X27956207Y-81410647D01*
X28189352Y-81643792D01*
X28196080Y-81649063D01*
X28448909Y-81847143D01*
X28731082Y-82017722D01*
X29031758Y-82153045D01*
X29031768Y-82153048D01*
X29031776Y-82153051D01*
X29182442Y-82200000D01*
X29346553Y-82251139D01*
X29670877Y-82310574D01*
X29847134Y-82321235D01*
X29917635Y-82325500D01*
X29917637Y-82325500D01*
X30082365Y-82325500D01*
X30144052Y-82321768D01*
X30329123Y-82310574D01*
X30493380Y-82280472D01*
X30562865Y-82287750D01*
X30617389Y-82331441D01*
X30639636Y-82397674D01*
X30622543Y-82465421D01*
X30607879Y-82485412D01*
X30544966Y-82555285D01*
X30450321Y-82719215D01*
X30450318Y-82719222D01*
X30396082Y-82886144D01*
X30391826Y-82899244D01*
X30372040Y-83087500D01*
X30391826Y-83275756D01*
X30391827Y-83275759D01*
X30450318Y-83455777D01*
X30450321Y-83455784D01*
X30544967Y-83619716D01*
X30645474Y-83731340D01*
X30671629Y-83760388D01*
X30824765Y-83871648D01*
X30824770Y-83871651D01*
X30997692Y-83948642D01*
X30997697Y-83948644D01*
X31182854Y-83988000D01*
X31182855Y-83988000D01*
X31372144Y-83988000D01*
X31372146Y-83988000D01*
X31557303Y-83948644D01*
X31730230Y-83871651D01*
X31803166Y-83818660D01*
X43030393Y-83818660D01*
X43060668Y-83990354D01*
X43129721Y-84150438D01*
X43129722Y-84150440D01*
X43129724Y-84150443D01*
X43211854Y-84260762D01*
X43233832Y-84290283D01*
X43367386Y-84402349D01*
X43523185Y-84480594D01*
X43692829Y-84520800D01*
X43692831Y-84520800D01*
X43823429Y-84520800D01*
X43823436Y-84520800D01*
X43953164Y-84505637D01*
X44116993Y-84446008D01*
X44262654Y-84350205D01*
X44382296Y-84223393D01*
X44469467Y-84072407D01*
X44519469Y-83905388D01*
X44529607Y-83731340D01*
X44499332Y-83559646D01*
X44430279Y-83399562D01*
X44380439Y-83332616D01*
X44338111Y-83275759D01*
X44326168Y-83259717D01*
X44192614Y-83147651D01*
X44105680Y-83103991D01*
X44036818Y-83069407D01*
X44036816Y-83069406D01*
X44036815Y-83069406D01*
X43867171Y-83029200D01*
X43736564Y-83029200D01*
X43623051Y-83042467D01*
X43606835Y-83044363D01*
X43606832Y-83044364D01*
X43443008Y-83103991D01*
X43443004Y-83103993D01*
X43297348Y-83199792D01*
X43297347Y-83199793D01*
X43177706Y-83326603D01*
X43177703Y-83326609D01*
X43090534Y-83477590D01*
X43040531Y-83644610D01*
X43040530Y-83644616D01*
X43034023Y-83756340D01*
X43030393Y-83818660D01*
X31803166Y-83818660D01*
X31883371Y-83760388D01*
X31887016Y-83756340D01*
X31889100Y-83754026D01*
X31948587Y-83717379D01*
X31981248Y-83713000D01*
X33964557Y-83713000D01*
X33980177Y-83714724D01*
X33980204Y-83714439D01*
X33987960Y-83715171D01*
X33987967Y-83715173D01*
X34057114Y-83713000D01*
X34086650Y-83713000D01*
X34093528Y-83712130D01*
X34099341Y-83711672D01*
X34145927Y-83710209D01*
X34165169Y-83704617D01*
X34184212Y-83700674D01*
X34204092Y-83698164D01*
X34247422Y-83681007D01*
X34252946Y-83679117D01*
X34256696Y-83678027D01*
X34297690Y-83666118D01*
X34314929Y-83655922D01*
X34332403Y-83647362D01*
X34351027Y-83639988D01*
X34351027Y-83639987D01*
X34351032Y-83639986D01*
X34388749Y-83612582D01*
X34393605Y-83609392D01*
X34433720Y-83585670D01*
X34447889Y-83571499D01*
X34462679Y-83558868D01*
X34478887Y-83547094D01*
X34508599Y-83511176D01*
X34512512Y-83506876D01*
X38497033Y-79522355D01*
X42394843Y-79522355D01*
X42404852Y-79732459D01*
X42454442Y-79936871D01*
X42499082Y-80034619D01*
X42541820Y-80128204D01*
X42541824Y-80128210D01*
X42663826Y-80299539D01*
X42663831Y-80299544D01*
X42816063Y-80444697D01*
X42993014Y-80558416D01*
X43188288Y-80636593D01*
X43343193Y-80666448D01*
X43394828Y-80676400D01*
X43394829Y-80676400D01*
X43552461Y-80676400D01*
X43552468Y-80676400D01*
X43709389Y-80661416D01*
X43911211Y-80602156D01*
X44098170Y-80505771D01*
X44263510Y-80375747D01*
X44401255Y-80216781D01*
X44506426Y-80034619D01*
X44575222Y-79835846D01*
X44605157Y-79627645D01*
X44602649Y-79574999D01*
X46269518Y-79574999D01*
X46289425Y-79904117D01*
X46289425Y-79904122D01*
X46289426Y-79904123D01*
X46348861Y-80228447D01*
X46348862Y-80228451D01*
X46348863Y-80228455D01*
X46446948Y-80543223D01*
X46446952Y-80543234D01*
X46446953Y-80543237D01*
X46446955Y-80543242D01*
X46582278Y-80843918D01*
X46752857Y-81126091D01*
X46801982Y-81188794D01*
X46956207Y-81385647D01*
X47189352Y-81618792D01*
X47189356Y-81618795D01*
X47448909Y-81822143D01*
X47731082Y-81992722D01*
X48031758Y-82128045D01*
X48031768Y-82128048D01*
X48031776Y-82128051D01*
X48146060Y-82163663D01*
X48346553Y-82226139D01*
X48670877Y-82285574D01*
X48847134Y-82296235D01*
X48917635Y-82300500D01*
X48917637Y-82300500D01*
X49082365Y-82300500D01*
X49144052Y-82296768D01*
X49329123Y-82285574D01*
X49653447Y-82226139D01*
X49968242Y-82128045D01*
X50268918Y-81992722D01*
X50551091Y-81822143D01*
X50810644Y-81618795D01*
X51043795Y-81385644D01*
X51247143Y-81126091D01*
X51417722Y-80843918D01*
X51553045Y-80543242D01*
X51558294Y-80526399D01*
X51566324Y-80500625D01*
X51651139Y-80228447D01*
X51710574Y-79904123D01*
X51730482Y-79575000D01*
X51710574Y-79245877D01*
X51651139Y-78921553D01*
X51618253Y-78816017D01*
X51553051Y-78606776D01*
X51553047Y-78606765D01*
X51553045Y-78606758D01*
X51417722Y-78306082D01*
X51247143Y-78023909D01*
X51043795Y-77764356D01*
X51043792Y-77764352D01*
X50810647Y-77531207D01*
X50651556Y-77406567D01*
X50551091Y-77327857D01*
X50268918Y-77157278D01*
X49968242Y-77021955D01*
X49968237Y-77021953D01*
X49968234Y-77021952D01*
X49968223Y-77021948D01*
X49653455Y-76923863D01*
X49653451Y-76923862D01*
X49653447Y-76923861D01*
X49329123Y-76864426D01*
X49329122Y-76864425D01*
X49329117Y-76864425D01*
X49082365Y-76849500D01*
X49082363Y-76849500D01*
X48917637Y-76849500D01*
X48917635Y-76849500D01*
X48670882Y-76864425D01*
X48615905Y-76874500D01*
X48346553Y-76923861D01*
X48346550Y-76923861D01*
X48346544Y-76923863D01*
X48031776Y-77021948D01*
X48031765Y-77021952D01*
X48031759Y-77021954D01*
X48031758Y-77021955D01*
X47953640Y-77057113D01*
X47745636Y-77150728D01*
X47731082Y-77157278D01*
X47663913Y-77197883D01*
X47448910Y-77327856D01*
X47448902Y-77327862D01*
X47189352Y-77531207D01*
X46956207Y-77764352D01*
X46752862Y-78023902D01*
X46752856Y-78023910D01*
X46582277Y-78306084D01*
X46582276Y-78306086D01*
X46546943Y-78384594D01*
X46449678Y-78600709D01*
X46446952Y-78606765D01*
X46446948Y-78606776D01*
X46348863Y-78921544D01*
X46348861Y-78921550D01*
X46348861Y-78921553D01*
X46309694Y-79135280D01*
X46289425Y-79245882D01*
X46269518Y-79574999D01*
X44602649Y-79574999D01*
X44595148Y-79417541D01*
X44545558Y-79213129D01*
X44458179Y-79021795D01*
X44458175Y-79021789D01*
X44336173Y-78850460D01*
X44336167Y-78850454D01*
X44214286Y-78734241D01*
X44183937Y-78705303D01*
X44006986Y-78591584D01*
X44001396Y-78589346D01*
X43811721Y-78513410D01*
X43811714Y-78513407D01*
X43811712Y-78513407D01*
X43811709Y-78513406D01*
X43811708Y-78513406D01*
X43605172Y-78473600D01*
X43605171Y-78473600D01*
X43447532Y-78473600D01*
X43291983Y-78488453D01*
X43290611Y-78488584D01*
X43290607Y-78488585D01*
X43088791Y-78547843D01*
X42901831Y-78644228D01*
X42736490Y-78774252D01*
X42736489Y-78774253D01*
X42598749Y-78933214D01*
X42598740Y-78933225D01*
X42493574Y-79115379D01*
X42424779Y-79314148D01*
X42424778Y-79314153D01*
X42424778Y-79314154D01*
X42394843Y-79522355D01*
X38497033Y-79522355D01*
X38658786Y-79360602D01*
X38671048Y-79350780D01*
X38670865Y-79350559D01*
X38676867Y-79345592D01*
X38676877Y-79345586D01*
X38724241Y-79295148D01*
X38745120Y-79274270D01*
X38749373Y-79268786D01*
X38753150Y-79264363D01*
X38785062Y-79230382D01*
X38794714Y-79212823D01*
X38805389Y-79196572D01*
X38817674Y-79180736D01*
X38836186Y-79137952D01*
X38838742Y-79132735D01*
X38857829Y-79098018D01*
X38861194Y-79091898D01*
X38861194Y-79091897D01*
X38861197Y-79091892D01*
X38866180Y-79072480D01*
X38872477Y-79054091D01*
X38880438Y-79035695D01*
X38887729Y-78989653D01*
X38888908Y-78983962D01*
X38900500Y-78938819D01*
X38900500Y-78918782D01*
X38902027Y-78899382D01*
X38903794Y-78888226D01*
X38905160Y-78879604D01*
X38900775Y-78833215D01*
X38900500Y-78827377D01*
X38900500Y-77774499D01*
X38920185Y-77707460D01*
X38972989Y-77661705D01*
X39024500Y-77650499D01*
X39622871Y-77650499D01*
X39622872Y-77650499D01*
X39682483Y-77644091D01*
X39817331Y-77593796D01*
X39932546Y-77507546D01*
X40018796Y-77392331D01*
X40069091Y-77257483D01*
X40075500Y-77197873D01*
X40075499Y-74502128D01*
X40069091Y-74442517D01*
X40059766Y-74417516D01*
X40018797Y-74307671D01*
X40018793Y-74307664D01*
X39932547Y-74192455D01*
X39932544Y-74192452D01*
X39817335Y-74106206D01*
X39817328Y-74106202D01*
X39682482Y-74055908D01*
X39682483Y-74055908D01*
X39622883Y-74049501D01*
X39622881Y-74049500D01*
X39622873Y-74049500D01*
X39622864Y-74049500D01*
X36927129Y-74049500D01*
X36927123Y-74049501D01*
X36867516Y-74055908D01*
X36732671Y-74106202D01*
X36732664Y-74106206D01*
X36617455Y-74192452D01*
X36617452Y-74192455D01*
X36531206Y-74307664D01*
X36531202Y-74307671D01*
X36480908Y-74442517D01*
X36477187Y-74477135D01*
X36474501Y-74502123D01*
X36474500Y-74502135D01*
X36474500Y-74549575D01*
X36454815Y-74616614D01*
X36402011Y-74662369D01*
X36332853Y-74672313D01*
X36269297Y-74643288D01*
X36259602Y-74633916D01*
X36193990Y-74563203D01*
X36193987Y-74563200D01*
X36162638Y-74538200D01*
X35988857Y-74399614D01*
X35761643Y-74268432D01*
X35517416Y-74172580D01*
X35517411Y-74172578D01*
X35517402Y-74172576D01*
X35299528Y-74122848D01*
X35261630Y-74114198D01*
X35261629Y-74114197D01*
X35261625Y-74114197D01*
X35261620Y-74114196D01*
X35065500Y-74099500D01*
X35065494Y-74099500D01*
X34934506Y-74099500D01*
X34934500Y-74099500D01*
X34738379Y-74114196D01*
X34738374Y-74114197D01*
X34482597Y-74172576D01*
X34482578Y-74172582D01*
X34238356Y-74268432D01*
X34011143Y-74399614D01*
X33806014Y-74563198D01*
X33627567Y-74755520D01*
X33479768Y-74972302D01*
X33479767Y-74972303D01*
X33365938Y-75208673D01*
X33288606Y-75459376D01*
X33288605Y-75459381D01*
X33288604Y-75459385D01*
X33277721Y-75531587D01*
X33249500Y-75718812D01*
X33249500Y-75981187D01*
X33269794Y-76115823D01*
X33288604Y-76240615D01*
X33288605Y-76240617D01*
X33288606Y-76240623D01*
X33365938Y-76491326D01*
X33479767Y-76727696D01*
X33479768Y-76727697D01*
X33479770Y-76727700D01*
X33479772Y-76727704D01*
X33610522Y-76919479D01*
X33627567Y-76944479D01*
X33806014Y-77136801D01*
X33806018Y-77136804D01*
X33806019Y-77136805D01*
X34011143Y-77300386D01*
X34238357Y-77431568D01*
X34482584Y-77527420D01*
X34738370Y-77585802D01*
X34738376Y-77585802D01*
X34738379Y-77585803D01*
X34934500Y-77600500D01*
X34934506Y-77600500D01*
X35065500Y-77600500D01*
X35261620Y-77585803D01*
X35261622Y-77585802D01*
X35261630Y-77585802D01*
X35517416Y-77527420D01*
X35761643Y-77431568D01*
X35988857Y-77300386D01*
X36193981Y-77136805D01*
X36259602Y-77066081D01*
X36319628Y-77030328D01*
X36389457Y-77032702D01*
X36446918Y-77072451D01*
X36473767Y-77136957D01*
X36474500Y-77150421D01*
X36474500Y-77197868D01*
X36474501Y-77197876D01*
X36480908Y-77257483D01*
X36531202Y-77392328D01*
X36531206Y-77392335D01*
X36617452Y-77507544D01*
X36617455Y-77507547D01*
X36732664Y-77593793D01*
X36732671Y-77593797D01*
X36777618Y-77610561D01*
X36867517Y-77644091D01*
X36927127Y-77650500D01*
X37525500Y-77650499D01*
X37592539Y-77670183D01*
X37638294Y-77722987D01*
X37649500Y-77774499D01*
X37649500Y-78549346D01*
X37629815Y-78616385D01*
X37613181Y-78637027D01*
X36792768Y-79457439D01*
X36731445Y-79490924D01*
X36661753Y-79485940D01*
X36605820Y-79444068D01*
X36584584Y-79398996D01*
X36545558Y-79238129D01*
X36458179Y-79046795D01*
X36458175Y-79046789D01*
X36336173Y-78875460D01*
X36336167Y-78875454D01*
X36204070Y-78749500D01*
X36183937Y-78730303D01*
X36006986Y-78616584D01*
X36006489Y-78616385D01*
X35811721Y-78538410D01*
X35811714Y-78538407D01*
X35811712Y-78538407D01*
X35811709Y-78538406D01*
X35811708Y-78538406D01*
X35605172Y-78498600D01*
X35605171Y-78498600D01*
X35447532Y-78498600D01*
X35292475Y-78513406D01*
X35290611Y-78513584D01*
X35290607Y-78513585D01*
X35088791Y-78572843D01*
X34901831Y-78669228D01*
X34736490Y-78799252D01*
X34736489Y-78799253D01*
X34598749Y-78958214D01*
X34598740Y-78958225D01*
X34493574Y-79140379D01*
X34424779Y-79339148D01*
X34424778Y-79339153D01*
X34424778Y-79339154D01*
X34398438Y-79522355D01*
X34394843Y-79547357D01*
X34395796Y-79567375D01*
X34404852Y-79757459D01*
X34454442Y-79961871D01*
X34498286Y-80057876D01*
X34541820Y-80153204D01*
X34541824Y-80153210D01*
X34663826Y-80324539D01*
X34663831Y-80324544D01*
X34816063Y-80469697D01*
X34993014Y-80583416D01*
X35188288Y-80661593D01*
X35265115Y-80676400D01*
X35294492Y-80682062D01*
X35356595Y-80714078D01*
X35391530Y-80774587D01*
X35388205Y-80844377D01*
X35358706Y-80891502D01*
X33824528Y-82425681D01*
X33763205Y-82459166D01*
X33736847Y-82462000D01*
X31981248Y-82462000D01*
X31914209Y-82442315D01*
X31889100Y-82420974D01*
X31883373Y-82414614D01*
X31883369Y-82414610D01*
X31730234Y-82303351D01*
X31730229Y-82303348D01*
X31557307Y-82226357D01*
X31557302Y-82226355D01*
X31395301Y-82191921D01*
X31333819Y-82158729D01*
X31300043Y-82097565D01*
X31304695Y-82027851D01*
X31346300Y-81971719D01*
X31356916Y-81964525D01*
X31551091Y-81847143D01*
X31810644Y-81643795D01*
X32043795Y-81410644D01*
X32247143Y-81151091D01*
X32417722Y-80868918D01*
X32553045Y-80568242D01*
X32651139Y-80253447D01*
X32710574Y-79929123D01*
X32730482Y-79600000D01*
X32710574Y-79270877D01*
X32651139Y-78946553D01*
X32602242Y-78789636D01*
X32553051Y-78631776D01*
X32553047Y-78631765D01*
X32553045Y-78631758D01*
X32417722Y-78331082D01*
X32247143Y-78048909D01*
X32043795Y-77789356D01*
X32043792Y-77789352D01*
X31810647Y-77556207D01*
X31651556Y-77431567D01*
X31551091Y-77352857D01*
X31268918Y-77182278D01*
X30968242Y-77046955D01*
X30968237Y-77046953D01*
X30968234Y-77046952D01*
X30968223Y-77046948D01*
X30653455Y-76948863D01*
X30653451Y-76948862D01*
X30653447Y-76948861D01*
X30329123Y-76889426D01*
X30329122Y-76889425D01*
X30329117Y-76889425D01*
X30082365Y-76874500D01*
X30082363Y-76874500D01*
X29917637Y-76874500D01*
X29917635Y-76874500D01*
X29670882Y-76889425D01*
X29670876Y-76889426D01*
X29670877Y-76889426D01*
X29346553Y-76948861D01*
X29346550Y-76948861D01*
X29346544Y-76948863D01*
X29031776Y-77046948D01*
X29031765Y-77046952D01*
X29031759Y-77046954D01*
X29031758Y-77046955D01*
X29009188Y-77057113D01*
X28751957Y-77172883D01*
X28731082Y-77182278D01*
X28705285Y-77197873D01*
X28448910Y-77352856D01*
X28448902Y-77352862D01*
X28189352Y-77556207D01*
X27956207Y-77789352D01*
X27752862Y-78048902D01*
X27752856Y-78048910D01*
X27712558Y-78115572D01*
X27585708Y-78325409D01*
X27582277Y-78331084D01*
X27582276Y-78331086D01*
X27540386Y-78424162D01*
X27458199Y-78606776D01*
X27446952Y-78631765D01*
X27446948Y-78631776D01*
X27348863Y-78946544D01*
X27348861Y-78946550D01*
X27348861Y-78946553D01*
X27309196Y-79162995D01*
X27289425Y-79270882D01*
X27269518Y-79600000D01*
X25602649Y-79600000D01*
X25595148Y-79442541D01*
X25545558Y-79238129D01*
X25458179Y-79046795D01*
X25458175Y-79046789D01*
X25336173Y-78875460D01*
X25336167Y-78875454D01*
X25204070Y-78749500D01*
X25183937Y-78730303D01*
X25006986Y-78616584D01*
X25006489Y-78616385D01*
X24811721Y-78538410D01*
X24811714Y-78538407D01*
X24811712Y-78538407D01*
X24811709Y-78538406D01*
X24811708Y-78538406D01*
X24605172Y-78498600D01*
X24605171Y-78498600D01*
X24447532Y-78498600D01*
X24292475Y-78513406D01*
X24290611Y-78513584D01*
X24290607Y-78513585D01*
X24088791Y-78572843D01*
X23901831Y-78669228D01*
X23736490Y-78799252D01*
X23736489Y-78799253D01*
X23598749Y-78958214D01*
X23598740Y-78958225D01*
X23493574Y-79140379D01*
X23424779Y-79339148D01*
X23424778Y-79339153D01*
X23424778Y-79339154D01*
X23398438Y-79522355D01*
X23394843Y-79547357D01*
X20000500Y-79547357D01*
X20000500Y-74997870D01*
X24924500Y-74997870D01*
X24924501Y-74997876D01*
X24930908Y-75057483D01*
X24981202Y-75192328D01*
X24981206Y-75192335D01*
X25067452Y-75307544D01*
X25067455Y-75307547D01*
X25182664Y-75393793D01*
X25182671Y-75393797D01*
X25317517Y-75444091D01*
X25317516Y-75444091D01*
X25324444Y-75444835D01*
X25377127Y-75450500D01*
X28072872Y-75450499D01*
X28132483Y-75444091D01*
X28267331Y-75393796D01*
X28382546Y-75307546D01*
X28468796Y-75192331D01*
X28519091Y-75057483D01*
X28525500Y-74997873D01*
X28525499Y-74950422D01*
X28545182Y-74883387D01*
X28597985Y-74837631D01*
X28667144Y-74827686D01*
X28730700Y-74856709D01*
X28740397Y-74866083D01*
X28806009Y-74936796D01*
X28806012Y-74936799D01*
X28806015Y-74936801D01*
X28806019Y-74936805D01*
X29011143Y-75100386D01*
X29238357Y-75231568D01*
X29482584Y-75327420D01*
X29738370Y-75385802D01*
X29738376Y-75385802D01*
X29738379Y-75385803D01*
X29934500Y-75400500D01*
X29934506Y-75400500D01*
X30065500Y-75400500D01*
X30261620Y-75385803D01*
X30261622Y-75385802D01*
X30261630Y-75385802D01*
X30517416Y-75327420D01*
X30761643Y-75231568D01*
X30988857Y-75100386D01*
X31193981Y-74936805D01*
X31193990Y-74936796D01*
X31233945Y-74893733D01*
X31372433Y-74744479D01*
X31520228Y-74527704D01*
X31634063Y-74291323D01*
X31711396Y-74040615D01*
X31750500Y-73781182D01*
X31750500Y-73518818D01*
X31711396Y-73259385D01*
X31634063Y-73008677D01*
X31615146Y-72969396D01*
X31520232Y-72772303D01*
X31520231Y-72772302D01*
X31520230Y-72772301D01*
X31520228Y-72772296D01*
X31372433Y-72555521D01*
X31358408Y-72540406D01*
X31193985Y-72363198D01*
X31139074Y-72319408D01*
X30988857Y-72199614D01*
X30761643Y-72068432D01*
X30517416Y-71972580D01*
X30517411Y-71972578D01*
X30517402Y-71972576D01*
X30299818Y-71922914D01*
X30261630Y-71914198D01*
X30261629Y-71914197D01*
X30261625Y-71914197D01*
X30261620Y-71914196D01*
X30065500Y-71899500D01*
X30065494Y-71899500D01*
X29934506Y-71899500D01*
X29934500Y-71899500D01*
X29738379Y-71914196D01*
X29738371Y-71914197D01*
X29648790Y-71934643D01*
X29579051Y-71930369D01*
X29522694Y-71889070D01*
X29497611Y-71823858D01*
X29511767Y-71755437D01*
X29533510Y-71726079D01*
X29807374Y-71452216D01*
X29868695Y-71418734D01*
X29895053Y-71415900D01*
X32471252Y-71415900D01*
X32538291Y-71435585D01*
X32563400Y-71456926D01*
X32569126Y-71463285D01*
X32569130Y-71463289D01*
X32722265Y-71574548D01*
X32722270Y-71574551D01*
X32895192Y-71651542D01*
X32895197Y-71651544D01*
X33080354Y-71690900D01*
X33080355Y-71690900D01*
X33269644Y-71690900D01*
X33269646Y-71690900D01*
X33454803Y-71651544D01*
X33627730Y-71574551D01*
X33780871Y-71463288D01*
X33907533Y-71322616D01*
X34002179Y-71158684D01*
X34060674Y-70978656D01*
X34080460Y-70790400D01*
X34060674Y-70602144D01*
X34002179Y-70422116D01*
X33907533Y-70258184D01*
X33780871Y-70117512D01*
X33780870Y-70117511D01*
X33627734Y-70006251D01*
X33627729Y-70006248D01*
X33454807Y-69929257D01*
X33454802Y-69929255D01*
X33309001Y-69898265D01*
X33269646Y-69889900D01*
X33080354Y-69889900D01*
X33047897Y-69896798D01*
X32895197Y-69929255D01*
X32895192Y-69929257D01*
X32722270Y-70006248D01*
X32722265Y-70006251D01*
X32569130Y-70117510D01*
X32569126Y-70117514D01*
X32563400Y-70123874D01*
X32503913Y-70160521D01*
X32471252Y-70164900D01*
X29667338Y-70164900D01*
X29651721Y-70163176D01*
X29651694Y-70163462D01*
X29643932Y-70162727D01*
X29574804Y-70164900D01*
X29545250Y-70164900D01*
X29544529Y-70164990D01*
X29538357Y-70165769D01*
X29532545Y-70166226D01*
X29485973Y-70167690D01*
X29485972Y-70167690D01*
X29466729Y-70173281D01*
X29447679Y-70177225D01*
X29427811Y-70179734D01*
X29384484Y-70196888D01*
X29378958Y-70198779D01*
X29334214Y-70211779D01*
X29334210Y-70211781D01*
X29316966Y-70221979D01*
X29299505Y-70230533D01*
X29280874Y-70237910D01*
X29280862Y-70237917D01*
X29243170Y-70265302D01*
X29238287Y-70268509D01*
X29198180Y-70292229D01*
X29184014Y-70306395D01*
X29169224Y-70319027D01*
X29153014Y-70330804D01*
X29153011Y-70330807D01*
X29123310Y-70366709D01*
X29119377Y-70371031D01*
X27677227Y-71813181D01*
X27615904Y-71846666D01*
X27589546Y-71849500D01*
X25377129Y-71849500D01*
X25377123Y-71849501D01*
X25317516Y-71855908D01*
X25182671Y-71906202D01*
X25182664Y-71906206D01*
X25067455Y-71992452D01*
X25067452Y-71992455D01*
X24981206Y-72107664D01*
X24981202Y-72107671D01*
X24930908Y-72242517D01*
X24924501Y-72302116D01*
X24924500Y-72302135D01*
X24924500Y-74997870D01*
X20000500Y-74997870D01*
X20000500Y-73103482D01*
X20000890Y-73096538D01*
X20002116Y-73085651D01*
X20003470Y-73073648D01*
X20006141Y-73053349D01*
X20013935Y-72994148D01*
X20019826Y-72969409D01*
X20031786Y-72935229D01*
X20032993Y-72932069D01*
X20055472Y-72877799D01*
X20065024Y-72859309D01*
X20086913Y-72824473D01*
X20090193Y-72819758D01*
X20127008Y-72771779D01*
X20132327Y-72765714D01*
X20165714Y-72732327D01*
X20171779Y-72727008D01*
X20219758Y-72690193D01*
X20224473Y-72686913D01*
X20259309Y-72665024D01*
X20277799Y-72655472D01*
X20332069Y-72632993D01*
X20335229Y-72631786D01*
X20369409Y-72619826D01*
X20394148Y-72613935D01*
X20453349Y-72606141D01*
X20473648Y-72603470D01*
X20485651Y-72602116D01*
X20496544Y-72600889D01*
X20503482Y-72600500D01*
X20651253Y-72600500D01*
X20665140Y-72598813D01*
X20820711Y-72579923D01*
X20824248Y-72579599D01*
X20905296Y-72574500D01*
X20926598Y-72567066D01*
X20951551Y-72564037D01*
X21131561Y-72519668D01*
X21134753Y-72518971D01*
X21209645Y-72504684D01*
X21226963Y-72496154D01*
X21245266Y-72491643D01*
X21433943Y-72420086D01*
X21436773Y-72419091D01*
X21503026Y-72397563D01*
X21516371Y-72388826D01*
X21528113Y-72384373D01*
X21724515Y-72281292D01*
X21780867Y-72254776D01*
X21790415Y-72246705D01*
X21795967Y-72243792D01*
X21956614Y-72132906D01*
X21996345Y-72105482D01*
X22038889Y-72078482D01*
X22042348Y-72074748D01*
X22041970Y-72074265D01*
X22044917Y-72071954D01*
X22044924Y-72071950D01*
X22191441Y-71942147D01*
X22246699Y-71893193D01*
X22268513Y-71875146D01*
X22269065Y-71874331D01*
X22268868Y-71874157D01*
X22270204Y-71872648D01*
X22270518Y-71872185D01*
X22271334Y-71871367D01*
X22271352Y-71871352D01*
X22471898Y-71644981D01*
X22471942Y-71644935D01*
X22471950Y-71644924D01*
X22643792Y-71395967D01*
X22643801Y-71395949D01*
X22645266Y-71393527D01*
X22645602Y-71392518D01*
X22784373Y-71128113D01*
X22891643Y-70845266D01*
X22964037Y-70551551D01*
X22995524Y-70292230D01*
X23000500Y-70251254D01*
X23000500Y-69948745D01*
X22982283Y-69798719D01*
X22964037Y-69648449D01*
X22891643Y-69354734D01*
X22784373Y-69071887D01*
X22784372Y-69071886D01*
X22784371Y-69071882D01*
X22645601Y-68807480D01*
X22645465Y-68806801D01*
X22643797Y-68804042D01*
X22643792Y-68804033D01*
X22471950Y-68555076D01*
X22471942Y-68555064D01*
X22471897Y-68555016D01*
X22359647Y-68428312D01*
X22271352Y-68328647D01*
X22270505Y-68327800D01*
X22270349Y-68327515D01*
X22268868Y-68325843D01*
X22269251Y-68325503D01*
X22269210Y-68325430D01*
X22246692Y-68306800D01*
X22044927Y-68128052D01*
X22041970Y-68125735D01*
X22042502Y-68125055D01*
X22040422Y-68122489D01*
X21996330Y-68094507D01*
X21795973Y-67956212D01*
X21795964Y-67956206D01*
X21790409Y-67953291D01*
X21783208Y-67946324D01*
X21724477Y-67918687D01*
X21528115Y-67815627D01*
X21516363Y-67811170D01*
X21506183Y-67803461D01*
X21436758Y-67780903D01*
X21433932Y-67779908D01*
X21245271Y-67708358D01*
X21245264Y-67708356D01*
X21226954Y-67703843D01*
X21213602Y-67696068D01*
X21134727Y-67681022D01*
X21131507Y-67680318D01*
X20951544Y-67635961D01*
X20926564Y-67632928D01*
X20909987Y-67625793D01*
X20824231Y-67620398D01*
X20820663Y-67620070D01*
X20712944Y-67606990D01*
X20651254Y-67599500D01*
X20651252Y-67599500D01*
X20503487Y-67599500D01*
X20496539Y-67599110D01*
X20473650Y-67596530D01*
X20394166Y-67586066D01*
X20369396Y-67580168D01*
X20335281Y-67568231D01*
X20332031Y-67566990D01*
X20277813Y-67544532D01*
X20259295Y-67534966D01*
X20224500Y-67513103D01*
X20219740Y-67509792D01*
X20171794Y-67473002D01*
X20165695Y-67467653D01*
X20132341Y-67434299D01*
X20126996Y-67428204D01*
X20090206Y-67380258D01*
X20086900Y-67375505D01*
X20065030Y-67340699D01*
X20055468Y-67322190D01*
X20033002Y-67267953D01*
X20031774Y-67264735D01*
X20019828Y-67230595D01*
X20013934Y-67205846D01*
X20007150Y-67154315D01*
X20003470Y-67126350D01*
X20000890Y-67103465D01*
X20000500Y-67096516D01*
X20000500Y-64003482D01*
X20000889Y-63996544D01*
X20003261Y-63975500D01*
X20003470Y-63973648D01*
X20006141Y-63953349D01*
X20013935Y-63894148D01*
X20019826Y-63869409D01*
X20031786Y-63835229D01*
X20032993Y-63832069D01*
X20055472Y-63777799D01*
X20065024Y-63759309D01*
X20086913Y-63724473D01*
X20090193Y-63719758D01*
X20127008Y-63671779D01*
X20132327Y-63665714D01*
X20165714Y-63632327D01*
X20171779Y-63627008D01*
X20219758Y-63590193D01*
X20224473Y-63586913D01*
X20259309Y-63565024D01*
X20277799Y-63555472D01*
X20332069Y-63532993D01*
X20335229Y-63531786D01*
X20369409Y-63519826D01*
X20394148Y-63513935D01*
X20453349Y-63506141D01*
X20473648Y-63503470D01*
X20485651Y-63502116D01*
X20496544Y-63500889D01*
X20503482Y-63500500D01*
X32567050Y-63500500D01*
X32622285Y-63516719D01*
X32648518Y-63502931D01*
X32672950Y-63500500D01*
X35107050Y-63500500D01*
X35162285Y-63516719D01*
X35188518Y-63502931D01*
X35212950Y-63500500D01*
X37647050Y-63500500D01*
X37702285Y-63516719D01*
X37728518Y-63502931D01*
X37752950Y-63500500D01*
X40187050Y-63500500D01*
X40242285Y-63516719D01*
X40268518Y-63502931D01*
X40292950Y-63500500D01*
X42727050Y-63500500D01*
X42782285Y-63516719D01*
X42808518Y-63502931D01*
X42832950Y-63500500D01*
X43195547Y-63500500D01*
X43262586Y-63520185D01*
X43308341Y-63572989D01*
X43318285Y-63642147D01*
X43289260Y-63705703D01*
X43283227Y-63712182D01*
X43235645Y-63759763D01*
X43174322Y-63793247D01*
X43115872Y-63791856D01*
X43015413Y-63764938D01*
X43015403Y-63764936D01*
X42822142Y-63748028D01*
X42780344Y-63731677D01*
X42761985Y-63743477D01*
X42737858Y-63748028D01*
X42544596Y-63764936D01*
X42544586Y-63764938D01*
X42316344Y-63826094D01*
X42316335Y-63826098D01*
X42102171Y-63925964D01*
X42102169Y-63925965D01*
X41908597Y-64061505D01*
X41741505Y-64228597D01*
X41611575Y-64414158D01*
X41556998Y-64457783D01*
X41487500Y-64464977D01*
X41425145Y-64433454D01*
X41408425Y-64414158D01*
X41278494Y-64228597D01*
X41111402Y-64061506D01*
X41111395Y-64061501D01*
X41106119Y-64057807D01*
X41023563Y-64000000D01*
X40917834Y-63925967D01*
X40917830Y-63925965D01*
X40888285Y-63912188D01*
X40703663Y-63826097D01*
X40703659Y-63826096D01*
X40703655Y-63826094D01*
X40475413Y-63764938D01*
X40475403Y-63764936D01*
X40282142Y-63748028D01*
X40240344Y-63731677D01*
X40221985Y-63743477D01*
X40197858Y-63748028D01*
X40004596Y-63764936D01*
X40004586Y-63764938D01*
X39776344Y-63826094D01*
X39776335Y-63826098D01*
X39562171Y-63925964D01*
X39562169Y-63925965D01*
X39368597Y-64061505D01*
X39201505Y-64228597D01*
X39071575Y-64414158D01*
X39016998Y-64457783D01*
X38947500Y-64464977D01*
X38885145Y-64433454D01*
X38868425Y-64414158D01*
X38738494Y-64228597D01*
X38571402Y-64061506D01*
X38571395Y-64061501D01*
X38566119Y-64057807D01*
X38483563Y-64000000D01*
X38377834Y-63925967D01*
X38377830Y-63925965D01*
X38348285Y-63912188D01*
X38163663Y-63826097D01*
X38163659Y-63826096D01*
X38163655Y-63826094D01*
X37935413Y-63764938D01*
X37935403Y-63764936D01*
X37742142Y-63748028D01*
X37700344Y-63731677D01*
X37681985Y-63743477D01*
X37657858Y-63748028D01*
X37464596Y-63764936D01*
X37464586Y-63764938D01*
X37236344Y-63826094D01*
X37236335Y-63826098D01*
X37022171Y-63925964D01*
X37022169Y-63925965D01*
X36828597Y-64061505D01*
X36661505Y-64228597D01*
X36531575Y-64414158D01*
X36476998Y-64457783D01*
X36407500Y-64464977D01*
X36345145Y-64433454D01*
X36328425Y-64414158D01*
X36198494Y-64228597D01*
X36031402Y-64061506D01*
X36031395Y-64061501D01*
X36026119Y-64057807D01*
X35943563Y-64000000D01*
X35837834Y-63925967D01*
X35837830Y-63925965D01*
X35808285Y-63912188D01*
X35623663Y-63826097D01*
X35623659Y-63826096D01*
X35623655Y-63826094D01*
X35395413Y-63764938D01*
X35395403Y-63764936D01*
X35202142Y-63748028D01*
X35160344Y-63731677D01*
X35141985Y-63743477D01*
X35117858Y-63748028D01*
X34924596Y-63764936D01*
X34924586Y-63764938D01*
X34696344Y-63826094D01*
X34696335Y-63826098D01*
X34482171Y-63925964D01*
X34482169Y-63925965D01*
X34288597Y-64061505D01*
X34121505Y-64228597D01*
X33991575Y-64414158D01*
X33936998Y-64457783D01*
X33867500Y-64464977D01*
X33805145Y-64433454D01*
X33788425Y-64414158D01*
X33658494Y-64228597D01*
X33491402Y-64061506D01*
X33491395Y-64061501D01*
X33486119Y-64057807D01*
X33403563Y-64000000D01*
X33297834Y-63925967D01*
X33297830Y-63925965D01*
X33268285Y-63912188D01*
X33083663Y-63826097D01*
X33083659Y-63826096D01*
X33083655Y-63826094D01*
X32855413Y-63764938D01*
X32855403Y-63764936D01*
X32662142Y-63748028D01*
X32620344Y-63731677D01*
X32601985Y-63743477D01*
X32577858Y-63748028D01*
X32384596Y-63764936D01*
X32384586Y-63764938D01*
X32156344Y-63826094D01*
X32156335Y-63826098D01*
X31942171Y-63925964D01*
X31942169Y-63925965D01*
X31748597Y-64061505D01*
X31581505Y-64228597D01*
X31445965Y-64422169D01*
X31445964Y-64422171D01*
X31346098Y-64636335D01*
X31346094Y-64636344D01*
X31284938Y-64864586D01*
X31284936Y-64864596D01*
X31264341Y-65099999D01*
X31264341Y-65100000D01*
X31284936Y-65335403D01*
X31284938Y-65335413D01*
X31346094Y-65563655D01*
X31346096Y-65563659D01*
X31346097Y-65563663D01*
X31422808Y-65728169D01*
X31445965Y-65777830D01*
X31445967Y-65777834D01*
X31521261Y-65885364D01*
X31581505Y-65971401D01*
X31748599Y-66138495D01*
X31825135Y-66192086D01*
X31942165Y-66274032D01*
X31942167Y-66274033D01*
X31942170Y-66274035D01*
X32156337Y-66373903D01*
X32156343Y-66373904D01*
X32156344Y-66373905D01*
X32211285Y-66388626D01*
X32384592Y-66435063D01*
X32555319Y-66450000D01*
X32619999Y-66455659D01*
X32620000Y-66455659D01*
X32620001Y-66455659D01*
X32684681Y-66450000D01*
X32855408Y-66435063D01*
X33083663Y-66373903D01*
X33297830Y-66274035D01*
X33491401Y-66138495D01*
X33658495Y-65971401D01*
X33788424Y-65785842D01*
X33843002Y-65742217D01*
X33912500Y-65735023D01*
X33974855Y-65766546D01*
X33991575Y-65785842D01*
X34121501Y-65971396D01*
X34121506Y-65971402D01*
X34288597Y-66138493D01*
X34288603Y-66138498D01*
X34326322Y-66164909D01*
X34480564Y-66272911D01*
X34524189Y-66327487D01*
X34533380Y-66370587D01*
X34534500Y-66406209D01*
X34534500Y-66435739D01*
X34534501Y-66435756D01*
X34535368Y-66442627D01*
X34535826Y-66448446D01*
X34537290Y-66495020D01*
X34537291Y-66495023D01*
X34542880Y-66514263D01*
X34546824Y-66533307D01*
X34547977Y-66542428D01*
X34549336Y-66553187D01*
X34566490Y-66596515D01*
X34568382Y-66602043D01*
X34581381Y-66646784D01*
X34591580Y-66664030D01*
X34600138Y-66681499D01*
X34607514Y-66700128D01*
X34634898Y-66737819D01*
X34638106Y-66742703D01*
X34661827Y-66782812D01*
X34661833Y-66782820D01*
X34675990Y-66796976D01*
X34688628Y-66811772D01*
X34700405Y-66827982D01*
X34700406Y-66827983D01*
X34736309Y-66857684D01*
X34740620Y-66861606D01*
X37128798Y-69249785D01*
X37921801Y-70042788D01*
X37931626Y-70055051D01*
X37931847Y-70054869D01*
X37936818Y-70060878D01*
X37962821Y-70085295D01*
X37987239Y-70108226D01*
X38008133Y-70129120D01*
X38013615Y-70133373D01*
X38018047Y-70137157D01*
X38052022Y-70169062D01*
X38069580Y-70178714D01*
X38085837Y-70189393D01*
X38101668Y-70201673D01*
X38121341Y-70210186D01*
X38144437Y-70220182D01*
X38149681Y-70222750D01*
X38190512Y-70245197D01*
X38203127Y-70248435D01*
X38209909Y-70250177D01*
X38228323Y-70256481D01*
X38246708Y-70264438D01*
X38292761Y-70271732D01*
X38298430Y-70272906D01*
X38343585Y-70284500D01*
X38363620Y-70284500D01*
X38383017Y-70286026D01*
X38402800Y-70289160D01*
X38449187Y-70284775D01*
X38455026Y-70284500D01*
X60973548Y-70284500D01*
X61040587Y-70304185D01*
X61061229Y-70320819D01*
X62013181Y-71272771D01*
X62046666Y-71334094D01*
X62049500Y-71360452D01*
X62049500Y-75017255D01*
X62047775Y-75032872D01*
X62048061Y-75032899D01*
X62047326Y-75040665D01*
X62049500Y-75109814D01*
X62049500Y-75139343D01*
X62049501Y-75139360D01*
X62050368Y-75146231D01*
X62050826Y-75152050D01*
X62052290Y-75198624D01*
X62052291Y-75198627D01*
X62057880Y-75217867D01*
X62061824Y-75236911D01*
X62064336Y-75256792D01*
X62074533Y-75282547D01*
X62081490Y-75300119D01*
X62083382Y-75305647D01*
X62096381Y-75350390D01*
X62099982Y-75356478D01*
X62117166Y-75424202D01*
X62095007Y-75490465D01*
X62040541Y-75534228D01*
X61993251Y-75543600D01*
X61008552Y-75543600D01*
X60941513Y-75523915D01*
X60920871Y-75507281D01*
X56577903Y-71164312D01*
X56568080Y-71152050D01*
X56567859Y-71152234D01*
X56562886Y-71146223D01*
X56544259Y-71128731D01*
X56512464Y-71098873D01*
X56502019Y-71088428D01*
X56491575Y-71077983D01*
X56486086Y-71073725D01*
X56481661Y-71069947D01*
X56447682Y-71038038D01*
X56447680Y-71038036D01*
X56447677Y-71038035D01*
X56430129Y-71028388D01*
X56413863Y-71017704D01*
X56398036Y-71005427D01*
X56398035Y-71005426D01*
X56398033Y-71005425D01*
X56355268Y-70986918D01*
X56350022Y-70984348D01*
X56309193Y-70961903D01*
X56309192Y-70961902D01*
X56289793Y-70956922D01*
X56271381Y-70950618D01*
X56252998Y-70942662D01*
X56252992Y-70942660D01*
X56206974Y-70935372D01*
X56201252Y-70934187D01*
X56156121Y-70922600D01*
X56156119Y-70922600D01*
X56136084Y-70922600D01*
X56116686Y-70921073D01*
X56109262Y-70919897D01*
X56096905Y-70917940D01*
X56096904Y-70917940D01*
X56050516Y-70922325D01*
X56044678Y-70922600D01*
X47884638Y-70922600D01*
X47869021Y-70920876D01*
X47868994Y-70921162D01*
X47861232Y-70920427D01*
X47792104Y-70922600D01*
X47762550Y-70922600D01*
X47761829Y-70922690D01*
X47755657Y-70923469D01*
X47749845Y-70923926D01*
X47703273Y-70925390D01*
X47703272Y-70925390D01*
X47684029Y-70930981D01*
X47664979Y-70934925D01*
X47645111Y-70937434D01*
X47645109Y-70937435D01*
X47601784Y-70954588D01*
X47596257Y-70956480D01*
X47551510Y-70969481D01*
X47551509Y-70969482D01*
X47534267Y-70979679D01*
X47516799Y-70988237D01*
X47498169Y-70995613D01*
X47498167Y-70995614D01*
X47460476Y-71022998D01*
X47455594Y-71026205D01*
X47415479Y-71049930D01*
X47401308Y-71064100D01*
X47386523Y-71076728D01*
X47370312Y-71088507D01*
X47340609Y-71124410D01*
X47336677Y-71128731D01*
X46677226Y-71788181D01*
X46615903Y-71821666D01*
X46589545Y-71824500D01*
X44377129Y-71824500D01*
X44377123Y-71824501D01*
X44317516Y-71830908D01*
X44182671Y-71881202D01*
X44182664Y-71881206D01*
X44067455Y-71967452D01*
X44067452Y-71967455D01*
X43981206Y-72082664D01*
X43981202Y-72082671D01*
X43930908Y-72217517D01*
X43926903Y-72254776D01*
X43924501Y-72277123D01*
X43924500Y-72277135D01*
X43924500Y-74972870D01*
X43924501Y-74972876D01*
X43930908Y-75032483D01*
X43981202Y-75167328D01*
X43981206Y-75167335D01*
X44067452Y-75282544D01*
X44067455Y-75282547D01*
X44182664Y-75368793D01*
X44182671Y-75368797D01*
X44317517Y-75419091D01*
X44317516Y-75419091D01*
X44324444Y-75419835D01*
X44377127Y-75425500D01*
X47072872Y-75425499D01*
X47132483Y-75419091D01*
X47267331Y-75368796D01*
X47382546Y-75282546D01*
X47468796Y-75167331D01*
X47519091Y-75032483D01*
X47525500Y-74972873D01*
X47525499Y-74925422D01*
X47545182Y-74858387D01*
X47597985Y-74812631D01*
X47667144Y-74802686D01*
X47730700Y-74831709D01*
X47740397Y-74841083D01*
X47806009Y-74911796D01*
X47806012Y-74911799D01*
X47806015Y-74911801D01*
X47806019Y-74911805D01*
X48011143Y-75075386D01*
X48238357Y-75206568D01*
X48482584Y-75302420D01*
X48738370Y-75360802D01*
X48738376Y-75360802D01*
X48738379Y-75360803D01*
X48934500Y-75375500D01*
X48934506Y-75375500D01*
X49065500Y-75375500D01*
X49261620Y-75360803D01*
X49261622Y-75360802D01*
X49261630Y-75360802D01*
X49517416Y-75302420D01*
X49761643Y-75206568D01*
X49988857Y-75075386D01*
X50193981Y-74911805D01*
X50193990Y-74911796D01*
X50236405Y-74866083D01*
X50372433Y-74719479D01*
X50520228Y-74502704D01*
X50520506Y-74502128D01*
X50544110Y-74453111D01*
X50634063Y-74266323D01*
X50711396Y-74015615D01*
X50750500Y-73756182D01*
X50750500Y-73493818D01*
X50711396Y-73234385D01*
X50634063Y-72983677D01*
X50609210Y-72932069D01*
X50520232Y-72747303D01*
X50520231Y-72747302D01*
X50520230Y-72747301D01*
X50520228Y-72747296D01*
X50372433Y-72530521D01*
X50323798Y-72478105D01*
X50234572Y-72381941D01*
X50203404Y-72319408D01*
X50210991Y-72249952D01*
X50254925Y-72195623D01*
X50321257Y-72173672D01*
X50325471Y-72173600D01*
X55766648Y-72173600D01*
X55833687Y-72193285D01*
X55854329Y-72209919D01*
X57457228Y-73812819D01*
X57490713Y-73874142D01*
X57485729Y-73943834D01*
X57443857Y-73999767D01*
X57378393Y-74024184D01*
X57369547Y-74024500D01*
X55927129Y-74024500D01*
X55927123Y-74024501D01*
X55867516Y-74030908D01*
X55732671Y-74081202D01*
X55732664Y-74081206D01*
X55617455Y-74167452D01*
X55617452Y-74167455D01*
X55531206Y-74282664D01*
X55531202Y-74282671D01*
X55480908Y-74417517D01*
X55474501Y-74477116D01*
X55474501Y-74477123D01*
X55474500Y-74477135D01*
X55474500Y-74524575D01*
X55454815Y-74591614D01*
X55402011Y-74637369D01*
X55332853Y-74647313D01*
X55269297Y-74618288D01*
X55259602Y-74608916D01*
X55193990Y-74538203D01*
X55193987Y-74538200D01*
X55193981Y-74538195D01*
X54988857Y-74374614D01*
X54761643Y-74243432D01*
X54517416Y-74147580D01*
X54517411Y-74147578D01*
X54517402Y-74147576D01*
X54299818Y-74097914D01*
X54261630Y-74089198D01*
X54261629Y-74089197D01*
X54261625Y-74089197D01*
X54261620Y-74089196D01*
X54065500Y-74074500D01*
X54065494Y-74074500D01*
X53934506Y-74074500D01*
X53934500Y-74074500D01*
X53738379Y-74089196D01*
X53738374Y-74089197D01*
X53482597Y-74147576D01*
X53482578Y-74147582D01*
X53238356Y-74243432D01*
X53011143Y-74374614D01*
X52806014Y-74538198D01*
X52627567Y-74730520D01*
X52479768Y-74947302D01*
X52479767Y-74947303D01*
X52365938Y-75183673D01*
X52288606Y-75434376D01*
X52288605Y-75434381D01*
X52288604Y-75434385D01*
X52277586Y-75507484D01*
X52249500Y-75693812D01*
X52249500Y-75956187D01*
X52269794Y-76090823D01*
X52288604Y-76215615D01*
X52288605Y-76215617D01*
X52288606Y-76215623D01*
X52365938Y-76466326D01*
X52479767Y-76702696D01*
X52479768Y-76702697D01*
X52479770Y-76702700D01*
X52479772Y-76702704D01*
X52607077Y-76889426D01*
X52627567Y-76919479D01*
X52806014Y-77111801D01*
X52806018Y-77111804D01*
X52806019Y-77111805D01*
X53011143Y-77275386D01*
X53238357Y-77406568D01*
X53482584Y-77502420D01*
X53738370Y-77560802D01*
X53738376Y-77560802D01*
X53738379Y-77560803D01*
X53934500Y-77575500D01*
X53934506Y-77575500D01*
X54065500Y-77575500D01*
X54261620Y-77560803D01*
X54261622Y-77560802D01*
X54261630Y-77560802D01*
X54517416Y-77502420D01*
X54761643Y-77406568D01*
X54988857Y-77275386D01*
X55193981Y-77111805D01*
X55259602Y-77041081D01*
X55319628Y-77005328D01*
X55389457Y-77007702D01*
X55446918Y-77047451D01*
X55473767Y-77111957D01*
X55474500Y-77125421D01*
X55474500Y-77172868D01*
X55474501Y-77172876D01*
X55480908Y-77232483D01*
X55531202Y-77367328D01*
X55531206Y-77367335D01*
X55617452Y-77482544D01*
X55617455Y-77482547D01*
X55732664Y-77568793D01*
X55732671Y-77568797D01*
X55750643Y-77575500D01*
X55867517Y-77619091D01*
X55927127Y-77625500D01*
X56525500Y-77625499D01*
X56592539Y-77645183D01*
X56638294Y-77697987D01*
X56649500Y-77749499D01*
X56649500Y-78589346D01*
X56629815Y-78656385D01*
X56613181Y-78677027D01*
X55805197Y-79485010D01*
X55743874Y-79518495D01*
X55674182Y-79513511D01*
X55618249Y-79471639D01*
X55598072Y-79422909D01*
X55596540Y-79423281D01*
X55595148Y-79417543D01*
X55595148Y-79417541D01*
X55545558Y-79213129D01*
X55458179Y-79021795D01*
X55458175Y-79021789D01*
X55336173Y-78850460D01*
X55336167Y-78850454D01*
X55214286Y-78734241D01*
X55183937Y-78705303D01*
X55006986Y-78591584D01*
X55001396Y-78589346D01*
X54811721Y-78513410D01*
X54811714Y-78513407D01*
X54811712Y-78513407D01*
X54811709Y-78513406D01*
X54811708Y-78513406D01*
X54605172Y-78473600D01*
X54605171Y-78473600D01*
X54447532Y-78473600D01*
X54291983Y-78488453D01*
X54290611Y-78488584D01*
X54290607Y-78488585D01*
X54088791Y-78547843D01*
X53901831Y-78644228D01*
X53736490Y-78774252D01*
X53736489Y-78774253D01*
X53598749Y-78933214D01*
X53598740Y-78933225D01*
X53493574Y-79115379D01*
X53424779Y-79314148D01*
X53424778Y-79314153D01*
X53424778Y-79314154D01*
X53394843Y-79522355D01*
X53404852Y-79732459D01*
X53454442Y-79936871D01*
X53499082Y-80034619D01*
X53541820Y-80128204D01*
X53541824Y-80128210D01*
X53663826Y-80299539D01*
X53663831Y-80299544D01*
X53816063Y-80444697D01*
X53993014Y-80558416D01*
X54188288Y-80636593D01*
X54348989Y-80667565D01*
X54411092Y-80699581D01*
X54446027Y-80760090D01*
X54442702Y-80829880D01*
X54413203Y-80877005D01*
X52251128Y-83039081D01*
X52189805Y-83072566D01*
X52163447Y-83075400D01*
X49703748Y-83075400D01*
X49636709Y-83055715D01*
X49611600Y-83034374D01*
X49605873Y-83028014D01*
X49605869Y-83028010D01*
X49452734Y-82916751D01*
X49452729Y-82916748D01*
X49279807Y-82839757D01*
X49279802Y-82839755D01*
X49134000Y-82808765D01*
X49094646Y-82800400D01*
X48905354Y-82800400D01*
X48872897Y-82807298D01*
X48720197Y-82839755D01*
X48720192Y-82839757D01*
X48547270Y-82916748D01*
X48547265Y-82916751D01*
X48394129Y-83028011D01*
X48267468Y-83168683D01*
X48267466Y-83168684D01*
X48172821Y-83332615D01*
X48172818Y-83332622D01*
X48114327Y-83512640D01*
X48114326Y-83512644D01*
X48094540Y-83700900D01*
X48114326Y-83889156D01*
X48114327Y-83889159D01*
X48172818Y-84069177D01*
X48172821Y-84069184D01*
X48267467Y-84233116D01*
X48372895Y-84350205D01*
X48394129Y-84373788D01*
X48547265Y-84485048D01*
X48547270Y-84485051D01*
X48720192Y-84562042D01*
X48720197Y-84562044D01*
X48905354Y-84601400D01*
X48905355Y-84601400D01*
X49094644Y-84601400D01*
X49094646Y-84601400D01*
X49279803Y-84562044D01*
X49452730Y-84485051D01*
X49605871Y-84373788D01*
X49608788Y-84370547D01*
X49611600Y-84367426D01*
X49671087Y-84330779D01*
X49703748Y-84326400D01*
X52391157Y-84326400D01*
X52406777Y-84328124D01*
X52406804Y-84327839D01*
X52414560Y-84328571D01*
X52414567Y-84328573D01*
X52483714Y-84326400D01*
X52513250Y-84326400D01*
X52520128Y-84325530D01*
X52525941Y-84325072D01*
X52572527Y-84323609D01*
X52591769Y-84318017D01*
X52610812Y-84314074D01*
X52630692Y-84311564D01*
X52674022Y-84294407D01*
X52679546Y-84292517D01*
X52687235Y-84290283D01*
X52724290Y-84279518D01*
X52741529Y-84269322D01*
X52759003Y-84260762D01*
X52777627Y-84253388D01*
X52777627Y-84253387D01*
X52777632Y-84253386D01*
X52815349Y-84225982D01*
X52820205Y-84222792D01*
X52860320Y-84199070D01*
X52874489Y-84184899D01*
X52889279Y-84172268D01*
X52905487Y-84160494D01*
X52935199Y-84124576D01*
X52939112Y-84120276D01*
X53240728Y-83818660D01*
X62025393Y-83818660D01*
X62055668Y-83990354D01*
X62124721Y-84150438D01*
X62124722Y-84150440D01*
X62124724Y-84150443D01*
X62206854Y-84260762D01*
X62228832Y-84290283D01*
X62362386Y-84402349D01*
X62518185Y-84480594D01*
X62687829Y-84520800D01*
X62687831Y-84520800D01*
X62818429Y-84520800D01*
X62818436Y-84520800D01*
X62948164Y-84505637D01*
X63111993Y-84446008D01*
X63257654Y-84350205D01*
X63377296Y-84223393D01*
X63464467Y-84072407D01*
X63514469Y-83905388D01*
X63524607Y-83731340D01*
X63494332Y-83559646D01*
X63425279Y-83399562D01*
X63375439Y-83332616D01*
X63333111Y-83275759D01*
X63321168Y-83259717D01*
X63187614Y-83147651D01*
X63100680Y-83103991D01*
X63031818Y-83069407D01*
X63031816Y-83069406D01*
X63031815Y-83069406D01*
X62862171Y-83029200D01*
X62731564Y-83029200D01*
X62618051Y-83042467D01*
X62601835Y-83044363D01*
X62601832Y-83044364D01*
X62438008Y-83103991D01*
X62438004Y-83103993D01*
X62292348Y-83199792D01*
X62292347Y-83199793D01*
X62172706Y-83326603D01*
X62172703Y-83326609D01*
X62085534Y-83477590D01*
X62035531Y-83644610D01*
X62035530Y-83644616D01*
X62029023Y-83756340D01*
X62025393Y-83818660D01*
X53240728Y-83818660D01*
X57537033Y-79522355D01*
X61389843Y-79522355D01*
X61399852Y-79732459D01*
X61449442Y-79936871D01*
X61494082Y-80034619D01*
X61536820Y-80128204D01*
X61536824Y-80128210D01*
X61658826Y-80299539D01*
X61658831Y-80299544D01*
X61811063Y-80444697D01*
X61988014Y-80558416D01*
X62183288Y-80636593D01*
X62338193Y-80666448D01*
X62389828Y-80676400D01*
X62389829Y-80676400D01*
X62547461Y-80676400D01*
X62547468Y-80676400D01*
X62704389Y-80661416D01*
X62906211Y-80602156D01*
X63093170Y-80505771D01*
X63258510Y-80375747D01*
X63396255Y-80216781D01*
X63501426Y-80034619D01*
X63570222Y-79835846D01*
X63600157Y-79627645D01*
X63590148Y-79417541D01*
X63540558Y-79213129D01*
X63453179Y-79021795D01*
X63453175Y-79021789D01*
X63331173Y-78850460D01*
X63331167Y-78850454D01*
X63209286Y-78734241D01*
X63178937Y-78705303D01*
X63001986Y-78591584D01*
X62996396Y-78589346D01*
X62806721Y-78513410D01*
X62806714Y-78513407D01*
X62806712Y-78513407D01*
X62806709Y-78513406D01*
X62806708Y-78513406D01*
X62600172Y-78473600D01*
X62600171Y-78473600D01*
X62442532Y-78473600D01*
X62286983Y-78488453D01*
X62285611Y-78488584D01*
X62285607Y-78488585D01*
X62083791Y-78547843D01*
X61896831Y-78644228D01*
X61731490Y-78774252D01*
X61731489Y-78774253D01*
X61593749Y-78933214D01*
X61593740Y-78933225D01*
X61488574Y-79115379D01*
X61419779Y-79314148D01*
X61419778Y-79314153D01*
X61419778Y-79314154D01*
X61389843Y-79522355D01*
X57537033Y-79522355D01*
X57658786Y-79400602D01*
X57671048Y-79390780D01*
X57670865Y-79390559D01*
X57676867Y-79385592D01*
X57676877Y-79385586D01*
X57724241Y-79335148D01*
X57745120Y-79314270D01*
X57749373Y-79308786D01*
X57753150Y-79304363D01*
X57785062Y-79270382D01*
X57794714Y-79252823D01*
X57805389Y-79236572D01*
X57817674Y-79220736D01*
X57836186Y-79177952D01*
X57838742Y-79172735D01*
X57856531Y-79140379D01*
X57861194Y-79131898D01*
X57861194Y-79131897D01*
X57861197Y-79131892D01*
X57866180Y-79112480D01*
X57872477Y-79094091D01*
X57880438Y-79075695D01*
X57887729Y-79029653D01*
X57888908Y-79023962D01*
X57900500Y-78978819D01*
X57900500Y-78958783D01*
X57902027Y-78939382D01*
X57902116Y-78938821D01*
X57905160Y-78919604D01*
X57900775Y-78873215D01*
X57900500Y-78867377D01*
X57900500Y-77749499D01*
X57920185Y-77682460D01*
X57972989Y-77636705D01*
X58024500Y-77625499D01*
X58622871Y-77625499D01*
X58622872Y-77625499D01*
X58682483Y-77619091D01*
X58817331Y-77568796D01*
X58932546Y-77482546D01*
X59018796Y-77367331D01*
X59069091Y-77232483D01*
X59075500Y-77172873D01*
X59075499Y-75730451D01*
X59095184Y-75663413D01*
X59147987Y-75617658D01*
X59217146Y-75607714D01*
X59280702Y-75636739D01*
X59287180Y-75642771D01*
X60197297Y-76552888D01*
X60207122Y-76565151D01*
X60207343Y-76564969D01*
X60212314Y-76570978D01*
X60233143Y-76590537D01*
X60262735Y-76618326D01*
X60283629Y-76639220D01*
X60289111Y-76643473D01*
X60293543Y-76647257D01*
X60327518Y-76679162D01*
X60345076Y-76688814D01*
X60361333Y-76699493D01*
X60377164Y-76711773D01*
X60396837Y-76720286D01*
X60419933Y-76730282D01*
X60425177Y-76732850D01*
X60466008Y-76755297D01*
X60478623Y-76758535D01*
X60485405Y-76760277D01*
X60503819Y-76766581D01*
X60522204Y-76774538D01*
X60568257Y-76781832D01*
X60573926Y-76783006D01*
X60619081Y-76794600D01*
X60639116Y-76794600D01*
X60658513Y-76796126D01*
X60678296Y-76799260D01*
X60724683Y-76794875D01*
X60730522Y-76794600D01*
X66954270Y-76794600D01*
X67021309Y-76814285D01*
X67067064Y-76867089D01*
X67077008Y-76936247D01*
X67047983Y-76999803D01*
X67005164Y-77031673D01*
X66772564Y-77136358D01*
X66740636Y-77150728D01*
X66726082Y-77157278D01*
X66658913Y-77197883D01*
X66443910Y-77327856D01*
X66443902Y-77327862D01*
X66184352Y-77531207D01*
X65951207Y-77764352D01*
X65747862Y-78023902D01*
X65747856Y-78023910D01*
X65577277Y-78306084D01*
X65577276Y-78306086D01*
X65541943Y-78384594D01*
X65444678Y-78600709D01*
X65441952Y-78606765D01*
X65441948Y-78606776D01*
X65343863Y-78921544D01*
X65343861Y-78921550D01*
X65343861Y-78921553D01*
X65304694Y-79135280D01*
X65284425Y-79245882D01*
X65264518Y-79574999D01*
X65284425Y-79904117D01*
X65284425Y-79904122D01*
X65284426Y-79904123D01*
X65343861Y-80228447D01*
X65343862Y-80228451D01*
X65343863Y-80228455D01*
X65441948Y-80543223D01*
X65441952Y-80543234D01*
X65441953Y-80543237D01*
X65441955Y-80543242D01*
X65577278Y-80843918D01*
X65747857Y-81126091D01*
X65796982Y-81188794D01*
X65951207Y-81385647D01*
X66184352Y-81618792D01*
X66184356Y-81618795D01*
X66443909Y-81822143D01*
X66726082Y-81992722D01*
X67026758Y-82128045D01*
X67026768Y-82128048D01*
X67026776Y-82128051D01*
X67141060Y-82163663D01*
X67341553Y-82226139D01*
X67665877Y-82285574D01*
X67842134Y-82296235D01*
X67912635Y-82300500D01*
X67912637Y-82300500D01*
X68077365Y-82300500D01*
X68139052Y-82296768D01*
X68324123Y-82285574D01*
X68442648Y-82263853D01*
X68512134Y-82271131D01*
X68566658Y-82314822D01*
X68588905Y-82381055D01*
X68571812Y-82448802D01*
X68557147Y-82468794D01*
X68491066Y-82542184D01*
X68396421Y-82706115D01*
X68396418Y-82706122D01*
X68341860Y-82874035D01*
X68337926Y-82886144D01*
X68318140Y-83074400D01*
X68337926Y-83262656D01*
X68337927Y-83262659D01*
X68396418Y-83442677D01*
X68396421Y-83442684D01*
X68491067Y-83606616D01*
X68590799Y-83717379D01*
X68617729Y-83747288D01*
X68770865Y-83858548D01*
X68770870Y-83858551D01*
X68943792Y-83935542D01*
X68943797Y-83935544D01*
X69128954Y-83974900D01*
X69128955Y-83974900D01*
X69318244Y-83974900D01*
X69318246Y-83974900D01*
X69503403Y-83935544D01*
X69676330Y-83858551D01*
X69829471Y-83747288D01*
X69956133Y-83606616D01*
X70050779Y-83442684D01*
X70109274Y-83262656D01*
X70126921Y-83094744D01*
X70153504Y-83030134D01*
X70162551Y-83020038D01*
X71431653Y-81750936D01*
X85170631Y-81750936D01*
X85201442Y-81952063D01*
X85201445Y-81952075D01*
X85272111Y-82142881D01*
X85272113Y-82142884D01*
X85272114Y-82142887D01*
X85298164Y-82184680D01*
X85379745Y-82315567D01*
X85379749Y-82315572D01*
X85461441Y-82401512D01*
X85519941Y-82463053D01*
X85633632Y-82542184D01*
X85686949Y-82579294D01*
X85686950Y-82579294D01*
X85686951Y-82579295D01*
X85873942Y-82659540D01*
X86073259Y-82700500D01*
X87025743Y-82700500D01*
X87177439Y-82685074D01*
X87371579Y-82624162D01*
X87371580Y-82624161D01*
X87371588Y-82624159D01*
X87549502Y-82525409D01*
X87703895Y-82392866D01*
X87828448Y-82231958D01*
X87918060Y-82049271D01*
X87969063Y-81852285D01*
X87979369Y-81649064D01*
X87948556Y-81447929D01*
X87884068Y-81273806D01*
X87877888Y-81257118D01*
X87877887Y-81257117D01*
X87877886Y-81257113D01*
X87770252Y-81084429D01*
X87641418Y-80948897D01*
X87630061Y-80936949D01*
X87630060Y-80936948D01*
X87630059Y-80936947D01*
X87531587Y-80868409D01*
X87463050Y-80820705D01*
X87276056Y-80740459D01*
X87076741Y-80699500D01*
X86124258Y-80699500D01*
X86124257Y-80699500D01*
X85972560Y-80714925D01*
X85778420Y-80775837D01*
X85778405Y-80775844D01*
X85600500Y-80874589D01*
X85600495Y-80874592D01*
X85446106Y-81007132D01*
X85446104Y-81007134D01*
X85321554Y-81168037D01*
X85321553Y-81168040D01*
X85231940Y-81350728D01*
X85180937Y-81547714D01*
X85170631Y-81750936D01*
X71431653Y-81750936D01*
X71908788Y-81273801D01*
X71921042Y-81263986D01*
X71920859Y-81263764D01*
X71926866Y-81258792D01*
X71926877Y-81258786D01*
X71957775Y-81225882D01*
X71974227Y-81208364D01*
X71984671Y-81197918D01*
X71995120Y-81187471D01*
X71999379Y-81181978D01*
X72003152Y-81177561D01*
X72035062Y-81143582D01*
X72044713Y-81126024D01*
X72055396Y-81109761D01*
X72067673Y-81093936D01*
X72086185Y-81051153D01*
X72088738Y-81045941D01*
X72111197Y-81005092D01*
X72116180Y-80985680D01*
X72122481Y-80967280D01*
X72130437Y-80948896D01*
X72137729Y-80902852D01*
X72138906Y-80897171D01*
X72150500Y-80852019D01*
X72150500Y-80831982D01*
X72152027Y-80812582D01*
X72153580Y-80802777D01*
X72155160Y-80792804D01*
X72150775Y-80746415D01*
X72150500Y-80740577D01*
X72150500Y-79707023D01*
X72170185Y-79639984D01*
X72222989Y-79594229D01*
X72292147Y-79584285D01*
X72355703Y-79613310D01*
X72393477Y-79672088D01*
X72398358Y-79701115D01*
X72399852Y-79732459D01*
X72449442Y-79936871D01*
X72494082Y-80034619D01*
X72536820Y-80128204D01*
X72536824Y-80128210D01*
X72658826Y-80299539D01*
X72658831Y-80299544D01*
X72811063Y-80444697D01*
X72988014Y-80558416D01*
X73183288Y-80636593D01*
X73338193Y-80666448D01*
X73389828Y-80676400D01*
X73389829Y-80676400D01*
X73547461Y-80676400D01*
X73547468Y-80676400D01*
X73704389Y-80661416D01*
X73906211Y-80602156D01*
X74093170Y-80505771D01*
X74258510Y-80375747D01*
X74396255Y-80216781D01*
X74501426Y-80034619D01*
X74570222Y-79835846D01*
X74600157Y-79627645D01*
X74596634Y-79553683D01*
X87520740Y-79553683D01*
X87529053Y-79707023D01*
X87530755Y-79738406D01*
X87530755Y-79738411D01*
X87580244Y-79916656D01*
X87580247Y-79916662D01*
X87666898Y-80080102D01*
X87786662Y-80221099D01*
X87786663Y-80221100D01*
X87933936Y-80333054D01*
X88101833Y-80410732D01*
X88101834Y-80410732D01*
X88101836Y-80410733D01*
X88156648Y-80422797D01*
X88282503Y-80450500D01*
X88282506Y-80450500D01*
X88421107Y-80450500D01*
X88421113Y-80450500D01*
X88558910Y-80435514D01*
X88734221Y-80376444D01*
X88892736Y-80281070D01*
X89027041Y-80153849D01*
X89130858Y-80000730D01*
X89199331Y-79828875D01*
X89229260Y-79646317D01*
X89219245Y-79461593D01*
X89218092Y-79457439D01*
X89169755Y-79283343D01*
X89169752Y-79283337D01*
X89083101Y-79119897D01*
X88963337Y-78978900D01*
X88963228Y-78978817D01*
X88816064Y-78866946D01*
X88648167Y-78789268D01*
X88648163Y-78789266D01*
X88467497Y-78749500D01*
X88328887Y-78749500D01*
X88328883Y-78749500D01*
X88191088Y-78764486D01*
X88015776Y-78823557D01*
X88015774Y-78823558D01*
X87857262Y-78918931D01*
X87857261Y-78918932D01*
X87722959Y-79046149D01*
X87619138Y-79199276D01*
X87550669Y-79371122D01*
X87536518Y-79457439D01*
X87520740Y-79553683D01*
X74596634Y-79553683D01*
X74590148Y-79417541D01*
X74540558Y-79213129D01*
X74453179Y-79021795D01*
X74453175Y-79021789D01*
X74331173Y-78850460D01*
X74331167Y-78850454D01*
X74251250Y-78774253D01*
X74229153Y-78753184D01*
X74194219Y-78692676D01*
X74197544Y-78622886D01*
X74238072Y-78565972D01*
X74280117Y-78544370D01*
X74287864Y-78542119D01*
X74306912Y-78538174D01*
X74326792Y-78535664D01*
X74370122Y-78518507D01*
X74375646Y-78516617D01*
X74386082Y-78513585D01*
X74420390Y-78503618D01*
X74437629Y-78493422D01*
X74455103Y-78484862D01*
X74473727Y-78477488D01*
X74473727Y-78477487D01*
X74473732Y-78477486D01*
X74511449Y-78450082D01*
X74516305Y-78446892D01*
X74556420Y-78423170D01*
X74570589Y-78408999D01*
X74585379Y-78396368D01*
X74601587Y-78384594D01*
X74631299Y-78348676D01*
X74635212Y-78344376D01*
X75317771Y-77661817D01*
X75379094Y-77628333D01*
X75405452Y-77625499D01*
X77617871Y-77625499D01*
X77617872Y-77625499D01*
X77677483Y-77619091D01*
X77812331Y-77568796D01*
X77836189Y-77550936D01*
X83670631Y-77550936D01*
X83701442Y-77752063D01*
X83701445Y-77752075D01*
X83772111Y-77942881D01*
X83772115Y-77942888D01*
X83879745Y-78115567D01*
X83879747Y-78115569D01*
X83879748Y-78115571D01*
X84019941Y-78263053D01*
X84142978Y-78348689D01*
X84186949Y-78379294D01*
X84186950Y-78379294D01*
X84186951Y-78379295D01*
X84373942Y-78459540D01*
X84573259Y-78500500D01*
X85525743Y-78500500D01*
X85677439Y-78485074D01*
X85871579Y-78424162D01*
X85871580Y-78424161D01*
X85871588Y-78424159D01*
X86049502Y-78325409D01*
X86203895Y-78192866D01*
X86328448Y-78031958D01*
X86418060Y-77849271D01*
X86469063Y-77652285D01*
X86479369Y-77449064D01*
X86448556Y-77247929D01*
X86377886Y-77057113D01*
X86270252Y-76884429D01*
X86158229Y-76766582D01*
X86130061Y-76736949D01*
X86130060Y-76736948D01*
X86130059Y-76736947D01*
X86029951Y-76667270D01*
X85963050Y-76620705D01*
X85776056Y-76540459D01*
X85576741Y-76499500D01*
X84624258Y-76499500D01*
X84624257Y-76499500D01*
X84472560Y-76514925D01*
X84278420Y-76575837D01*
X84278405Y-76575844D01*
X84100500Y-76674589D01*
X84100495Y-76674592D01*
X83946106Y-76807132D01*
X83946104Y-76807134D01*
X83821554Y-76968037D01*
X83821553Y-76968040D01*
X83731940Y-77150728D01*
X83680937Y-77347714D01*
X83670631Y-77550936D01*
X77836189Y-77550936D01*
X77927546Y-77482546D01*
X78013796Y-77367331D01*
X78064091Y-77232483D01*
X78070500Y-77172873D01*
X78070499Y-74477128D01*
X78064091Y-74417517D01*
X78048089Y-74374614D01*
X78013797Y-74282671D01*
X78013793Y-74282664D01*
X77927547Y-74167455D01*
X77927544Y-74167452D01*
X77812335Y-74081206D01*
X77812328Y-74081202D01*
X77677482Y-74030908D01*
X77677483Y-74030908D01*
X77617883Y-74024501D01*
X77617881Y-74024500D01*
X77617873Y-74024500D01*
X77617865Y-74024500D01*
X76659451Y-74024500D01*
X76592412Y-74004815D01*
X76546657Y-73952011D01*
X76536713Y-73882853D01*
X76565738Y-73819297D01*
X76571770Y-73812819D01*
X81446165Y-68938424D01*
X86326786Y-64057802D01*
X86339048Y-64047980D01*
X86338865Y-64047759D01*
X86344867Y-64042792D01*
X86344877Y-64042786D01*
X86392241Y-63992348D01*
X86413120Y-63971470D01*
X86417373Y-63965986D01*
X86421150Y-63961563D01*
X86453062Y-63927582D01*
X86462714Y-63910023D01*
X86473389Y-63893772D01*
X86485674Y-63877936D01*
X86504183Y-63835160D01*
X86506741Y-63829935D01*
X86509039Y-63825756D01*
X86558584Y-63776496D01*
X86617694Y-63761499D01*
X87526288Y-63761499D01*
X87526289Y-63761499D01*
X87577120Y-63757499D01*
X87604354Y-63755356D01*
X87785918Y-63706706D01*
X87909273Y-63643854D01*
X87953396Y-63621373D01*
X87953397Y-63621371D01*
X87953399Y-63621371D01*
X88099478Y-63503078D01*
X88217771Y-63356999D01*
X88217773Y-63356996D01*
X88224435Y-63343921D01*
X88272408Y-63293125D01*
X88340229Y-63276329D01*
X88406364Y-63298866D01*
X88445405Y-63343921D01*
X88450614Y-63354146D01*
X88473435Y-63382327D01*
X88569743Y-63501257D01*
X88658996Y-63573533D01*
X88716853Y-63620385D01*
X88805771Y-63665690D01*
X88885512Y-63706320D01*
X88889234Y-63707317D01*
X88892591Y-63708217D01*
X88952252Y-63744580D01*
X88982783Y-63807427D01*
X88984500Y-63827992D01*
X88984500Y-76475355D01*
X88982775Y-76490972D01*
X88983061Y-76490999D01*
X88982326Y-76498765D01*
X88984500Y-76567914D01*
X88984500Y-76597443D01*
X88984501Y-76597460D01*
X88985368Y-76604331D01*
X88985826Y-76610150D01*
X88987290Y-76656724D01*
X88987291Y-76656727D01*
X88992880Y-76675967D01*
X88996824Y-76695011D01*
X88999336Y-76714892D01*
X89016490Y-76758219D01*
X89018382Y-76763747D01*
X89031381Y-76808488D01*
X89041580Y-76825734D01*
X89050138Y-76843203D01*
X89057514Y-76861832D01*
X89084898Y-76899523D01*
X89088106Y-76904407D01*
X89111827Y-76944516D01*
X89111833Y-76944524D01*
X89125990Y-76958680D01*
X89138628Y-76973476D01*
X89150405Y-76989686D01*
X89150406Y-76989687D01*
X89186309Y-77019388D01*
X89190620Y-77023310D01*
X90859986Y-78692676D01*
X92508017Y-80340707D01*
X92541502Y-80402030D01*
X92536518Y-80471722D01*
X92494646Y-80527655D01*
X92491460Y-80529963D01*
X92303598Y-80661505D01*
X92162326Y-80802777D01*
X92101003Y-80836261D01*
X92031311Y-80831277D01*
X91986964Y-80802776D01*
X91846079Y-80661891D01*
X91846073Y-80661886D01*
X91652579Y-80526400D01*
X91652577Y-80526399D01*
X91438492Y-80426570D01*
X91438483Y-80426566D01*
X91210326Y-80365432D01*
X91210316Y-80365430D01*
X91033945Y-80350000D01*
X90825000Y-80350000D01*
X90825000Y-81076000D01*
X90805315Y-81143039D01*
X90752511Y-81188794D01*
X90701000Y-81200000D01*
X90449000Y-81200000D01*
X90381961Y-81180315D01*
X90336206Y-81127511D01*
X90325000Y-81076000D01*
X90325000Y-80350000D01*
X90116055Y-80350000D01*
X89939683Y-80365430D01*
X89939673Y-80365432D01*
X89711516Y-80426566D01*
X89711507Y-80426570D01*
X89497422Y-80526399D01*
X89497420Y-80526400D01*
X89303926Y-80661886D01*
X89303920Y-80661891D01*
X89136894Y-80828917D01*
X89001399Y-81022421D01*
X88901570Y-81236507D01*
X88901567Y-81236513D01*
X88844364Y-81449999D01*
X88844364Y-81450000D01*
X89711653Y-81450000D01*
X89778692Y-81469685D01*
X89824447Y-81522489D01*
X89834391Y-81591647D01*
X89830631Y-81608933D01*
X89825000Y-81628111D01*
X89825000Y-81771888D01*
X89830631Y-81791067D01*
X89830630Y-81860936D01*
X89792855Y-81919714D01*
X89729299Y-81948738D01*
X89711653Y-81950000D01*
X88844364Y-81950000D01*
X88901567Y-82163486D01*
X88901570Y-82163492D01*
X89001399Y-82377577D01*
X89001400Y-82377579D01*
X89136886Y-82571073D01*
X89136891Y-82571079D01*
X89303920Y-82738108D01*
X89303926Y-82738113D01*
X89497420Y-82873599D01*
X89497422Y-82873600D01*
X89711507Y-82973429D01*
X89711516Y-82973433D01*
X89939673Y-83034567D01*
X89939683Y-83034569D01*
X90116055Y-83050000D01*
X90325000Y-83050000D01*
X90325000Y-82324000D01*
X90344685Y-82256961D01*
X90397489Y-82211206D01*
X90449000Y-82200000D01*
X90701000Y-82200000D01*
X90768039Y-82219685D01*
X90813794Y-82272489D01*
X90825000Y-82324000D01*
X90825000Y-83050000D01*
X91033945Y-83050000D01*
X91210316Y-83034569D01*
X91210326Y-83034567D01*
X91438483Y-82973433D01*
X91438492Y-82973429D01*
X91652577Y-82873600D01*
X91652579Y-82873599D01*
X91846073Y-82738113D01*
X91846079Y-82738108D01*
X91986965Y-82597223D01*
X92048288Y-82563738D01*
X92117980Y-82568722D01*
X92162325Y-82597221D01*
X92250178Y-82685074D01*
X92303600Y-82738496D01*
X92497169Y-82874034D01*
X92497171Y-82874035D01*
X92711337Y-82973903D01*
X92939592Y-83035063D01*
X93116034Y-83050500D01*
X94033966Y-83050500D01*
X94210408Y-83035063D01*
X94438663Y-82973903D01*
X94652829Y-82874035D01*
X94846401Y-82738495D01*
X95013495Y-82571401D01*
X95149035Y-82377830D01*
X95248903Y-82163663D01*
X95310063Y-81935408D01*
X95330659Y-81700000D01*
X95310063Y-81464592D01*
X95248903Y-81236337D01*
X95149035Y-81022171D01*
X95149034Y-81022169D01*
X95013494Y-80828597D01*
X94846402Y-80661505D01*
X94652830Y-80525965D01*
X94652828Y-80525964D01*
X94532163Y-80469697D01*
X94438663Y-80426097D01*
X94438660Y-80426096D01*
X94438658Y-80426095D01*
X94245369Y-80374304D01*
X94185709Y-80337939D01*
X94158387Y-80289124D01*
X94153618Y-80272711D01*
X94153616Y-80272706D01*
X94143423Y-80255471D01*
X94134861Y-80237994D01*
X94127487Y-80219370D01*
X94121012Y-80210458D01*
X94100079Y-80181645D01*
X94096888Y-80176786D01*
X94073172Y-80136683D01*
X94073165Y-80136674D01*
X94059006Y-80122515D01*
X94046368Y-80107719D01*
X94035610Y-80092912D01*
X94034594Y-80091513D01*
X94033038Y-80090226D01*
X93998688Y-80061809D01*
X93994376Y-80057886D01*
X93490173Y-79553683D01*
X94520740Y-79553683D01*
X94529053Y-79707023D01*
X94530755Y-79738406D01*
X94530755Y-79738411D01*
X94580244Y-79916656D01*
X94580247Y-79916662D01*
X94666898Y-80080102D01*
X94786662Y-80221099D01*
X94786663Y-80221100D01*
X94933936Y-80333054D01*
X95101833Y-80410732D01*
X95101834Y-80410732D01*
X95101836Y-80410733D01*
X95156648Y-80422797D01*
X95282503Y-80450500D01*
X95282506Y-80450500D01*
X95421107Y-80450500D01*
X95421113Y-80450500D01*
X95558910Y-80435514D01*
X95734221Y-80376444D01*
X95892736Y-80281070D01*
X96027041Y-80153849D01*
X96130858Y-80000730D01*
X96199331Y-79828875D01*
X96229260Y-79646317D01*
X96219245Y-79461593D01*
X96218092Y-79457439D01*
X96169755Y-79283343D01*
X96169752Y-79283337D01*
X96083101Y-79119897D01*
X95963337Y-78978900D01*
X95963228Y-78978817D01*
X95816064Y-78866946D01*
X95648167Y-78789268D01*
X95648163Y-78789266D01*
X95467497Y-78749500D01*
X95328887Y-78749500D01*
X95328883Y-78749500D01*
X95191088Y-78764486D01*
X95015776Y-78823557D01*
X95015774Y-78823558D01*
X94857262Y-78918931D01*
X94857261Y-78918932D01*
X94722959Y-79046149D01*
X94619138Y-79199276D01*
X94550669Y-79371122D01*
X94536518Y-79457439D01*
X94520740Y-79553683D01*
X93490173Y-79553683D01*
X90271819Y-76335328D01*
X90238334Y-76274005D01*
X90235500Y-76247647D01*
X90235500Y-63827992D01*
X90255185Y-63760953D01*
X90307989Y-63715198D01*
X90327409Y-63708217D01*
X90329608Y-63707627D01*
X90334488Y-63706320D01*
X90476024Y-63634204D01*
X90503146Y-63620385D01*
X90503147Y-63620383D01*
X90503149Y-63620383D01*
X90650257Y-63501257D01*
X90769383Y-63354149D01*
X90773341Y-63346382D01*
X90802633Y-63288892D01*
X90855320Y-63185488D01*
X90904312Y-63002645D01*
X90910500Y-62924021D01*
X90910499Y-61995952D01*
X90930183Y-61928915D01*
X90982987Y-61883160D01*
X91052146Y-61873216D01*
X91115702Y-61902241D01*
X91130865Y-61917918D01*
X91209758Y-62015342D01*
X91356874Y-62134475D01*
X91456794Y-62185386D01*
X91507590Y-62233359D01*
X91524500Y-62295871D01*
X91524500Y-62904255D01*
X91522775Y-62919872D01*
X91523061Y-62919899D01*
X91522326Y-62927665D01*
X91524500Y-62996814D01*
X91524500Y-63007170D01*
X91518433Y-63045483D01*
X91516625Y-63051046D01*
X91502072Y-63189518D01*
X91496840Y-63239300D01*
X91516626Y-63427556D01*
X91516627Y-63427559D01*
X91575118Y-63607577D01*
X91575121Y-63607584D01*
X91669767Y-63771516D01*
X91773519Y-63886744D01*
X91796429Y-63912188D01*
X91949565Y-64023448D01*
X91949570Y-64023451D01*
X92122492Y-64100442D01*
X92122497Y-64100444D01*
X92307654Y-64139800D01*
X92307655Y-64139800D01*
X92496944Y-64139800D01*
X92496946Y-64139800D01*
X92682103Y-64100444D01*
X92855030Y-64023451D01*
X93008171Y-63912188D01*
X93134833Y-63771516D01*
X93229479Y-63607584D01*
X93287974Y-63427556D01*
X93307760Y-63239300D01*
X93287974Y-63051044D01*
X93229479Y-62871016D01*
X93134833Y-62707084D01*
X93008171Y-62566412D01*
X92916647Y-62499916D01*
X92873983Y-62444587D01*
X92868004Y-62374974D01*
X92900610Y-62313179D01*
X92961449Y-62278821D01*
X92989534Y-62275599D01*
X93844975Y-62275599D01*
X93860699Y-62274361D01*
X93923603Y-62269412D01*
X94106456Y-62220416D01*
X94275126Y-62134475D01*
X94422242Y-62015342D01*
X94541375Y-61868226D01*
X94627316Y-61699556D01*
X94645751Y-61630756D01*
X94682114Y-61571097D01*
X94744961Y-61540567D01*
X94791301Y-61541559D01*
X94865354Y-61557300D01*
X94865356Y-61557300D01*
X95054644Y-61557300D01*
X95054646Y-61557300D01*
X95239803Y-61517944D01*
X95412730Y-61440951D01*
X95565871Y-61329688D01*
X95692533Y-61189016D01*
X95787179Y-61025084D01*
X95845674Y-60845056D01*
X95863309Y-60677265D01*
X95889892Y-60612653D01*
X95896246Y-60605336D01*
X95899241Y-60602148D01*
X95920120Y-60581270D01*
X95924373Y-60575786D01*
X95928150Y-60571363D01*
X95960062Y-60537382D01*
X95969714Y-60519823D01*
X95980389Y-60503572D01*
X95992674Y-60487736D01*
X96011186Y-60444952D01*
X96013742Y-60439735D01*
X96036197Y-60398892D01*
X96041180Y-60379480D01*
X96047477Y-60361091D01*
X96055438Y-60342695D01*
X96062729Y-60296653D01*
X96063908Y-60290962D01*
X96075500Y-60245819D01*
X96075500Y-60225782D01*
X96077027Y-60206382D01*
X96080160Y-60186604D01*
X96075775Y-60140215D01*
X96075500Y-60134377D01*
X96075500Y-56152338D01*
X96077224Y-56136724D01*
X96076938Y-56136697D01*
X96077672Y-56128934D01*
X96075500Y-56059803D01*
X96075500Y-56030251D01*
X96075500Y-56030250D01*
X96074629Y-56023359D01*
X96074172Y-56017545D01*
X96072709Y-55970972D01*
X96067122Y-55951744D01*
X96063174Y-55932684D01*
X96060664Y-55912808D01*
X96043507Y-55869475D01*
X96041619Y-55863959D01*
X96028619Y-55819212D01*
X96018418Y-55801963D01*
X96009860Y-55784494D01*
X96002486Y-55765868D01*
X96002483Y-55765864D01*
X96002483Y-55765863D01*
X95975098Y-55728171D01*
X95971890Y-55723287D01*
X95948172Y-55683182D01*
X95948163Y-55683171D01*
X95934005Y-55669013D01*
X95921370Y-55654220D01*
X95909593Y-55638012D01*
X95873693Y-55608313D01*
X95869381Y-55604390D01*
X94595573Y-54330582D01*
X94562089Y-54269260D01*
X94567073Y-54199568D01*
X94572762Y-54186624D01*
X94627316Y-54079556D01*
X94676312Y-53896703D01*
X94682500Y-53818075D01*
X94682499Y-52891926D01*
X94676312Y-52813297D01*
X94627316Y-52630444D01*
X94541376Y-52461775D01*
X94541375Y-52461773D01*
X94455499Y-52355727D01*
X94422242Y-52314658D01*
X94356414Y-52261351D01*
X94275126Y-52195524D01*
X94275122Y-52195522D01*
X94274963Y-52195441D01*
X94274887Y-52195369D01*
X94269677Y-52191986D01*
X94270295Y-52191032D01*
X94224169Y-52147465D01*
X94207377Y-52079643D01*
X94229918Y-52013509D01*
X94270162Y-51978644D01*
X94269696Y-51977925D01*
X94274876Y-51974560D01*
X94274985Y-51974466D01*
X94275149Y-51974383D01*
X94422257Y-51855257D01*
X94541383Y-51708149D01*
X94627320Y-51539488D01*
X94676312Y-51356645D01*
X94682500Y-51278021D01*
X94682499Y-50351980D01*
X94676312Y-50273355D01*
X94627320Y-50090512D01*
X94583938Y-50005371D01*
X94541385Y-49921853D01*
X94508554Y-49881311D01*
X94422257Y-49774743D01*
X94275149Y-49655617D01*
X94275148Y-49655616D01*
X94275144Y-49655613D01*
X94269696Y-49652075D01*
X94270965Y-49650120D01*
X94227903Y-49609463D01*
X94211097Y-49541644D01*
X94233624Y-49475506D01*
X94274570Y-49440022D01*
X94274224Y-49439489D01*
X94278065Y-49436994D01*
X94278696Y-49436448D01*
X94278855Y-49436366D01*
X94279673Y-49435950D01*
X94425147Y-49318147D01*
X94542950Y-49172673D01*
X94627933Y-49005884D01*
X94676381Y-48825072D01*
X94682500Y-48747323D01*
X94682499Y-47842678D01*
X94676381Y-47764928D01*
X94627933Y-47584116D01*
X94542951Y-47417328D01*
X94542950Y-47417326D01*
X94471139Y-47328648D01*
X94425147Y-47271853D01*
X94310589Y-47179085D01*
X94279674Y-47154050D01*
X94237536Y-47132580D01*
X94186740Y-47084606D01*
X94169945Y-47016785D01*
X94192482Y-46950650D01*
X94237534Y-46911612D01*
X94272887Y-46893599D01*
X94420812Y-46773812D01*
X94540599Y-46625887D01*
X94627014Y-46456290D01*
X94676278Y-46272432D01*
X94682500Y-46193377D01*
X94682499Y-45256624D01*
X94676278Y-45177568D01*
X94627014Y-44993710D01*
X94627014Y-44993709D01*
X94549598Y-44841775D01*
X94540599Y-44824113D01*
X94420812Y-44676188D01*
X94272887Y-44556401D01*
X94272886Y-44556400D01*
X94269629Y-44553763D01*
X94229918Y-44496276D01*
X94227590Y-44426445D01*
X94263385Y-44366441D01*
X94272457Y-44359377D01*
X94272361Y-44359258D01*
X94391037Y-44263153D01*
X94423702Y-44236702D01*
X94463190Y-44187938D01*
X94542163Y-44090417D01*
X94542168Y-44090409D01*
X94543420Y-44087951D01*
X94627627Y-43922686D01*
X94676347Y-43740859D01*
X94682500Y-43662679D01*
X94682499Y-42747322D01*
X94676347Y-42669141D01*
X94627627Y-42487314D01*
X94542167Y-42319589D01*
X94542163Y-42319582D01*
X94423704Y-42173300D01*
X94423699Y-42173295D01*
X94277417Y-42054836D01*
X94277409Y-42054831D01*
X94257163Y-42044515D01*
X94206367Y-41996540D01*
X94189573Y-41928719D01*
X94212111Y-41862584D01*
X94257165Y-41823545D01*
X94275149Y-41814383D01*
X94422257Y-41695257D01*
X94541383Y-41548149D01*
X94543866Y-41543277D01*
X94561835Y-41508008D01*
X94627320Y-41379488D01*
X94676312Y-41196645D01*
X94682500Y-41118021D01*
X94682499Y-40191980D01*
X94676312Y-40113355D01*
X94627320Y-39930512D01*
X94583938Y-39845371D01*
X94541385Y-39761853D01*
X94507446Y-39719942D01*
X94422257Y-39614743D01*
X94318569Y-39530778D01*
X94275146Y-39495614D01*
X94139666Y-39426585D01*
X94106488Y-39409680D01*
X93987486Y-39377794D01*
X93923642Y-39360687D01*
X93845024Y-39354500D01*
X93845021Y-39354500D01*
X92743270Y-39354500D01*
X92006978Y-39354501D01*
X92006979Y-39354501D01*
X91928356Y-39360687D01*
X91745512Y-39409680D01*
X91576851Y-39495616D01*
X91551518Y-39516130D01*
X91487030Y-39543021D01*
X91418242Y-39530778D01*
X91366992Y-39483288D01*
X91349553Y-39415630D01*
X91368488Y-39353797D01*
X91386915Y-39324469D01*
X91390197Y-39319752D01*
X91427003Y-39271786D01*
X91432323Y-39265718D01*
X91465718Y-39232323D01*
X91471786Y-39227003D01*
X91519752Y-39190197D01*
X91524459Y-39186922D01*
X91559313Y-39165021D01*
X91577794Y-39155474D01*
X91632047Y-39133001D01*
X91635253Y-39131778D01*
X91669402Y-39119829D01*
X91694163Y-39113933D01*
X91741020Y-39107764D01*
X91773646Y-39103470D01*
X91782632Y-39102456D01*
X91796545Y-39100889D01*
X91803481Y-39100500D01*
X96496518Y-39100500D01*
X96503455Y-39100889D01*
G37*
%TD.AperFunction*%
%TA.AperFunction,Conductor*%
G36*
X75206946Y-62274964D02*
G01*
X75215023Y-62275600D01*
X75215024Y-62275599D01*
X75215025Y-62275600D01*
X76104533Y-62275599D01*
X76171572Y-62295283D01*
X76217327Y-62348087D01*
X76227271Y-62417246D01*
X76198246Y-62480802D01*
X76196683Y-62482571D01*
X76142466Y-62542785D01*
X76047821Y-62706715D01*
X76047818Y-62706722D01*
X75994436Y-62871016D01*
X75989326Y-62886744D01*
X75977145Y-63002642D01*
X75971976Y-63051827D01*
X75969540Y-63075000D01*
X75989326Y-63263256D01*
X75989327Y-63263259D01*
X76047818Y-63443277D01*
X76047821Y-63443284D01*
X76142467Y-63607216D01*
X76232059Y-63706718D01*
X76269129Y-63747888D01*
X76422265Y-63859148D01*
X76422270Y-63859151D01*
X76595192Y-63936142D01*
X76595197Y-63936144D01*
X76780354Y-63975500D01*
X76780355Y-63975500D01*
X76969644Y-63975500D01*
X76969646Y-63975500D01*
X77154803Y-63936144D01*
X77327730Y-63859151D01*
X77462415Y-63761296D01*
X77528221Y-63737817D01*
X77596275Y-63753642D01*
X77644970Y-63803748D01*
X77659300Y-63861615D01*
X77659300Y-66454747D01*
X77639615Y-66521786D01*
X77622981Y-66542428D01*
X73652228Y-70513181D01*
X73590905Y-70546666D01*
X73564547Y-70549500D01*
X65625837Y-70549500D01*
X65610220Y-70547776D01*
X65610193Y-70548062D01*
X65602431Y-70547327D01*
X65533303Y-70549500D01*
X65503750Y-70549500D01*
X65503029Y-70549590D01*
X65496857Y-70550369D01*
X65491045Y-70550826D01*
X65444473Y-70552290D01*
X65444472Y-70552290D01*
X65425229Y-70557881D01*
X65406179Y-70561825D01*
X65386311Y-70564334D01*
X65386309Y-70564335D01*
X65342984Y-70581488D01*
X65337457Y-70583380D01*
X65292710Y-70596381D01*
X65292709Y-70596382D01*
X65275467Y-70606579D01*
X65257999Y-70615137D01*
X65239369Y-70622513D01*
X65239367Y-70622514D01*
X65201676Y-70649898D01*
X65196794Y-70653105D01*
X65156679Y-70676830D01*
X65142508Y-70691000D01*
X65127723Y-70703628D01*
X65111512Y-70715407D01*
X65081809Y-70751310D01*
X65077877Y-70755631D01*
X64336208Y-71497299D01*
X64323951Y-71507120D01*
X64324134Y-71507341D01*
X64318123Y-71512313D01*
X64270772Y-71562736D01*
X64249889Y-71583619D01*
X64249877Y-71583632D01*
X64245621Y-71589117D01*
X64241837Y-71593547D01*
X64209937Y-71627518D01*
X64209936Y-71627520D01*
X64200284Y-71645076D01*
X64189610Y-71661326D01*
X64177329Y-71677161D01*
X64177324Y-71677168D01*
X64158815Y-71719938D01*
X64156245Y-71725184D01*
X64136976Y-71760236D01*
X64087430Y-71809501D01*
X64028313Y-71824500D01*
X63424500Y-71824500D01*
X63357461Y-71804815D01*
X63311706Y-71752011D01*
X63300500Y-71700500D01*
X63300500Y-71132738D01*
X63302224Y-71117125D01*
X63301938Y-71117098D01*
X63302671Y-71109336D01*
X63302672Y-71109333D01*
X63300499Y-71040203D01*
X63300500Y-71010650D01*
X63299629Y-71003758D01*
X63299172Y-70997946D01*
X63297709Y-70951372D01*
X63292122Y-70932144D01*
X63288174Y-70913084D01*
X63285663Y-70893204D01*
X63268512Y-70849887D01*
X63266619Y-70844358D01*
X63253618Y-70799609D01*
X63253616Y-70799606D01*
X63243423Y-70782371D01*
X63234861Y-70764894D01*
X63227487Y-70746270D01*
X63227486Y-70746268D01*
X63200079Y-70708545D01*
X63196888Y-70703686D01*
X63173172Y-70663583D01*
X63173165Y-70663574D01*
X63159006Y-70649415D01*
X63146368Y-70634619D01*
X63134594Y-70618413D01*
X63126294Y-70611547D01*
X63098688Y-70588709D01*
X63094376Y-70584786D01*
X62371772Y-69862181D01*
X62338287Y-69800858D01*
X62343271Y-69731166D01*
X62385143Y-69675233D01*
X62450607Y-69650816D01*
X62459453Y-69650500D01*
X70767257Y-69650500D01*
X70782877Y-69652224D01*
X70782904Y-69651939D01*
X70790660Y-69652671D01*
X70790667Y-69652673D01*
X70859814Y-69650500D01*
X70889350Y-69650500D01*
X70896228Y-69649630D01*
X70902041Y-69649172D01*
X70948627Y-69647709D01*
X70967869Y-69642117D01*
X70986912Y-69638174D01*
X71006792Y-69635664D01*
X71050122Y-69618507D01*
X71055646Y-69616617D01*
X71059396Y-69615527D01*
X71100390Y-69603618D01*
X71117629Y-69593422D01*
X71135103Y-69584862D01*
X71153727Y-69577488D01*
X71153727Y-69577487D01*
X71153732Y-69577486D01*
X71191449Y-69550082D01*
X71196305Y-69546892D01*
X71236420Y-69523170D01*
X71250589Y-69508999D01*
X71265379Y-69496368D01*
X71281587Y-69484594D01*
X71311299Y-69448676D01*
X71315212Y-69444376D01*
X74808788Y-65950801D01*
X74821042Y-65940986D01*
X74820859Y-65940764D01*
X74826866Y-65935792D01*
X74826877Y-65935786D01*
X74857775Y-65902882D01*
X74874227Y-65885364D01*
X74884671Y-65874918D01*
X74895120Y-65864471D01*
X74899379Y-65858978D01*
X74903152Y-65854561D01*
X74935062Y-65820582D01*
X74944713Y-65803024D01*
X74955396Y-65786761D01*
X74967673Y-65770936D01*
X74986185Y-65728153D01*
X74988738Y-65722941D01*
X75011197Y-65682092D01*
X75016180Y-65662680D01*
X75022481Y-65644280D01*
X75030437Y-65625896D01*
X75037729Y-65579852D01*
X75038906Y-65574171D01*
X75050500Y-65529019D01*
X75050500Y-65508982D01*
X75052027Y-65489582D01*
X75055160Y-65469804D01*
X75050775Y-65423415D01*
X75050500Y-65417577D01*
X75050500Y-62396794D01*
X75070185Y-62329755D01*
X75122989Y-62284000D01*
X75184228Y-62273176D01*
X75206946Y-62274964D01*
G37*
%TD.AperFunction*%
%TA.AperFunction,Conductor*%
G36*
X46674855Y-65766546D02*
G01*
X46691575Y-65785842D01*
X46821500Y-65971395D01*
X46821505Y-65971401D01*
X46988599Y-66138495D01*
X47181624Y-66273653D01*
X47225248Y-66328228D01*
X47234500Y-66375226D01*
X47234500Y-67152255D01*
X47232775Y-67167872D01*
X47233061Y-67167899D01*
X47232326Y-67175665D01*
X47234500Y-67244814D01*
X47234500Y-67274343D01*
X47234501Y-67274360D01*
X47235368Y-67281231D01*
X47235826Y-67287050D01*
X47237290Y-67333624D01*
X47237291Y-67333627D01*
X47242880Y-67352867D01*
X47246824Y-67371911D01*
X47249336Y-67391792D01*
X47266167Y-67434304D01*
X47266490Y-67435119D01*
X47268382Y-67440647D01*
X47277783Y-67473005D01*
X47281382Y-67485390D01*
X47287409Y-67495582D01*
X47291580Y-67502634D01*
X47300136Y-67520100D01*
X47307514Y-67538732D01*
X47328044Y-67566990D01*
X47334898Y-67576423D01*
X47338106Y-67581307D01*
X47361827Y-67621416D01*
X47361833Y-67621424D01*
X47375990Y-67635580D01*
X47388628Y-67650376D01*
X47400405Y-67666586D01*
X47400406Y-67666587D01*
X47436309Y-67696288D01*
X47440620Y-67700210D01*
X47627213Y-67886803D01*
X47928228Y-68187819D01*
X47961713Y-68249142D01*
X47956729Y-68318834D01*
X47914857Y-68374767D01*
X47849393Y-68399184D01*
X47840547Y-68399500D01*
X39410452Y-68399500D01*
X39343413Y-68379815D01*
X39322771Y-68363181D01*
X38361819Y-67402228D01*
X38328334Y-67340905D01*
X38325500Y-67314547D01*
X38325500Y-66375226D01*
X38345185Y-66308187D01*
X38378374Y-66273654D01*
X38571401Y-66138495D01*
X38738495Y-65971401D01*
X38868424Y-65785842D01*
X38923002Y-65742217D01*
X38992500Y-65735023D01*
X39054855Y-65766546D01*
X39071575Y-65785842D01*
X39201500Y-65971395D01*
X39201505Y-65971401D01*
X39368599Y-66138495D01*
X39445135Y-66192086D01*
X39562165Y-66274032D01*
X39562167Y-66274033D01*
X39562170Y-66274035D01*
X39776337Y-66373903D01*
X39776343Y-66373904D01*
X39776344Y-66373905D01*
X39831285Y-66388626D01*
X40004592Y-66435063D01*
X40175319Y-66450000D01*
X40239999Y-66455659D01*
X40240000Y-66455659D01*
X40240001Y-66455659D01*
X40304681Y-66450000D01*
X40475408Y-66435063D01*
X40703663Y-66373903D01*
X40917830Y-66274035D01*
X41111401Y-66138495D01*
X41278495Y-65971401D01*
X41408424Y-65785842D01*
X41463002Y-65742217D01*
X41532500Y-65735023D01*
X41594855Y-65766546D01*
X41611575Y-65785842D01*
X41741500Y-65971395D01*
X41741505Y-65971401D01*
X41908599Y-66138495D01*
X41985135Y-66192086D01*
X42102165Y-66274032D01*
X42102167Y-66274033D01*
X42102170Y-66274035D01*
X42316337Y-66373903D01*
X42316343Y-66373904D01*
X42316344Y-66373905D01*
X42371285Y-66388626D01*
X42544592Y-66435063D01*
X42715319Y-66450000D01*
X42779999Y-66455659D01*
X42780000Y-66455659D01*
X42780001Y-66455659D01*
X42844681Y-66450000D01*
X43015408Y-66435063D01*
X43243663Y-66373903D01*
X43457830Y-66274035D01*
X43651401Y-66138495D01*
X43818495Y-65971401D01*
X43948424Y-65785842D01*
X44003002Y-65742217D01*
X44072500Y-65735023D01*
X44134855Y-65766546D01*
X44151575Y-65785842D01*
X44281500Y-65971395D01*
X44281505Y-65971401D01*
X44448599Y-66138495D01*
X44525135Y-66192086D01*
X44642165Y-66274032D01*
X44642167Y-66274033D01*
X44642170Y-66274035D01*
X44856337Y-66373903D01*
X44856343Y-66373904D01*
X44856344Y-66373905D01*
X44911285Y-66388626D01*
X45084592Y-66435063D01*
X45255319Y-66450000D01*
X45319999Y-66455659D01*
X45320000Y-66455659D01*
X45320001Y-66455659D01*
X45384681Y-66450000D01*
X45555408Y-66435063D01*
X45783663Y-66373903D01*
X45997830Y-66274035D01*
X46191401Y-66138495D01*
X46358495Y-65971401D01*
X46488424Y-65785842D01*
X46543002Y-65742217D01*
X46612500Y-65735023D01*
X46674855Y-65766546D01*
G37*
%TD.AperFunction*%
%TA.AperFunction,Conductor*%
G36*
X77203455Y-39100889D02*
G01*
X77216485Y-39102357D01*
X77226354Y-39103470D01*
X77268982Y-39109081D01*
X77305831Y-39113932D01*
X77330599Y-39119830D01*
X77364736Y-39131775D01*
X77367976Y-39133011D01*
X77422195Y-39155469D01*
X77440695Y-39165027D01*
X77475520Y-39186909D01*
X77480267Y-39190212D01*
X77528200Y-39226993D01*
X77534295Y-39232337D01*
X77567652Y-39265693D01*
X77567652Y-39265694D01*
X77573005Y-39271798D01*
X77589252Y-39292971D01*
X77614447Y-39358140D01*
X77600409Y-39426585D01*
X77551595Y-39476575D01*
X77483504Y-39492239D01*
X77434583Y-39478943D01*
X77348852Y-39435262D01*
X77298456Y-39409584D01*
X77200271Y-39383275D01*
X77115601Y-39360587D01*
X77036977Y-39354400D01*
X77036975Y-39354400D01*
X76124160Y-39354400D01*
X75211024Y-39354401D01*
X75211025Y-39354401D01*
X75132400Y-39360587D01*
X74949544Y-39409584D01*
X74780875Y-39495523D01*
X74780873Y-39495524D01*
X74633758Y-39614658D01*
X74514624Y-39761773D01*
X74514623Y-39761775D01*
X74428682Y-39930446D01*
X74426767Y-39937596D01*
X74390401Y-39997255D01*
X74327554Y-40027783D01*
X74306993Y-40029500D01*
X74177738Y-40029500D01*
X74162121Y-40027776D01*
X74162094Y-40028062D01*
X74154332Y-40027327D01*
X74085204Y-40029500D01*
X74055650Y-40029500D01*
X74054929Y-40029590D01*
X74048757Y-40030369D01*
X74042945Y-40030826D01*
X73996373Y-40032290D01*
X73996372Y-40032290D01*
X73977129Y-40037881D01*
X73958079Y-40041825D01*
X73938211Y-40044334D01*
X73894884Y-40061488D01*
X73889358Y-40063379D01*
X73844614Y-40076379D01*
X73844610Y-40076381D01*
X73827366Y-40086579D01*
X73809905Y-40095133D01*
X73791274Y-40102510D01*
X73791262Y-40102517D01*
X73753570Y-40129902D01*
X73748687Y-40133109D01*
X73708580Y-40156829D01*
X73694414Y-40170995D01*
X73679624Y-40183627D01*
X73663414Y-40195404D01*
X73663411Y-40195407D01*
X73633730Y-40231285D01*
X73629842Y-40235562D01*
X73627319Y-40238090D01*
X73566031Y-40271639D01*
X73539547Y-40274500D01*
X73480354Y-40274500D01*
X73447897Y-40281398D01*
X73295197Y-40313855D01*
X73295192Y-40313857D01*
X73122270Y-40390848D01*
X73122265Y-40390851D01*
X72969129Y-40502111D01*
X72842466Y-40642785D01*
X72747821Y-40806715D01*
X72747818Y-40806722D01*
X72689327Y-40986740D01*
X72689326Y-40986744D01*
X72669540Y-41175000D01*
X72689326Y-41363256D01*
X72689327Y-41363259D01*
X72747818Y-41543277D01*
X72747821Y-41543284D01*
X72842467Y-41707216D01*
X72947210Y-41823544D01*
X72969129Y-41847888D01*
X73122265Y-41959148D01*
X73122270Y-41959151D01*
X73295192Y-42036142D01*
X73295197Y-42036144D01*
X73480354Y-42075500D01*
X73480355Y-42075500D01*
X73669644Y-42075500D01*
X73669646Y-42075500D01*
X73854803Y-42036144D01*
X74027730Y-41959151D01*
X74180871Y-41847888D01*
X74307533Y-41707216D01*
X74357104Y-41621355D01*
X74407672Y-41573139D01*
X74476279Y-41559916D01*
X74541144Y-41585884D01*
X74560857Y-41605318D01*
X74633757Y-41695341D01*
X74780874Y-41814476D01*
X74784358Y-41816738D01*
X74829863Y-41869757D01*
X74839479Y-41938962D01*
X74810154Y-42002380D01*
X74773124Y-42031218D01*
X74763849Y-42035943D01*
X74763845Y-42035946D01*
X74616813Y-42155013D01*
X74497746Y-42302045D01*
X74497744Y-42302048D01*
X74411851Y-42470625D01*
X74362883Y-42653377D01*
X74356700Y-42731950D01*
X74356700Y-42945000D01*
X76232700Y-42945000D01*
X76299739Y-42964685D01*
X76345494Y-43017489D01*
X76356700Y-43069000D01*
X76356700Y-43321000D01*
X76337015Y-43388039D01*
X76284211Y-43433794D01*
X76232700Y-43445000D01*
X74356700Y-43445000D01*
X74356700Y-43658050D01*
X74362883Y-43736622D01*
X74411851Y-43919374D01*
X74497744Y-44087951D01*
X74497746Y-44087954D01*
X74616813Y-44234986D01*
X74763845Y-44354053D01*
X74763847Y-44354054D01*
X74773118Y-44358778D01*
X74823915Y-44406751D01*
X74840712Y-44474571D01*
X74818176Y-44540707D01*
X74784366Y-44573256D01*
X74780877Y-44575521D01*
X74633758Y-44694658D01*
X74514624Y-44841773D01*
X74514623Y-44841775D01*
X74428684Y-45010444D01*
X74379687Y-45193298D01*
X74373500Y-45271923D01*
X74373500Y-45515546D01*
X74353815Y-45582585D01*
X74337181Y-45603227D01*
X73591208Y-46349199D01*
X73578951Y-46359020D01*
X73579134Y-46359241D01*
X73573123Y-46364213D01*
X73525772Y-46414636D01*
X73504889Y-46435519D01*
X73504877Y-46435532D01*
X73500621Y-46441017D01*
X73496837Y-46445447D01*
X73464937Y-46479418D01*
X73464936Y-46479420D01*
X73455284Y-46496976D01*
X73444610Y-46513226D01*
X73432329Y-46529061D01*
X73432324Y-46529068D01*
X73413815Y-46571838D01*
X73411245Y-46577084D01*
X73388803Y-46617906D01*
X73383822Y-46637307D01*
X73377521Y-46655710D01*
X73369562Y-46674102D01*
X73369561Y-46674105D01*
X73362271Y-46720127D01*
X73361087Y-46725846D01*
X73349501Y-46770972D01*
X73349500Y-46770982D01*
X73349500Y-46791016D01*
X73347973Y-46810415D01*
X73344840Y-46830194D01*
X73344840Y-46830195D01*
X73349225Y-46876583D01*
X73349500Y-46882421D01*
X73349500Y-63839546D01*
X73329815Y-63906585D01*
X73313181Y-63927227D01*
X70194998Y-67045409D01*
X70133675Y-67078894D01*
X70063983Y-67073910D01*
X70015168Y-67040701D01*
X69980877Y-67002617D01*
X69980869Y-67002610D01*
X69827734Y-66891351D01*
X69827729Y-66891348D01*
X69654807Y-66814357D01*
X69654802Y-66814355D01*
X69509001Y-66783365D01*
X69469646Y-66775000D01*
X69280354Y-66775000D01*
X69247897Y-66781898D01*
X69095197Y-66814355D01*
X69095192Y-66814357D01*
X68922270Y-66891348D01*
X68922265Y-66891351D01*
X68769130Y-67002610D01*
X68769126Y-67002614D01*
X68763400Y-67008974D01*
X68703913Y-67045621D01*
X68671252Y-67050000D01*
X50435953Y-67050000D01*
X50368914Y-67030315D01*
X50348272Y-67013681D01*
X49996272Y-66661681D01*
X49962787Y-66600358D01*
X49967771Y-66530666D01*
X50009643Y-66474733D01*
X50075107Y-66450316D01*
X50083953Y-66450000D01*
X50150000Y-66450000D01*
X50150000Y-65712301D01*
X50169685Y-65645262D01*
X50222489Y-65599507D01*
X50291647Y-65589563D01*
X50364237Y-65600000D01*
X50364238Y-65600000D01*
X50435762Y-65600000D01*
X50435763Y-65600000D01*
X50508352Y-65589563D01*
X50577510Y-65599507D01*
X50630314Y-65645261D01*
X50649999Y-65712301D01*
X50649999Y-66449999D01*
X50650001Y-66450000D01*
X51297828Y-66450000D01*
X51297844Y-66449999D01*
X51357372Y-66443598D01*
X51357379Y-66443596D01*
X51492086Y-66393354D01*
X51492093Y-66393350D01*
X51607187Y-66307190D01*
X51607190Y-66307187D01*
X51693350Y-66192093D01*
X51693354Y-66192086D01*
X51743596Y-66057379D01*
X51743598Y-66057372D01*
X51749999Y-65997844D01*
X51750000Y-65997827D01*
X51750000Y-65350000D01*
X51013347Y-65350000D01*
X50946308Y-65330315D01*
X50900553Y-65277511D01*
X50890609Y-65208353D01*
X50894369Y-65191067D01*
X50900000Y-65171888D01*
X50900000Y-65028111D01*
X50894369Y-65008933D01*
X50894370Y-64939064D01*
X50932145Y-64880286D01*
X50995701Y-64851262D01*
X51013347Y-64850000D01*
X51749999Y-64850000D01*
X51750000Y-64202172D01*
X51749999Y-64202155D01*
X51743598Y-64142627D01*
X51743596Y-64142620D01*
X51693354Y-64007913D01*
X51693350Y-64007906D01*
X51607190Y-63892812D01*
X51607187Y-63892809D01*
X51492093Y-63806649D01*
X51492086Y-63806645D01*
X51357379Y-63756403D01*
X51357372Y-63756401D01*
X51297844Y-63750000D01*
X50649999Y-63750000D01*
X50649999Y-64487698D01*
X50630314Y-64554738D01*
X50577510Y-64600492D01*
X50508353Y-64610436D01*
X50435764Y-64600000D01*
X50435763Y-64600000D01*
X50364237Y-64600000D01*
X50364233Y-64600000D01*
X50291645Y-64610436D01*
X50222487Y-64600492D01*
X50169684Y-64554736D01*
X50150000Y-64487698D01*
X50150000Y-63750000D01*
X49502155Y-63750000D01*
X49442627Y-63756401D01*
X49442620Y-63756403D01*
X49307913Y-63806645D01*
X49307911Y-63806646D01*
X49282423Y-63825727D01*
X49216958Y-63850143D01*
X49148685Y-63835291D01*
X49120432Y-63814140D01*
X49018473Y-63712181D01*
X48984988Y-63650858D01*
X48989972Y-63581166D01*
X49031844Y-63525233D01*
X49097308Y-63500816D01*
X49106154Y-63500500D01*
X70975240Y-63500500D01*
X70975383Y-63500528D01*
X70975384Y-63500524D01*
X70999997Y-63500539D01*
X71000000Y-63500541D01*
X71000383Y-63500383D01*
X71000500Y-63500099D01*
X71000541Y-63500000D01*
X71000540Y-63499997D01*
X71000583Y-63475889D01*
X71000500Y-63475467D01*
X71000500Y-39603480D01*
X71000890Y-39596538D01*
X71002687Y-39580586D01*
X71003470Y-39573645D01*
X71009113Y-39530778D01*
X71013933Y-39494163D01*
X71019830Y-39469399D01*
X71031775Y-39435262D01*
X71033001Y-39432047D01*
X71055474Y-39377794D01*
X71065021Y-39359313D01*
X71086922Y-39324459D01*
X71090197Y-39319752D01*
X71127003Y-39271786D01*
X71132323Y-39265718D01*
X71165718Y-39232323D01*
X71171786Y-39227003D01*
X71219752Y-39190197D01*
X71224459Y-39186922D01*
X71259313Y-39165021D01*
X71277794Y-39155474D01*
X71332047Y-39133001D01*
X71335253Y-39131778D01*
X71369402Y-39119829D01*
X71394163Y-39113933D01*
X71441020Y-39107764D01*
X71473646Y-39103470D01*
X71482632Y-39102456D01*
X71496545Y-39100889D01*
X71503481Y-39100500D01*
X77196518Y-39100500D01*
X77203455Y-39100889D01*
G37*
%TD.AperFunction*%
%TD*%
D31*
X92402300Y-63239300D03*
X31277500Y-83087500D03*
X49000000Y-83700900D03*
X69223600Y-83074400D03*
X72900000Y-69700000D03*
X73950000Y-43275000D03*
X41419349Y-66804229D03*
X73575000Y-41175000D03*
X84175000Y-64075000D03*
X69375000Y-67675500D03*
X76875000Y-63075000D03*
X78200000Y-68375000D03*
X33175000Y-70790400D03*
X94960000Y-60656800D03*
X95375000Y-79600000D03*
X88375000Y-79600000D03*
D32*
X85075000Y-77500000D03*
X93575000Y-81700000D03*
X90575000Y-81700000D03*
X86575000Y-81700000D03*
D31*
X73495000Y-79575000D03*
X72995000Y-75825000D03*
X67995000Y-79575000D03*
X67995000Y-73625000D03*
X62775000Y-83775000D03*
X62495000Y-79575000D03*
X54500000Y-79575000D03*
X54000000Y-75825000D03*
X49000000Y-79575000D03*
X49000000Y-73625000D03*
X43780000Y-83775000D03*
X43500000Y-79575000D03*
X35500000Y-79600000D03*
X35000000Y-75850000D03*
X30000000Y-79600000D03*
X30000000Y-73650000D03*
X24780000Y-83800000D03*
X24500000Y-79600000D03*
X50400000Y-65100000D03*
X47860000Y-65100000D03*
X45320000Y-65100000D03*
X42780000Y-65100000D03*
X40240000Y-65100000D03*
X37700000Y-65100000D03*
X35160000Y-65100000D03*
X32620000Y-65100000D03*
M02*
