%TF.GenerationSoftware,KiCad,Pcbnew,7.0.7*%
%TF.CreationDate,2024-08-20T00:07:21+09:00*%
%TF.ProjectId,trackmacro,74726163-6b6d-4616-9372-6f2e6b696361,rev?*%
%TF.SameCoordinates,Original*%
%TF.FileFunction,Profile,NP*%
%FSLAX46Y46*%
G04 Gerber Fmt 4.6, Leading zero omitted, Abs format (unit mm)*
G04 Created by KiCad (PCBNEW 7.0.7) date 2024-08-20 00:07:21*
%MOMM*%
%LPD*%
G01*
G04 APERTURE LIST*
%TA.AperFunction,Profile*%
%ADD10C,0.200000*%
%TD*%
G04 APERTURE END LIST*
D10*
X97000000Y-39600000D02*
X97000000Y-67100000D01*
X20000000Y-86100000D02*
X20000000Y-73100000D01*
X93500000Y-89600000D02*
G75*
G03*
X94000000Y-89100000I0J500000D01*
G01*
X97000000Y-73100000D02*
X97000000Y-86100000D01*
X91800000Y-39100000D02*
G75*
G03*
X91300000Y-39600000I0J-500000D01*
G01*
X20500000Y-72600000D02*
G75*
G03*
X20500000Y-67600000I0J2500000D01*
G01*
X20000000Y-67100000D02*
X20000000Y-64000000D01*
X71500000Y-39100000D02*
G75*
G03*
X71000000Y-39600000I0J-500000D01*
G01*
X97000000Y-39600000D02*
G75*
G03*
X96500000Y-39100000I-500000J0D01*
G01*
X77700000Y-39600000D02*
X77700000Y-57300000D01*
X23000000Y-89100000D02*
G75*
G03*
X20500000Y-86600000I-2500000J0D01*
G01*
X77700000Y-39600000D02*
G75*
G03*
X77200000Y-39100000I-500000J0D01*
G01*
X96500000Y-86600000D02*
G75*
G03*
X94000000Y-89100000I0J-2500000D01*
G01*
X91300000Y-57300000D02*
X91300000Y-39600000D01*
X96500000Y-67600000D02*
G75*
G03*
X96500000Y-72600000I0J-2500000D01*
G01*
X93500000Y-89600000D02*
X23500000Y-89600000D01*
X71000000Y-63500000D02*
X71000000Y-39600000D01*
X20500000Y-63500000D02*
X71000000Y-63500000D01*
X20000000Y-67100000D02*
G75*
G03*
X20500000Y-67600000I500000J0D01*
G01*
X20500000Y-72600000D02*
G75*
G03*
X20000000Y-73100000I0J-500000D01*
G01*
X71500000Y-39100000D02*
X77200000Y-39100000D01*
X23000000Y-89100000D02*
G75*
G03*
X23500000Y-89600000I500000J0D01*
G01*
X20000000Y-86100000D02*
G75*
G03*
X20500000Y-86600000I500000J0D01*
G01*
X97000000Y-73100000D02*
G75*
G03*
X96500000Y-72600000I-500000J0D01*
G01*
X96500000Y-86600000D02*
G75*
G03*
X97000000Y-86100000I0J500000D01*
G01*
X96500000Y-67600000D02*
G75*
G03*
X97000000Y-67100000I0J500000D01*
G01*
X91800000Y-39100000D02*
X96500000Y-39100000D01*
X77700000Y-57300000D02*
X91300000Y-57300000D01*
X20500000Y-63500000D02*
G75*
G03*
X20000000Y-64000000I0J-500000D01*
G01*
M02*
