%TF.GenerationSoftware,KiCad,Pcbnew,7.0.7*%
%TF.CreationDate,2024-08-20T00:07:21+09:00*%
%TF.ProjectId,trackmacro,74726163-6b6d-4616-9372-6f2e6b696361,rev?*%
%TF.SameCoordinates,Original*%
%TF.FileFunction,Soldermask,Bot*%
%TF.FilePolarity,Negative*%
%FSLAX46Y46*%
G04 Gerber Fmt 4.6, Leading zero omitted, Abs format (unit mm)*
G04 Created by KiCad (PCBNEW 7.0.7) date 2024-08-20 00:07:21*
%MOMM*%
%LPD*%
G01*
G04 APERTURE LIST*
G04 Aperture macros list*
%AMRoundRect*
0 Rectangle with rounded corners*
0 $1 Rounding radius*
0 $2 $3 $4 $5 $6 $7 $8 $9 X,Y pos of 4 corners*
0 Add a 4 corners polygon primitive as box body*
4,1,4,$2,$3,$4,$5,$6,$7,$8,$9,$2,$3,0*
0 Add four circle primitives for the rounded corners*
1,1,$1+$1,$2,$3*
1,1,$1+$1,$4,$5*
1,1,$1+$1,$6,$7*
1,1,$1+$1,$8,$9*
0 Add four rect primitives between the rounded corners*
20,1,$1+$1,$2,$3,$4,$5,0*
20,1,$1+$1,$4,$5,$6,$7,0*
20,1,$1+$1,$6,$7,$8,$9,0*
20,1,$1+$1,$8,$9,$2,$3,0*%
G04 Aperture macros list end*
%ADD10C,1.200000*%
%ADD11O,2.500000X1.700000*%
%ADD12C,1.701800*%
%ADD13C,3.000000*%
%ADD14C,4.950000*%
%ADD15C,0.990600*%
%ADD16R,2.600000X2.600000*%
%ADD17RoundRect,0.400000X-0.856000X-0.400000X0.856000X-0.400000X0.856000X0.400000X-0.856000X0.400000X0*%
%ADD18RoundRect,0.395000X-0.833700X-0.395000X0.833700X-0.395000X0.833700X0.395000X-0.833700X0.395000X0*%
%ADD19RoundRect,0.405000X-0.823700X-0.405000X0.823700X-0.405000X0.823700X0.405000X-0.823700X0.405000X0*%
%ADD20RoundRect,0.390000X-0.838700X-0.390000X0.838700X-0.390000X0.838700X0.390000X-0.838700X0.390000X0*%
%ADD21RoundRect,0.400000X-0.828700X-0.400000X0.828700X-0.400000X0.828700X0.400000X-0.828700X0.400000X0*%
%ADD22RoundRect,0.400050X-0.828650X-0.400050X0.828650X-0.400050X0.828650X0.400050X-0.828650X0.400050X0*%
%ADD23RoundRect,0.400050X-0.855950X-0.400050X0.855950X-0.400050X0.855950X0.400050X-0.855950X0.400050X0*%
%ADD24RoundRect,0.405025X-0.850975X-0.405025X0.850975X-0.405025X0.850975X0.405025X-0.850975X0.405025X0*%
%ADD25RoundRect,0.400050X-0.965950X-0.400050X0.965950X-0.400050X0.965950X0.400050X-0.965950X0.400050X0*%
%ADD26RoundRect,0.400000X-0.400000X-0.988000X0.400000X-0.988000X0.400000X0.988000X-0.400000X0.988000X0*%
%ADD27RoundRect,0.393700X-0.393700X-0.994300X0.393700X-0.994300X0.393700X0.994300X-0.393700X0.994300X0*%
%ADD28RoundRect,0.405025X-0.856975X-0.405025X0.856975X-0.405025X0.856975X0.405025X-0.856975X0.405025X0*%
%ADD29RoundRect,0.400050X-0.849950X-0.400050X0.849950X-0.400050X0.849950X0.400050X-0.849950X0.400050X0*%
%ADD30RoundRect,0.400050X-0.845950X-0.400050X0.845950X-0.400050X0.845950X0.400050X-0.845950X0.400050X0*%
%ADD31RoundRect,0.415025X-0.834975X-0.415025X0.834975X-0.415025X0.834975X0.415025X-0.834975X0.415025X0*%
%ADD32R,1.700000X1.700000*%
%ADD33O,1.700000X1.700000*%
G04 APERTURE END LIST*
D10*
%TO.C,J1*%
X95375000Y-79600000D03*
X88375000Y-79600000D03*
D11*
X85075000Y-77500000D03*
X93575000Y-81700000D03*
X90575000Y-81700000D03*
X86575000Y-81700000D03*
%TD*%
D12*
%TO.C,SW3*%
X73495000Y-79575000D03*
D13*
X72995000Y-75825000D03*
D14*
X67995000Y-79575000D03*
D13*
X67995000Y-73625000D03*
D15*
X62775000Y-83775000D03*
D12*
X62495000Y-79575000D03*
D16*
X64720000Y-73625000D03*
X76270000Y-75825000D03*
%TD*%
D12*
%TO.C,SW2*%
X54500000Y-79575000D03*
D13*
X54000000Y-75825000D03*
D14*
X49000000Y-79575000D03*
D13*
X49000000Y-73625000D03*
D15*
X43780000Y-83775000D03*
D12*
X43500000Y-79575000D03*
D16*
X45725000Y-73625000D03*
X57275000Y-75825000D03*
%TD*%
D12*
%TO.C,SW1*%
X35500000Y-79600000D03*
D13*
X35000000Y-75850000D03*
D14*
X30000000Y-79600000D03*
D13*
X30000000Y-73650000D03*
D15*
X24780000Y-83800000D03*
D12*
X24500000Y-79600000D03*
D16*
X26725000Y-73650000D03*
X38275000Y-75850000D03*
%TD*%
D17*
%TO.C,RZ1*%
X92926000Y-40655000D03*
D18*
X92953300Y-43205000D03*
D19*
X92953300Y-45725000D03*
D20*
X92953300Y-48295000D03*
D21*
X92953300Y-50815000D03*
D22*
X92953300Y-53355000D03*
D23*
X92926000Y-55895000D03*
D24*
X92926000Y-58425050D03*
D25*
X92816000Y-60975000D03*
D26*
X89610000Y-61873000D03*
D27*
X87070000Y-61873000D03*
X84530000Y-61873000D03*
X81990000Y-61873000D03*
X79450000Y-61873000D03*
D25*
X76244000Y-60975000D03*
D28*
X76232000Y-58425050D03*
D29*
X76124000Y-55895000D03*
X76124000Y-53355000D03*
D30*
X76124000Y-50815000D03*
D31*
X76124000Y-48245050D03*
D29*
X76124000Y-45735000D03*
X76106700Y-43195000D03*
X76124000Y-40655000D03*
%TD*%
D32*
%TO.C,J2*%
X50400000Y-65100000D03*
D33*
X47860000Y-65100000D03*
X45320000Y-65100000D03*
X42780000Y-65100000D03*
X40240000Y-65100000D03*
X37700000Y-65100000D03*
X35160000Y-65100000D03*
X32620000Y-65100000D03*
%TD*%
M02*
