M48
; DRILL file {KiCad 7.0.7} date Fri Aug 30 08:21:23 2024
; FORMAT={-:-/ absolute / metric / decimal}
; #@! TF.CreationDate,2024-08-30T08:21:23+09:00
; #@! TF.GenerationSoftware,Kicad,Pcbnew,7.0.7
; #@! TF.FileFunction,MixedPlating,1,2
FMAT,2
METRIC
; #@! TA.AperFunction,Plated,PTH,ViaDrill
T1C0.400
; #@! TA.AperFunction,Plated,PTH,ComponentDrill
T2C1.000
; #@! TA.AperFunction,NonPlated,NPTH,ComponentDrill
T3C0.991
; #@! TA.AperFunction,NonPlated,NPTH,ComponentDrill
T4C1.200
; #@! TA.AperFunction,NonPlated,NPTH,ComponentDrill
T5C1.702
; #@! TA.AperFunction,NonPlated,NPTH,ComponentDrill
T6C3.000
; #@! TA.AperFunction,NonPlated,NPTH,ComponentDrill
T7C4.950
; #@! TA.AperFunction,NonPlated,NPTH,ComponentDrill
T8C5.000
%
G90
G05
T1
X32.125Y-102.025
X33.175Y-122.175
X53.1Y-122.075
X81.125Y-115.175
X86.35Y-50.025
X86.45Y-46.725
X87.625Y-41.65
X88.3Y-61.05
X89.35Y-40.75
X97.35Y-90.925
X98.425Y-74.1
X98.55Y-57.125
X101.65Y-109.6
X102.075Y-54.775
X104.65Y-45.225
X105.2Y-53.775
X105.661Y-82.806
X115.2Y-90.225
X116.775Y-71.55
X118.0Y-45.925
X119.125Y-60.775
X120.1Y-53.575
X124.675Y-57.025
X124.75Y-44.875
X127.95Y-57.025
X130.725Y-54.175
X133.275Y-41.274
X133.3Y-57.375
X135.05Y-67.975
X135.5Y-48.0
X135.625Y-85.325
X137.35Y-53.85
X138.375Y-68.0
X140.175Y-49.375
X141.588Y-49.155
X142.575Y-47.55
X142.925Y-54.425
X148.775Y-50.374
X149.225Y-47.3
X150.024Y-53.887
X151.675Y-77.75
X152.275Y-50.7
X153.25Y-72.475
X153.8Y-89.65
X154.025Y-77.2
X154.2Y-48.85
X154.45Y-62.225
X154.875Y-56.1
X155.05Y-45.575
X155.262Y-58.388
X155.475Y-47.325
X158.725Y-73.775
X159.3Y-61.2
X160.475Y-56.875
X163.075Y-56.6
X165.225Y-62.05
X165.625Y-56.925
X168.075Y-106.2
X169.975Y-89.275
X172.375Y-59.225
X175.625Y-54.575
X175.925Y-51.575
X176.2Y-49.0
X176.35Y-45.775
T2
X57.811Y-96.939
X60.113Y-95.866
X62.415Y-94.792
X64.717Y-93.719
X67.019Y-92.645
X69.321Y-91.572
X71.623Y-90.498
X73.925Y-89.425
T3
X21.805Y-121.75
X21.83Y-101.75
X41.805Y-121.775
X70.572Y-119.98
X86.755Y-56.8
X86.755Y-73.825
X86.785Y-90.8
X90.272Y-110.331
X104.755Y-89.95
X104.76Y-55.95
X104.805Y-72.95
X122.755Y-86.55
X122.78Y-52.575
X122.785Y-69.55
X140.755Y-73.8
X140.755Y-90.8
X151.195Y-48.4
X158.778Y-105.304
X159.701Y-88.309
X171.4Y-63.5
T4
X81.6Y-39.25
X88.6Y-39.25
T5
X21.525Y-117.55
X21.55Y-97.55
X32.525Y-117.55
X32.55Y-97.55
X41.525Y-117.575
X52.525Y-117.575
X68.544Y-116.292
X78.513Y-111.643
X86.475Y-52.6
X86.475Y-69.625
X86.505Y-86.6
X89.627Y-106.171
X97.475Y-52.6
X97.475Y-69.625
X97.505Y-86.6
X100.585Y-105.213
X104.475Y-85.75
X104.48Y-51.75
X104.525Y-68.75
X115.475Y-85.75
X115.48Y-51.75
X115.525Y-68.75
X122.475Y-82.35
X122.5Y-48.375
X122.505Y-65.35
X133.475Y-82.35
X133.5Y-48.375
X133.505Y-65.35
X140.475Y-52.6
X140.475Y-69.6
X140.475Y-86.6
X151.475Y-52.6
X151.475Y-69.6
X151.475Y-86.6
X158.718Y-101.095
X159.642Y-84.1
X160.475Y-67.133
X169.703Y-101.671
X170.627Y-84.676
X171.46Y-67.709
T6
X27.025Y-111.6
X27.05Y-91.6
X32.025Y-113.8
X32.05Y-93.8
X47.025Y-111.625
X52.025Y-113.825
X71.014Y-108.575
X76.475Y-108.456
X91.975Y-46.65
X91.975Y-63.675
X92.005Y-80.65
X94.588Y-99.765
X96.975Y-48.85
X96.975Y-65.875
X97.005Y-82.85
X99.76Y-101.52
X109.975Y-79.8
X109.98Y-45.8
X110.025Y-62.8
X114.975Y-82.0
X114.98Y-48.0
X115.025Y-65.0
X127.975Y-76.4
X128.0Y-42.425
X128.005Y-59.4
X132.975Y-78.6
X133.0Y-44.625
X133.005Y-61.6
X140.975Y-56.35
X145.975Y-58.55
X145.975Y-63.65
X145.975Y-80.65
X150.975Y-65.85
X150.975Y-82.85
X160.778Y-70.904
X164.522Y-95.441
X165.446Y-78.446
X165.656Y-73.363
X169.4Y-97.9
X170.324Y-80.905
T7
X27.025Y-117.55
X27.05Y-97.55
X47.025Y-117.575
X73.528Y-113.968
X91.975Y-52.6
X91.975Y-69.625
X92.005Y-86.6
X95.106Y-105.692
X109.975Y-85.75
X109.98Y-51.75
X110.025Y-68.75
X127.975Y-82.35
X128.0Y-48.375
X128.005Y-65.35
X145.975Y-52.6
X145.975Y-69.6
X145.975Y-86.6
X164.211Y-101.383
X165.134Y-84.388
X165.967Y-67.421
T8
X82.5Y-99.3
T2
G00X83.15Y-37.15
M15
G01X83.65Y-37.15
M16
G05
G00X86.15Y-37.15
M15
G01X86.65Y-37.15
M16
G05
G00X90.15Y-37.15
M15
G01X90.65Y-37.15
M16
G05
G00X91.65Y-41.35
M15
G01X92.15Y-41.35
M16
G05
T0
M30
