%TF.GenerationSoftware,KiCad,Pcbnew,7.0.7*%
%TF.CreationDate,2024-10-06T22:50:34+09:00*%
%TF.ProjectId,evoroll,65766f72-6f6c-46c2-9e6b-696361645f70,rev?*%
%TF.SameCoordinates,Original*%
%TF.FileFunction,Soldermask,Top*%
%TF.FilePolarity,Negative*%
%FSLAX46Y46*%
G04 Gerber Fmt 4.6, Leading zero omitted, Abs format (unit mm)*
G04 Created by KiCad (PCBNEW 7.0.7) date 2024-10-06 22:50:34*
%MOMM*%
%LPD*%
G01*
G04 APERTURE LIST*
G04 Aperture macros list*
%AMRotRect*
0 Rectangle, with rotation*
0 The origin of the aperture is its center*
0 $1 length*
0 $2 width*
0 $3 Rotation angle, in degrees counterclockwise*
0 Add horizontal line*
21,1,$1,$2,0,0,$3*%
%AMOutline5P*
0 Free polygon, 5 corners , with rotation*
0 The origin of the aperture is its center*
0 number of corners: always 5*
0 $1 to $10 corner X, Y*
0 $11 Rotation angle, in degrees counterclockwise*
0 create outline with 5 corners*
4,1,5,$1,$2,$3,$4,$5,$6,$7,$8,$9,$10,$1,$2,$11*%
%AMOutline6P*
0 Free polygon, 6 corners , with rotation*
0 The origin of the aperture is its center*
0 number of corners: always 6*
0 $1 to $12 corner X, Y*
0 $13 Rotation angle, in degrees counterclockwise*
0 create outline with 6 corners*
4,1,6,$1,$2,$3,$4,$5,$6,$7,$8,$9,$10,$11,$12,$1,$2,$13*%
%AMOutline7P*
0 Free polygon, 7 corners , with rotation*
0 The origin of the aperture is its center*
0 number of corners: always 7*
0 $1 to $14 corner X, Y*
0 $15 Rotation angle, in degrees counterclockwise*
0 create outline with 7 corners*
4,1,7,$1,$2,$3,$4,$5,$6,$7,$8,$9,$10,$11,$12,$13,$14,$1,$2,$15*%
%AMOutline8P*
0 Free polygon, 8 corners , with rotation*
0 The origin of the aperture is its center*
0 number of corners: always 8*
0 $1 to $16 corner X, Y*
0 $17 Rotation angle, in degrees counterclockwise*
0 create outline with 8 corners*
4,1,8,$1,$2,$3,$4,$5,$6,$7,$8,$9,$10,$11,$12,$13,$14,$15,$16,$1,$2,$17*%
G04 Aperture macros list end*
%ADD10R,1.300000X0.950000*%
%ADD11C,1.701800*%
%ADD12C,3.000000*%
%ADD13C,4.950000*%
%ADD14C,5.000000*%
%ADD15Outline5P,-0.850000X0.510000X-0.510000X0.850000X0.850000X0.850000X0.850000X-0.850000X-0.850000X-0.850000X270.000000*%
%ADD16O,1.700000X1.700000*%
%ADD17RotRect,1.300000X0.950000X5.000000*%
%ADD18C,1.200000*%
%ADD19O,2.500000X1.700000*%
%ADD20O,2.400000X1.500000*%
%ADD21RotRect,1.300000X0.950000X357.000000*%
%ADD22RotRect,1.300000X0.950000X25.000000*%
G04 APERTURE END LIST*
D10*
%TO.C,D10*%
X87875000Y-74275000D03*
X91425000Y-74275000D03*
%TD*%
D11*
%TO.C,SW15*%
X31025000Y-80750000D03*
D12*
X30525000Y-77000000D03*
D13*
X25525000Y-80750000D03*
D12*
X25525000Y-74800000D03*
D11*
X20025000Y-80750000D03*
%TD*%
%TO.C,SW1*%
X95150000Y-35375000D03*
D12*
X94650000Y-31625000D03*
D13*
X89650000Y-35375000D03*
D12*
X89650000Y-29425000D03*
D11*
X84150000Y-35375000D03*
%TD*%
D10*
%TO.C,D1*%
X87875000Y-40150000D03*
X91425000Y-40150000D03*
%TD*%
%TO.C,D6*%
X105925000Y-56300000D03*
X109475000Y-56300000D03*
%TD*%
D14*
%TO.C,Ref\u002A\u002A*%
X23525000Y-57475000D03*
%TD*%
D11*
%TO.C,SW12*%
X131125000Y-65125000D03*
D12*
X130625000Y-61375000D03*
D13*
X125625000Y-65125000D03*
D12*
X125625000Y-59175000D03*
D11*
X120125000Y-65125000D03*
%TD*%
%TO.C,SW19*%
X98272648Y-87998001D03*
D12*
X97447716Y-84305849D03*
D13*
X92793577Y-88477358D03*
D12*
X92275000Y-82550000D03*
D11*
X87314506Y-88956715D03*
%TD*%
%TO.C,SW16*%
X31075000Y-100725000D03*
D12*
X30575000Y-96975000D03*
D13*
X25575000Y-100725000D03*
D12*
X25575000Y-94775000D03*
D11*
X20075000Y-100725000D03*
%TD*%
%TO.C,SW3*%
X131175000Y-31125000D03*
D12*
X130675000Y-27375000D03*
D13*
X125675000Y-31125000D03*
D12*
X125675000Y-25175000D03*
D11*
X120175000Y-31125000D03*
%TD*%
%TO.C,SW10*%
X95150000Y-69375000D03*
D12*
X94650000Y-65625000D03*
D13*
X89650000Y-69375000D03*
D12*
X89650000Y-63425000D03*
D11*
X84150000Y-69375000D03*
%TD*%
D15*
%TO.C,J1*%
X61430000Y-76725000D03*
D16*
X58890000Y-76725000D03*
X56350000Y-76725000D03*
X53810000Y-76725000D03*
X51270000Y-76725000D03*
X48730000Y-76725000D03*
X46190000Y-76725000D03*
X43650000Y-76725000D03*
%TD*%
D17*
%TO.C,D19*%
X91431754Y-93279701D03*
X94968246Y-92970299D03*
%TD*%
D10*
%TO.C,D12*%
X123825000Y-69925000D03*
X127375000Y-69925000D03*
%TD*%
%TO.C,D16*%
X23800000Y-105500000D03*
X27350000Y-105500000D03*
%TD*%
D18*
%TO.C,J2*%
X17625000Y-65600000D03*
X24625000Y-65600000D03*
D19*
X27925000Y-67700000D03*
D20*
X19425000Y-63500000D03*
X22425000Y-63500000D03*
X26425000Y-63500000D03*
%TD*%
D11*
%TO.C,SW6*%
X113150000Y-51525000D03*
D12*
X112650000Y-47775000D03*
D13*
X107650000Y-51525000D03*
D12*
X107650000Y-45575000D03*
D11*
X102150000Y-51525000D03*
%TD*%
%TO.C,SW2*%
X113125000Y-34525000D03*
D12*
X112625000Y-30775000D03*
D13*
X107625000Y-34525000D03*
D12*
X107625000Y-28575000D03*
D11*
X102125000Y-34525000D03*
%TD*%
D10*
%TO.C,D5*%
X87850000Y-57150000D03*
X91400000Y-57150000D03*
%TD*%
D11*
%TO.C,SW13*%
X149150000Y-69400000D03*
D12*
X148650000Y-65650000D03*
D13*
X143650000Y-69400000D03*
D12*
X143650000Y-63450000D03*
D11*
X138150000Y-69400000D03*
%TD*%
D10*
%TO.C,D7*%
X123875000Y-52825000D03*
X127425000Y-52825000D03*
%TD*%
D11*
%TO.C,SW9*%
X157241651Y-66875398D03*
D12*
X157544705Y-70646427D03*
D13*
X162734113Y-67163246D03*
D12*
X162422714Y-73105092D03*
D11*
X168226575Y-67451094D03*
%TD*%
D21*
%TO.C,D9*%
X161227433Y-62807104D03*
X164772567Y-62992896D03*
%TD*%
D11*
%TO.C,SW5*%
X95125000Y-52350000D03*
D12*
X94625000Y-48600000D03*
D13*
X89625000Y-52350000D03*
D12*
X89625000Y-46400000D03*
D11*
X84125000Y-52350000D03*
%TD*%
D10*
%TO.C,D8*%
X142025000Y-47416790D03*
X145575000Y-47416790D03*
%TD*%
%TO.C,D4*%
X141875000Y-40083211D03*
X145425000Y-40083211D03*
%TD*%
%TO.C,D2*%
X105875000Y-39208211D03*
X109425000Y-39208211D03*
%TD*%
D11*
%TO.C,SW17*%
X51025000Y-100725000D03*
D12*
X50525000Y-96975000D03*
D13*
X45525000Y-100725000D03*
D12*
X45525000Y-94775000D03*
D11*
X40025000Y-100725000D03*
%TD*%
D10*
%TO.C,D15*%
X23775000Y-85650000D03*
X27325000Y-85650000D03*
%TD*%
D22*
%TO.C,D18*%
X70866304Y-99525147D03*
X74083696Y-98024853D03*
%TD*%
D21*
%TO.C,D14*%
X159852433Y-88882104D03*
X163397567Y-89067896D03*
%TD*%
D11*
%TO.C,SW7*%
X131125000Y-48125000D03*
D12*
X130625000Y-44375000D03*
D13*
X125625000Y-48125000D03*
D12*
X125625000Y-42175000D03*
D11*
X120125000Y-48125000D03*
%TD*%
D10*
%TO.C,D17*%
X43750000Y-105550000D03*
X47300000Y-105550000D03*
%TD*%
D11*
%TO.C,SW11*%
X113150000Y-68525000D03*
D12*
X112650000Y-64775000D03*
D13*
X107650000Y-68525000D03*
D12*
X107650000Y-62575000D03*
D11*
X102150000Y-68525000D03*
%TD*%
D10*
%TO.C,D13*%
X141900000Y-74308211D03*
X145450000Y-74308211D03*
%TD*%
%TO.C,D11*%
X105900000Y-73200000D03*
X109450000Y-73200000D03*
%TD*%
D14*
%TO.C,Ref\u002A\u002A*%
X52525000Y-86750000D03*
%TD*%
D11*
%TO.C,SW4*%
X149150000Y-35350000D03*
D12*
X148650000Y-31600000D03*
D13*
X143650000Y-35350000D03*
D12*
X143650000Y-29400000D03*
D11*
X138150000Y-35350000D03*
%TD*%
%TO.C,SW14*%
X167356063Y-84454694D03*
D12*
X167053009Y-80683665D03*
D13*
X161863601Y-84166846D03*
D12*
X162175000Y-78225000D03*
D11*
X156371139Y-83878998D03*
%TD*%
D10*
%TO.C,D3*%
X123925000Y-35733211D03*
X127475000Y-35733211D03*
%TD*%
D11*
%TO.C,SW8*%
X138275000Y-52225000D03*
D12*
X138775000Y-55975000D03*
D13*
X143775000Y-52225000D03*
D12*
X143775000Y-58175000D03*
D11*
X149275000Y-52225000D03*
%TD*%
%TO.C,SW18*%
X75424272Y-92118131D03*
D12*
X73386299Y-88930785D03*
D13*
X70439579Y-94442531D03*
D12*
X67925000Y-89050000D03*
D11*
X65454886Y-96766931D03*
%TD*%
M02*
