M48
; DRILL file {KiCad 7.0.7} date Sun Oct  6 22:50:34 2024
; FORMAT={-:-/ absolute / metric / decimal}
; #@! TF.CreationDate,2024-10-06T22:50:34+09:00
; #@! TF.GenerationSoftware,Kicad,Pcbnew,7.0.7
; #@! TF.FileFunction,Plated,1,2,PTH
FMAT,2
METRIC
; #@! TA.AperFunction,Plated,PTH,ViaDrill
T1C0.400
; #@! TA.AperFunction,Plated,PTH,ComponentDrill
T2C1.000
%
G90
G05
T1
X22.625Y-72.025
X33.6Y-104.2
X34.0Y-78.425
X35.225Y-91.1
X36.15Y-74.575
X42.6Y-92.975
X46.038Y-90.312
X46.257Y-87.693
X47.3Y-89.125
X48.341Y-89.856
X53.075Y-104.65
X56.475Y-89.625
X65.447Y-93.122
X78.425Y-86.575
X78.675Y-87.825
X83.475Y-59.4
X84.4Y-49.3
X85.425Y-31.95
X86.375Y-42.425
X97.675Y-63.5
X97.75Y-35.3
X98.05Y-67.45
X98.1Y-55.675
X100.55Y-48.625
X101.0Y-87.15
X102.1Y-61.344
X103.775Y-41.25
X103.825Y-31.2
X104.35Y-43.35
X115.125Y-36.05
X115.3Y-55.475
X115.575Y-69.875
X116.5Y-26.775
X119.425Y-42.525
X120.7Y-55.8
X122.05Y-28.5
X133.55Y-49.075
X133.675Y-34.25
X135.525Y-73.95
X136.05Y-64.875
X136.05Y-41.0
X136.3Y-33.5
X140.096Y-47.421
X140.375Y-61.075
X141.2Y-44.025
X150.275Y-67.75
X151.475Y-33.725
X151.825Y-62.0
X153.8Y-72.725
X154.65Y-68.3
X155.15Y-76.825
X158.5Y-73.075
X161.95Y-56.525
X164.0Y-56.55
X167.275Y-76.825
X168.25Y-40.6
X168.9Y-64.225
X169.242Y-52.535
X169.594Y-47.466
X169.725Y-86.6
T2
X43.65Y-76.725
X46.19Y-76.725
X48.73Y-76.725
X51.27Y-76.725
X53.81Y-76.725
X56.35Y-76.725
X58.89Y-76.725
X61.43Y-76.725
T2
G00X19.175Y-63.5
M15
G01X19.675Y-63.5
M16
G05
G00X22.175Y-63.5
M15
G01X22.675Y-63.5
M16
G05
G00X26.175Y-63.5
M15
G01X26.675Y-63.5
M16
G05
G00X27.675Y-67.7
M15
G01X28.175Y-67.7
M16
G05
T0
M30
