M48
METRIC,TZ
T1C0.400
T2C1.000
%
G90
G05
T1
X31278Y-83087
X33175Y-70790
X41419Y-66804
X49000Y-83701
X69224Y-83074
X69375Y-67676
X72900Y-69700
X73575Y-41175
X73950Y-43275
X76875Y-63075
X78200Y-68375
X84175Y-64075
X92402Y-63239
X94960Y-60657
T2
X32620Y-65100
X35160Y-65100
X37700Y-65100
X40240Y-65100
X42780Y-65100
X45320Y-65100
X47860Y-65100
X50400Y-65100
T2
G00X85325Y-77500
M15
G01X84825Y-77500
M16
G05
G00X86825Y-81700
M15
G01X86325Y-81700
M16
G05
G00X90825Y-81700
M15
G01X90325Y-81700
M16
G05
G00X93825Y-81700
M15
G01X93325Y-81700
M16
G05
T0
M30
