M48
METRIC,TZ
T1C0.991
T2C1.200
T3C1.702
T4C3.000
T5C4.950
%
G90
G05
T1
X24780Y-83800
X43780Y-83775
X62775Y-83775
T2
X88375Y-79600
X95375Y-79600
T3
X24500Y-79600
X35500Y-79600
X43500Y-79575
X54500Y-79575
X62495Y-79575
X73495Y-79575
T4
X30000Y-73650
X35000Y-75850
X49000Y-73625
X54000Y-75825
X67995Y-73625
X72995Y-75825
T5
X30000Y-79600
X49000Y-79575
X67995Y-79575
T0
M30
