%TF.GenerationSoftware,KiCad,Pcbnew,7.0.7*%
%TF.CreationDate,2024-10-24T22:54:23+09:00*%
%TF.ProjectId,evoroll,65766f72-6f6c-46c2-9e6b-696361645f70,rev?*%
%TF.SameCoordinates,Original*%
%TF.FileFunction,Legend,Top*%
%TF.FilePolarity,Positive*%
%FSLAX46Y46*%
G04 Gerber Fmt 4.6, Leading zero omitted, Abs format (unit mm)*
G04 Created by KiCad (PCBNEW 7.0.7) date 2024-10-24 22:54:23*
%MOMM*%
%LPD*%
G01*
G04 APERTURE LIST*
%ADD10C,0.080000*%
%ADD11C,0.150000*%
%ADD12C,0.100000*%
%ADD13C,0.350000*%
%ADD14O,1.500000X1.000000*%
G04 APERTURE END LIST*
D10*
X105468107Y-75097935D02*
X105468107Y-74564601D01*
X105468107Y-74716982D02*
X105506202Y-74640792D01*
X105506202Y-74640792D02*
X105544297Y-74602697D01*
X105544297Y-74602697D02*
X105620488Y-74564601D01*
X105620488Y-74564601D02*
X105696678Y-74564601D01*
X105925249Y-74374125D02*
X105963345Y-74336030D01*
X105963345Y-74336030D02*
X106039535Y-74297935D01*
X106039535Y-74297935D02*
X106230011Y-74297935D01*
X106230011Y-74297935D02*
X106306202Y-74336030D01*
X106306202Y-74336030D02*
X106344297Y-74374125D01*
X106344297Y-74374125D02*
X106382392Y-74450316D01*
X106382392Y-74450316D02*
X106382392Y-74526506D01*
X106382392Y-74526506D02*
X106344297Y-74640792D01*
X106344297Y-74640792D02*
X105887154Y-75097935D01*
X105887154Y-75097935D02*
X106382392Y-75097935D01*
X123493107Y-54622935D02*
X123493107Y-54089601D01*
X123493107Y-54241982D02*
X123531202Y-54165792D01*
X123531202Y-54165792D02*
X123569297Y-54127697D01*
X123569297Y-54127697D02*
X123645488Y-54089601D01*
X123645488Y-54089601D02*
X123721678Y-54089601D01*
X124407392Y-54622935D02*
X123950249Y-54622935D01*
X124178821Y-54622935D02*
X124178821Y-53822935D01*
X124178821Y-53822935D02*
X124102630Y-53937220D01*
X124102630Y-53937220D02*
X124026440Y-54013411D01*
X124026440Y-54013411D02*
X123950249Y-54051506D01*
X159818107Y-64497935D02*
X159818107Y-63964601D01*
X159818107Y-64116982D02*
X159856202Y-64040792D01*
X159856202Y-64040792D02*
X159894297Y-64002697D01*
X159894297Y-64002697D02*
X159970488Y-63964601D01*
X159970488Y-63964601D02*
X160046678Y-63964601D01*
X160732392Y-64497935D02*
X160275249Y-64497935D01*
X160503821Y-64497935D02*
X160503821Y-63697935D01*
X160503821Y-63697935D02*
X160427630Y-63812220D01*
X160427630Y-63812220D02*
X160351440Y-63888411D01*
X160351440Y-63888411D02*
X160275249Y-63926506D01*
X105593107Y-40972935D02*
X105593107Y-40439601D01*
X105593107Y-40591982D02*
X105631202Y-40515792D01*
X105631202Y-40515792D02*
X105669297Y-40477697D01*
X105669297Y-40477697D02*
X105745488Y-40439601D01*
X105745488Y-40439601D02*
X105821678Y-40439601D01*
X106240726Y-40172935D02*
X106316916Y-40172935D01*
X106316916Y-40172935D02*
X106393107Y-40211030D01*
X106393107Y-40211030D02*
X106431202Y-40249125D01*
X106431202Y-40249125D02*
X106469297Y-40325316D01*
X106469297Y-40325316D02*
X106507392Y-40477697D01*
X106507392Y-40477697D02*
X106507392Y-40668173D01*
X106507392Y-40668173D02*
X106469297Y-40820554D01*
X106469297Y-40820554D02*
X106431202Y-40896744D01*
X106431202Y-40896744D02*
X106393107Y-40934840D01*
X106393107Y-40934840D02*
X106316916Y-40972935D01*
X106316916Y-40972935D02*
X106240726Y-40972935D01*
X106240726Y-40972935D02*
X106164535Y-40934840D01*
X106164535Y-40934840D02*
X106126440Y-40896744D01*
X106126440Y-40896744D02*
X106088345Y-40820554D01*
X106088345Y-40820554D02*
X106050249Y-40668173D01*
X106050249Y-40668173D02*
X106050249Y-40477697D01*
X106050249Y-40477697D02*
X106088345Y-40325316D01*
X106088345Y-40325316D02*
X106126440Y-40249125D01*
X106126440Y-40249125D02*
X106164535Y-40211030D01*
X106164535Y-40211030D02*
X106240726Y-40172935D01*
X23393107Y-87422935D02*
X23393107Y-86889601D01*
X23393107Y-87041982D02*
X23431202Y-86965792D01*
X23431202Y-86965792D02*
X23469297Y-86927697D01*
X23469297Y-86927697D02*
X23545488Y-86889601D01*
X23545488Y-86889601D02*
X23621678Y-86889601D01*
X23812154Y-86622935D02*
X24307392Y-86622935D01*
X24307392Y-86622935D02*
X24040726Y-86927697D01*
X24040726Y-86927697D02*
X24155011Y-86927697D01*
X24155011Y-86927697D02*
X24231202Y-86965792D01*
X24231202Y-86965792D02*
X24269297Y-87003887D01*
X24269297Y-87003887D02*
X24307392Y-87080078D01*
X24307392Y-87080078D02*
X24307392Y-87270554D01*
X24307392Y-87270554D02*
X24269297Y-87346744D01*
X24269297Y-87346744D02*
X24231202Y-87384840D01*
X24231202Y-87384840D02*
X24155011Y-87422935D01*
X24155011Y-87422935D02*
X23926440Y-87422935D01*
X23926440Y-87422935D02*
X23850249Y-87384840D01*
X23850249Y-87384840D02*
X23812154Y-87346744D01*
X141693107Y-49122935D02*
X141693107Y-48589601D01*
X141693107Y-48741982D02*
X141731202Y-48665792D01*
X141731202Y-48665792D02*
X141769297Y-48627697D01*
X141769297Y-48627697D02*
X141845488Y-48589601D01*
X141845488Y-48589601D02*
X141921678Y-48589601D01*
X142607392Y-49122935D02*
X142150249Y-49122935D01*
X142378821Y-49122935D02*
X142378821Y-48322935D01*
X142378821Y-48322935D02*
X142302630Y-48437220D01*
X142302630Y-48437220D02*
X142226440Y-48513411D01*
X142226440Y-48513411D02*
X142150249Y-48551506D01*
X71302195Y-101329756D02*
X71076799Y-100846392D01*
X71141198Y-100984496D02*
X71143524Y-100899344D01*
X71143524Y-100899344D02*
X71161950Y-100848718D01*
X71161950Y-100848718D02*
X71214903Y-100781993D01*
X71214903Y-100781993D02*
X71283955Y-100749793D01*
X71343886Y-100427613D02*
X71792725Y-100218316D01*
X71792725Y-100218316D02*
X71679840Y-100607222D01*
X71679840Y-100607222D02*
X71783418Y-100558923D01*
X71783418Y-100558923D02*
X71868570Y-100561249D01*
X71868570Y-100561249D02*
X71919196Y-100579676D01*
X71919196Y-100579676D02*
X71985921Y-100632628D01*
X71985921Y-100632628D02*
X72066420Y-100805258D01*
X72066420Y-100805258D02*
X72064094Y-100890410D01*
X72064094Y-100890410D02*
X72045667Y-100941036D01*
X72045667Y-100941036D02*
X71992715Y-101007761D01*
X71992715Y-101007761D02*
X71785559Y-101104360D01*
X71785559Y-101104360D02*
X71700407Y-101102033D01*
X71700407Y-101102033D02*
X71649782Y-101083607D01*
X91183286Y-95127135D02*
X91136803Y-94595831D01*
X91150084Y-94747632D02*
X91181394Y-94668411D01*
X91181394Y-94668411D02*
X91216024Y-94627141D01*
X91216024Y-94627141D02*
X91288604Y-94582550D01*
X91288604Y-94582550D02*
X91364505Y-94575910D01*
X91531014Y-94293657D02*
X92024368Y-94250494D01*
X92024368Y-94250494D02*
X91785278Y-94577338D01*
X91785278Y-94577338D02*
X91899129Y-94567377D01*
X91899129Y-94567377D02*
X91978349Y-94598687D01*
X91978349Y-94598687D02*
X92019620Y-94633317D01*
X92019620Y-94633317D02*
X92064211Y-94705897D01*
X92064211Y-94705897D02*
X92080812Y-94895649D01*
X92080812Y-94895649D02*
X92049502Y-94974869D01*
X92049502Y-94974869D02*
X92014872Y-95016140D01*
X92014872Y-95016140D02*
X91942291Y-95060731D01*
X91942291Y-95060731D02*
X91714590Y-95080652D01*
X91714590Y-95080652D02*
X91635369Y-95049342D01*
X91635369Y-95049342D02*
X91594099Y-95014712D01*
X87368107Y-76097935D02*
X87368107Y-75564601D01*
X87368107Y-75716982D02*
X87406202Y-75640792D01*
X87406202Y-75640792D02*
X87444297Y-75602697D01*
X87444297Y-75602697D02*
X87520488Y-75564601D01*
X87520488Y-75564601D02*
X87596678Y-75564601D01*
X87825249Y-75374125D02*
X87863345Y-75336030D01*
X87863345Y-75336030D02*
X87939535Y-75297935D01*
X87939535Y-75297935D02*
X88130011Y-75297935D01*
X88130011Y-75297935D02*
X88206202Y-75336030D01*
X88206202Y-75336030D02*
X88244297Y-75374125D01*
X88244297Y-75374125D02*
X88282392Y-75450316D01*
X88282392Y-75450316D02*
X88282392Y-75526506D01*
X88282392Y-75526506D02*
X88244297Y-75640792D01*
X88244297Y-75640792D02*
X87787154Y-76097935D01*
X87787154Y-76097935D02*
X88282392Y-76097935D01*
X123593107Y-37472935D02*
X123593107Y-36939601D01*
X123593107Y-37091982D02*
X123631202Y-37015792D01*
X123631202Y-37015792D02*
X123669297Y-36977697D01*
X123669297Y-36977697D02*
X123745488Y-36939601D01*
X123745488Y-36939601D02*
X123821678Y-36939601D01*
X124240726Y-36672935D02*
X124316916Y-36672935D01*
X124316916Y-36672935D02*
X124393107Y-36711030D01*
X124393107Y-36711030D02*
X124431202Y-36749125D01*
X124431202Y-36749125D02*
X124469297Y-36825316D01*
X124469297Y-36825316D02*
X124507392Y-36977697D01*
X124507392Y-36977697D02*
X124507392Y-37168173D01*
X124507392Y-37168173D02*
X124469297Y-37320554D01*
X124469297Y-37320554D02*
X124431202Y-37396744D01*
X124431202Y-37396744D02*
X124393107Y-37434840D01*
X124393107Y-37434840D02*
X124316916Y-37472935D01*
X124316916Y-37472935D02*
X124240726Y-37472935D01*
X124240726Y-37472935D02*
X124164535Y-37434840D01*
X124164535Y-37434840D02*
X124126440Y-37396744D01*
X124126440Y-37396744D02*
X124088345Y-37320554D01*
X124088345Y-37320554D02*
X124050249Y-37168173D01*
X124050249Y-37168173D02*
X124050249Y-36977697D01*
X124050249Y-36977697D02*
X124088345Y-36825316D01*
X124088345Y-36825316D02*
X124126440Y-36749125D01*
X124126440Y-36749125D02*
X124164535Y-36711030D01*
X124164535Y-36711030D02*
X124240726Y-36672935D01*
X159323115Y-90635798D02*
X159351028Y-90103195D01*
X159343053Y-90255368D02*
X159385083Y-90181275D01*
X159385083Y-90181275D02*
X159425120Y-90145226D01*
X159425120Y-90145226D02*
X159503200Y-90111170D01*
X159503200Y-90111170D02*
X159579286Y-90115158D01*
X159817513Y-89936905D02*
X159857549Y-89900856D01*
X159857549Y-89900856D02*
X159935629Y-89866800D01*
X159935629Y-89866800D02*
X160125844Y-89876769D01*
X160125844Y-89876769D02*
X160199937Y-89918800D01*
X160199937Y-89918800D02*
X160235986Y-89958837D01*
X160235986Y-89958837D02*
X160270042Y-90036916D01*
X160270042Y-90036916D02*
X160266054Y-90113002D01*
X160266054Y-90113002D02*
X160222030Y-90225138D01*
X160222030Y-90225138D02*
X159741588Y-90657729D01*
X159741588Y-90657729D02*
X160236148Y-90683648D01*
X141443107Y-76197935D02*
X141443107Y-75664601D01*
X141443107Y-75816982D02*
X141481202Y-75740792D01*
X141481202Y-75740792D02*
X141519297Y-75702697D01*
X141519297Y-75702697D02*
X141595488Y-75664601D01*
X141595488Y-75664601D02*
X141671678Y-75664601D01*
X141900249Y-75474125D02*
X141938345Y-75436030D01*
X141938345Y-75436030D02*
X142014535Y-75397935D01*
X142014535Y-75397935D02*
X142205011Y-75397935D01*
X142205011Y-75397935D02*
X142281202Y-75436030D01*
X142281202Y-75436030D02*
X142319297Y-75474125D01*
X142319297Y-75474125D02*
X142357392Y-75550316D01*
X142357392Y-75550316D02*
X142357392Y-75626506D01*
X142357392Y-75626506D02*
X142319297Y-75740792D01*
X142319297Y-75740792D02*
X141862154Y-76197935D01*
X141862154Y-76197935D02*
X142357392Y-76197935D01*
X23318107Y-107372935D02*
X23318107Y-106839601D01*
X23318107Y-106991982D02*
X23356202Y-106915792D01*
X23356202Y-106915792D02*
X23394297Y-106877697D01*
X23394297Y-106877697D02*
X23470488Y-106839601D01*
X23470488Y-106839601D02*
X23546678Y-106839601D01*
X23737154Y-106572935D02*
X24232392Y-106572935D01*
X24232392Y-106572935D02*
X23965726Y-106877697D01*
X23965726Y-106877697D02*
X24080011Y-106877697D01*
X24080011Y-106877697D02*
X24156202Y-106915792D01*
X24156202Y-106915792D02*
X24194297Y-106953887D01*
X24194297Y-106953887D02*
X24232392Y-107030078D01*
X24232392Y-107030078D02*
X24232392Y-107220554D01*
X24232392Y-107220554D02*
X24194297Y-107296744D01*
X24194297Y-107296744D02*
X24156202Y-107334840D01*
X24156202Y-107334840D02*
X24080011Y-107372935D01*
X24080011Y-107372935D02*
X23851440Y-107372935D01*
X23851440Y-107372935D02*
X23775249Y-107334840D01*
X23775249Y-107334840D02*
X23737154Y-107296744D01*
X141443107Y-41897935D02*
X141443107Y-41364601D01*
X141443107Y-41516982D02*
X141481202Y-41440792D01*
X141481202Y-41440792D02*
X141519297Y-41402697D01*
X141519297Y-41402697D02*
X141595488Y-41364601D01*
X141595488Y-41364601D02*
X141671678Y-41364601D01*
X142090726Y-41097935D02*
X142166916Y-41097935D01*
X142166916Y-41097935D02*
X142243107Y-41136030D01*
X142243107Y-41136030D02*
X142281202Y-41174125D01*
X142281202Y-41174125D02*
X142319297Y-41250316D01*
X142319297Y-41250316D02*
X142357392Y-41402697D01*
X142357392Y-41402697D02*
X142357392Y-41593173D01*
X142357392Y-41593173D02*
X142319297Y-41745554D01*
X142319297Y-41745554D02*
X142281202Y-41821744D01*
X142281202Y-41821744D02*
X142243107Y-41859840D01*
X142243107Y-41859840D02*
X142166916Y-41897935D01*
X142166916Y-41897935D02*
X142090726Y-41897935D01*
X142090726Y-41897935D02*
X142014535Y-41859840D01*
X142014535Y-41859840D02*
X141976440Y-41821744D01*
X141976440Y-41821744D02*
X141938345Y-41745554D01*
X141938345Y-41745554D02*
X141900249Y-41593173D01*
X141900249Y-41593173D02*
X141900249Y-41402697D01*
X141900249Y-41402697D02*
X141938345Y-41250316D01*
X141938345Y-41250316D02*
X141976440Y-41174125D01*
X141976440Y-41174125D02*
X142014535Y-41136030D01*
X142014535Y-41136030D02*
X142090726Y-41097935D01*
X123468107Y-71772935D02*
X123468107Y-71239601D01*
X123468107Y-71391982D02*
X123506202Y-71315792D01*
X123506202Y-71315792D02*
X123544297Y-71277697D01*
X123544297Y-71277697D02*
X123620488Y-71239601D01*
X123620488Y-71239601D02*
X123696678Y-71239601D01*
X123925249Y-71049125D02*
X123963345Y-71011030D01*
X123963345Y-71011030D02*
X124039535Y-70972935D01*
X124039535Y-70972935D02*
X124230011Y-70972935D01*
X124230011Y-70972935D02*
X124306202Y-71011030D01*
X124306202Y-71011030D02*
X124344297Y-71049125D01*
X124344297Y-71049125D02*
X124382392Y-71125316D01*
X124382392Y-71125316D02*
X124382392Y-71201506D01*
X124382392Y-71201506D02*
X124344297Y-71315792D01*
X124344297Y-71315792D02*
X123887154Y-71772935D01*
X123887154Y-71772935D02*
X124382392Y-71772935D01*
X105518107Y-58122935D02*
X105518107Y-57589601D01*
X105518107Y-57741982D02*
X105556202Y-57665792D01*
X105556202Y-57665792D02*
X105594297Y-57627697D01*
X105594297Y-57627697D02*
X105670488Y-57589601D01*
X105670488Y-57589601D02*
X105746678Y-57589601D01*
X106432392Y-58122935D02*
X105975249Y-58122935D01*
X106203821Y-58122935D02*
X106203821Y-57322935D01*
X106203821Y-57322935D02*
X106127630Y-57437220D01*
X106127630Y-57437220D02*
X106051440Y-57513411D01*
X106051440Y-57513411D02*
X105975249Y-57551506D01*
X43343107Y-107347935D02*
X43343107Y-106814601D01*
X43343107Y-106966982D02*
X43381202Y-106890792D01*
X43381202Y-106890792D02*
X43419297Y-106852697D01*
X43419297Y-106852697D02*
X43495488Y-106814601D01*
X43495488Y-106814601D02*
X43571678Y-106814601D01*
X43762154Y-106547935D02*
X44257392Y-106547935D01*
X44257392Y-106547935D02*
X43990726Y-106852697D01*
X43990726Y-106852697D02*
X44105011Y-106852697D01*
X44105011Y-106852697D02*
X44181202Y-106890792D01*
X44181202Y-106890792D02*
X44219297Y-106928887D01*
X44219297Y-106928887D02*
X44257392Y-107005078D01*
X44257392Y-107005078D02*
X44257392Y-107195554D01*
X44257392Y-107195554D02*
X44219297Y-107271744D01*
X44219297Y-107271744D02*
X44181202Y-107309840D01*
X44181202Y-107309840D02*
X44105011Y-107347935D01*
X44105011Y-107347935D02*
X43876440Y-107347935D01*
X43876440Y-107347935D02*
X43800249Y-107309840D01*
X43800249Y-107309840D02*
X43762154Y-107271744D01*
X87593107Y-41922935D02*
X87593107Y-41389601D01*
X87593107Y-41541982D02*
X87631202Y-41465792D01*
X87631202Y-41465792D02*
X87669297Y-41427697D01*
X87669297Y-41427697D02*
X87745488Y-41389601D01*
X87745488Y-41389601D02*
X87821678Y-41389601D01*
X88240726Y-41122935D02*
X88316916Y-41122935D01*
X88316916Y-41122935D02*
X88393107Y-41161030D01*
X88393107Y-41161030D02*
X88431202Y-41199125D01*
X88431202Y-41199125D02*
X88469297Y-41275316D01*
X88469297Y-41275316D02*
X88507392Y-41427697D01*
X88507392Y-41427697D02*
X88507392Y-41618173D01*
X88507392Y-41618173D02*
X88469297Y-41770554D01*
X88469297Y-41770554D02*
X88431202Y-41846744D01*
X88431202Y-41846744D02*
X88393107Y-41884840D01*
X88393107Y-41884840D02*
X88316916Y-41922935D01*
X88316916Y-41922935D02*
X88240726Y-41922935D01*
X88240726Y-41922935D02*
X88164535Y-41884840D01*
X88164535Y-41884840D02*
X88126440Y-41846744D01*
X88126440Y-41846744D02*
X88088345Y-41770554D01*
X88088345Y-41770554D02*
X88050249Y-41618173D01*
X88050249Y-41618173D02*
X88050249Y-41427697D01*
X88050249Y-41427697D02*
X88088345Y-41275316D01*
X88088345Y-41275316D02*
X88126440Y-41199125D01*
X88126440Y-41199125D02*
X88164535Y-41161030D01*
X88164535Y-41161030D02*
X88240726Y-41122935D01*
X87418107Y-58922935D02*
X87418107Y-58389601D01*
X87418107Y-58541982D02*
X87456202Y-58465792D01*
X87456202Y-58465792D02*
X87494297Y-58427697D01*
X87494297Y-58427697D02*
X87570488Y-58389601D01*
X87570488Y-58389601D02*
X87646678Y-58389601D01*
X88332392Y-58922935D02*
X87875249Y-58922935D01*
X88103821Y-58922935D02*
X88103821Y-58122935D01*
X88103821Y-58122935D02*
X88027630Y-58237220D01*
X88027630Y-58237220D02*
X87951440Y-58313411D01*
X87951440Y-58313411D02*
X87875249Y-58351506D01*
D11*
X157383269Y-47672911D02*
X157075314Y-47179928D01*
X156812623Y-47643005D02*
X156864959Y-46644375D01*
X156864959Y-46644375D02*
X157245390Y-46664313D01*
X157245390Y-46664313D02*
X157338005Y-46716851D01*
X157338005Y-46716851D02*
X157383067Y-46766897D01*
X157383067Y-46766897D02*
X157425636Y-46864497D01*
X157425636Y-46864497D02*
X157418159Y-47007158D01*
X157418159Y-47007158D02*
X157365621Y-47099773D01*
X157365621Y-47099773D02*
X157315575Y-47144835D01*
X157315575Y-47144835D02*
X157217976Y-47187404D01*
X157217976Y-47187404D02*
X156837545Y-47167467D01*
X157811253Y-47695341D02*
X157863589Y-46696711D01*
X157863589Y-46696711D02*
X158244019Y-46716649D01*
X158244019Y-46716649D02*
X158336635Y-46769187D01*
X158336635Y-46769187D02*
X158381696Y-46819233D01*
X158381696Y-46819233D02*
X158424266Y-46916832D01*
X158424266Y-46916832D02*
X158416789Y-47059494D01*
X158416789Y-47059494D02*
X158364251Y-47152109D01*
X158364251Y-47152109D02*
X158314205Y-47197171D01*
X158314205Y-47197171D02*
X158216605Y-47239740D01*
X158216605Y-47239740D02*
X157836175Y-47219803D01*
X158809680Y-46841662D02*
X158859726Y-46796601D01*
X158859726Y-46796601D02*
X158957326Y-46754031D01*
X158957326Y-46754031D02*
X159195095Y-46766492D01*
X159195095Y-46766492D02*
X159287710Y-46819031D01*
X159287710Y-46819031D02*
X159332772Y-46869076D01*
X159332772Y-46869076D02*
X159375341Y-46966676D01*
X159375341Y-46966676D02*
X159370357Y-47061784D01*
X159370357Y-47061784D02*
X159315327Y-47201953D01*
X159315327Y-47201953D02*
X158714775Y-47742692D01*
X158714775Y-47742692D02*
X159332974Y-47775091D01*
X160003509Y-46808860D02*
X160098617Y-46813844D01*
X160098617Y-46813844D02*
X160191232Y-46866382D01*
X160191232Y-46866382D02*
X160236294Y-46916428D01*
X160236294Y-46916428D02*
X160278863Y-47014028D01*
X160278863Y-47014028D02*
X160316448Y-47206735D01*
X160316448Y-47206735D02*
X160303987Y-47444504D01*
X160303987Y-47444504D02*
X160246465Y-47632227D01*
X160246465Y-47632227D02*
X160193927Y-47724842D01*
X160193927Y-47724842D02*
X160143881Y-47769904D01*
X160143881Y-47769904D02*
X160046281Y-47812473D01*
X160046281Y-47812473D02*
X159951173Y-47807489D01*
X159951173Y-47807489D02*
X159858558Y-47754951D01*
X159858558Y-47754951D02*
X159813496Y-47704905D01*
X159813496Y-47704905D02*
X159770927Y-47607305D01*
X159770927Y-47607305D02*
X159733342Y-47414598D01*
X159733342Y-47414598D02*
X159745803Y-47176829D01*
X159745803Y-47176829D02*
X159803325Y-46989106D01*
X159803325Y-46989106D02*
X159855864Y-46896491D01*
X159855864Y-46896491D02*
X159905910Y-46851429D01*
X159905910Y-46851429D02*
X160003509Y-46808860D01*
X161174909Y-47204041D02*
X161140018Y-47869794D01*
X160957077Y-46811150D02*
X160681926Y-47511995D01*
X160681926Y-47511995D02*
X161300125Y-47544394D01*
X161905661Y-46908547D02*
X162000769Y-46913531D01*
X162000769Y-46913531D02*
X162093384Y-46966070D01*
X162093384Y-46966070D02*
X162138446Y-47016116D01*
X162138446Y-47016116D02*
X162181015Y-47113715D01*
X162181015Y-47113715D02*
X162218600Y-47306423D01*
X162218600Y-47306423D02*
X162206139Y-47544192D01*
X162206139Y-47544192D02*
X162148616Y-47731915D01*
X162148616Y-47731915D02*
X162096078Y-47824530D01*
X162096078Y-47824530D02*
X162046032Y-47869592D01*
X162046032Y-47869592D02*
X161948433Y-47912161D01*
X161948433Y-47912161D02*
X161853325Y-47907177D01*
X161853325Y-47907177D02*
X161760710Y-47854638D01*
X161760710Y-47854638D02*
X161715648Y-47804592D01*
X161715648Y-47804592D02*
X161673079Y-47706993D01*
X161673079Y-47706993D02*
X161635494Y-47514285D01*
X161635494Y-47514285D02*
X161647955Y-47276516D01*
X161647955Y-47276516D02*
X161705477Y-47088793D01*
X161705477Y-47088793D02*
X161758015Y-46996178D01*
X161758015Y-46996178D02*
X161808061Y-46951117D01*
X161808061Y-46951117D02*
X161905661Y-46908547D01*
X162634123Y-47566621D02*
X163394984Y-47606496D01*
X163807812Y-47008235D02*
X164473565Y-47043125D01*
X164473565Y-47043125D02*
X163755476Y-48006864D01*
X163755476Y-48006864D02*
X164421229Y-48041755D01*
X165184582Y-48034076D02*
X165086982Y-48076645D01*
X165086982Y-48076645D02*
X164896767Y-48066677D01*
X164896767Y-48066677D02*
X164804152Y-48014139D01*
X164804152Y-48014139D02*
X164761582Y-47916539D01*
X164761582Y-47916539D02*
X164781520Y-47536108D01*
X164781520Y-47536108D02*
X164834058Y-47443493D01*
X164834058Y-47443493D02*
X164931658Y-47400924D01*
X164931658Y-47400924D02*
X165121873Y-47410892D01*
X165121873Y-47410892D02*
X165214488Y-47463431D01*
X165214488Y-47463431D02*
X165257058Y-47561030D01*
X165257058Y-47561030D02*
X165252073Y-47656138D01*
X165252073Y-47656138D02*
X164771551Y-47726324D01*
X165657628Y-48106552D02*
X165692519Y-47440799D01*
X165682550Y-47631014D02*
X165735088Y-47538398D01*
X165735088Y-47538398D02*
X165785134Y-47493337D01*
X165785134Y-47493337D02*
X165882734Y-47450767D01*
X165882734Y-47450767D02*
X165977841Y-47455752D01*
X166418489Y-48146427D02*
X166325874Y-48093889D01*
X166325874Y-48093889D02*
X166280812Y-48043843D01*
X166280812Y-48043843D02*
X166238243Y-47946243D01*
X166238243Y-47946243D02*
X166253196Y-47660920D01*
X166253196Y-47660920D02*
X166305734Y-47568305D01*
X166305734Y-47568305D02*
X166355780Y-47523243D01*
X166355780Y-47523243D02*
X166453380Y-47480674D01*
X166453380Y-47480674D02*
X166596041Y-47488150D01*
X166596041Y-47488150D02*
X166688656Y-47540688D01*
X166688656Y-47540688D02*
X166733718Y-47590734D01*
X166733718Y-47590734D02*
X166776287Y-47688334D01*
X166776287Y-47688334D02*
X166761334Y-47973657D01*
X166761334Y-47973657D02*
X166708796Y-48066272D01*
X166708796Y-48066272D02*
X166658750Y-48111334D01*
X166658750Y-48111334D02*
X166561150Y-48153903D01*
X166561150Y-48153903D02*
X166418489Y-48146427D01*
%TO.C,D10*%
X86950000Y-73525000D02*
X86950000Y-75025000D01*
X86950000Y-75025000D02*
X92350000Y-75025000D01*
X89150000Y-73775000D02*
X89150000Y-74775000D01*
X89250000Y-74275000D02*
X90150000Y-73775000D01*
X90150000Y-73775000D02*
X90150000Y-74775000D01*
X90150000Y-74775000D02*
X89250000Y-74275000D01*
X92350000Y-73525000D02*
X86950000Y-73525000D01*
X92350000Y-73525000D02*
X92350000Y-75025000D01*
D12*
X87900000Y-73175000D02*
G75*
G03*
X87900000Y-73175000I-50000J0D01*
G01*
X87991421Y-73175000D02*
G75*
G03*
X87991421Y-73175000I-141421J0D01*
G01*
D11*
%TO.C,SW15*%
X31654000Y-86362000D02*
X31654000Y-87362000D01*
X31654000Y-73362000D02*
X31654000Y-74362000D01*
X31654000Y-73362000D02*
X30654000Y-73362000D01*
X30654000Y-87362000D02*
X31654000Y-87362000D01*
X18654000Y-73362000D02*
X17654000Y-73362000D01*
X17654000Y-87362000D02*
X18654000Y-87362000D01*
X17654000Y-87362000D02*
X17654000Y-86362000D01*
X17654000Y-74362000D02*
X17654000Y-73362000D01*
X17654000Y-73362000D02*
X18654000Y-73362000D01*
%TO.C,SW1*%
X96650000Y-41375000D02*
X96650000Y-42375000D01*
X96650000Y-28375000D02*
X96650000Y-29375000D01*
X96650000Y-28375000D02*
X95650000Y-28375000D01*
X95650000Y-42375000D02*
X96650000Y-42375000D01*
X83650000Y-28375000D02*
X82650000Y-28375000D01*
X82650000Y-42375000D02*
X83650000Y-42375000D01*
X82650000Y-42375000D02*
X82650000Y-41375000D01*
X82650000Y-29375000D02*
X82650000Y-28375000D01*
X82650000Y-28375000D02*
X83650000Y-28375000D01*
%TO.C,D1*%
X86950000Y-39400000D02*
X86950000Y-40900000D01*
X86950000Y-40900000D02*
X92350000Y-40900000D01*
X89150000Y-39650000D02*
X89150000Y-40650000D01*
X89250000Y-40150000D02*
X90150000Y-39650000D01*
X90150000Y-39650000D02*
X90150000Y-40650000D01*
X90150000Y-40650000D02*
X89250000Y-40150000D01*
X92350000Y-39400000D02*
X86950000Y-39400000D01*
X92350000Y-39400000D02*
X92350000Y-40900000D01*
D12*
X87900000Y-39050000D02*
G75*
G03*
X87900000Y-39050000I-50000J0D01*
G01*
X87991421Y-39050000D02*
G75*
G03*
X87991421Y-39050000I-141421J0D01*
G01*
D11*
%TO.C,D6*%
X105000000Y-55550000D02*
X105000000Y-57050000D01*
X105000000Y-57050000D02*
X110400000Y-57050000D01*
X107200000Y-55800000D02*
X107200000Y-56800000D01*
X107300000Y-56300000D02*
X108200000Y-55800000D01*
X108200000Y-55800000D02*
X108200000Y-56800000D01*
X108200000Y-56800000D02*
X107300000Y-56300000D01*
X110400000Y-55550000D02*
X105000000Y-55550000D01*
X110400000Y-55550000D02*
X110400000Y-57050000D01*
D12*
X105950000Y-55200000D02*
G75*
G03*
X105950000Y-55200000I-50000J0D01*
G01*
X106041421Y-55200000D02*
G75*
G03*
X106041421Y-55200000I-141421J0D01*
G01*
D11*
%TO.C,SW12*%
X132625000Y-71125000D02*
X132625000Y-72125000D01*
X132625000Y-58125000D02*
X132625000Y-59125000D01*
X132625000Y-58125000D02*
X131625000Y-58125000D01*
X131625000Y-72125000D02*
X132625000Y-72125000D01*
X119625000Y-58125000D02*
X118625000Y-58125000D01*
X118625000Y-72125000D02*
X119625000Y-72125000D01*
X118625000Y-72125000D02*
X118625000Y-71125000D01*
X118625000Y-59125000D02*
X118625000Y-58125000D01*
X118625000Y-58125000D02*
X119625000Y-58125000D01*
%TO.C,SW19*%
X100289874Y-93844436D02*
X100377030Y-94840631D01*
X99156850Y-80893905D02*
X99244005Y-81890100D01*
X99156850Y-80893905D02*
X98160655Y-80981061D01*
X99380835Y-94927786D02*
X100377030Y-94840631D01*
X86206319Y-82026930D02*
X85210124Y-82114085D01*
X86430304Y-96060811D02*
X87426499Y-95973655D01*
X86430304Y-96060811D02*
X86343149Y-95064616D01*
X85297280Y-83110280D02*
X85210124Y-82114085D01*
X85210124Y-82114085D02*
X86206319Y-82026930D01*
%TO.C,SW16*%
X31646200Y-106339800D02*
X31646200Y-107339800D01*
X31646200Y-93339800D02*
X31646200Y-94339800D01*
X31646200Y-93339800D02*
X30646200Y-93339800D01*
X30646200Y-107339800D02*
X31646200Y-107339800D01*
X18646200Y-93339800D02*
X17646200Y-93339800D01*
X17646200Y-107339800D02*
X18646200Y-107339800D01*
X17646200Y-107339800D02*
X17646200Y-106339800D01*
X17646200Y-94339800D02*
X17646200Y-93339800D01*
X17646200Y-93339800D02*
X18646200Y-93339800D01*
%TO.C,SW3*%
X132675000Y-37125000D02*
X132675000Y-38125000D01*
X132675000Y-24125000D02*
X132675000Y-25125000D01*
X132675000Y-24125000D02*
X131675000Y-24125000D01*
X131675000Y-38125000D02*
X132675000Y-38125000D01*
X119675000Y-24125000D02*
X118675000Y-24125000D01*
X118675000Y-38125000D02*
X119675000Y-38125000D01*
X118675000Y-38125000D02*
X118675000Y-37125000D01*
X118675000Y-25125000D02*
X118675000Y-24125000D01*
X118675000Y-24125000D02*
X119675000Y-24125000D01*
%TO.C,SW10*%
X96650000Y-75375000D02*
X96650000Y-76375000D01*
X96650000Y-62375000D02*
X96650000Y-63375000D01*
X96650000Y-62375000D02*
X95650000Y-62375000D01*
X95650000Y-76375000D02*
X96650000Y-76375000D01*
X83650000Y-62375000D02*
X82650000Y-62375000D01*
X82650000Y-76375000D02*
X83650000Y-76375000D01*
X82650000Y-76375000D02*
X82650000Y-75375000D01*
X82650000Y-63375000D02*
X82650000Y-62375000D01*
X82650000Y-62375000D02*
X83650000Y-62375000D01*
%TO.C,D19*%
X90444908Y-92613174D02*
X90575641Y-94107467D01*
X90575641Y-94107467D02*
X95955092Y-93636826D01*
X92658325Y-92670481D02*
X92745481Y-93666675D01*
X92801522Y-93159862D02*
X93654519Y-92583325D01*
X93654519Y-92583325D02*
X93741675Y-93579519D01*
X93741675Y-93579519D02*
X92801522Y-93159862D01*
X95824359Y-92142533D02*
X90444908Y-92613174D01*
X95824359Y-92142533D02*
X95955092Y-93636826D01*
D12*
X91360978Y-92186066D02*
G75*
G03*
X91360978Y-92186066I-50000J0D01*
G01*
X91452399Y-92186066D02*
G75*
G03*
X91452399Y-92186066I-141421J0D01*
G01*
D11*
%TO.C,D12*%
X122900000Y-69175000D02*
X122900000Y-70675000D01*
X122900000Y-70675000D02*
X128300000Y-70675000D01*
X125100000Y-69425000D02*
X125100000Y-70425000D01*
X125200000Y-69925000D02*
X126100000Y-69425000D01*
X126100000Y-69425000D02*
X126100000Y-70425000D01*
X126100000Y-70425000D02*
X125200000Y-69925000D01*
X128300000Y-69175000D02*
X122900000Y-69175000D01*
X128300000Y-69175000D02*
X128300000Y-70675000D01*
D12*
X123850000Y-68825000D02*
G75*
G03*
X123850000Y-68825000I-50000J0D01*
G01*
X123941421Y-68825000D02*
G75*
G03*
X123941421Y-68825000I-141421J0D01*
G01*
D11*
%TO.C,D16*%
X21803200Y-104192800D02*
X21803200Y-105692800D01*
X21803200Y-105692800D02*
X27203200Y-105692800D01*
X24003200Y-104442800D02*
X24003200Y-105442800D01*
X24103200Y-104942800D02*
X25003200Y-104442800D01*
X25003200Y-104442800D02*
X25003200Y-105442800D01*
X25003200Y-105442800D02*
X24103200Y-104942800D01*
X27203200Y-104192800D02*
X21803200Y-104192800D01*
X27203200Y-104192800D02*
X27203200Y-105692800D01*
D12*
X22753200Y-103842800D02*
G75*
G03*
X22753200Y-103842800I-50000J0D01*
G01*
X22844621Y-103842800D02*
G75*
G03*
X22844621Y-103842800I-141421J0D01*
G01*
D11*
%TO.C,SW6*%
X114650000Y-57525000D02*
X114650000Y-58525000D01*
X114650000Y-44525000D02*
X114650000Y-45525000D01*
X114650000Y-44525000D02*
X113650000Y-44525000D01*
X113650000Y-58525000D02*
X114650000Y-58525000D01*
X101650000Y-44525000D02*
X100650000Y-44525000D01*
X100650000Y-58525000D02*
X101650000Y-58525000D01*
X100650000Y-58525000D02*
X100650000Y-57525000D01*
X100650000Y-45525000D02*
X100650000Y-44525000D01*
X100650000Y-44525000D02*
X101650000Y-44525000D01*
%TO.C,SW2*%
X114625000Y-40525000D02*
X114625000Y-41525000D01*
X114625000Y-27525000D02*
X114625000Y-28525000D01*
X114625000Y-27525000D02*
X113625000Y-27525000D01*
X113625000Y-41525000D02*
X114625000Y-41525000D01*
X101625000Y-27525000D02*
X100625000Y-27525000D01*
X100625000Y-41525000D02*
X101625000Y-41525000D01*
X100625000Y-41525000D02*
X100625000Y-40525000D01*
X100625000Y-28525000D02*
X100625000Y-27525000D01*
X100625000Y-27525000D02*
X101625000Y-27525000D01*
%TO.C,D5*%
X86925000Y-56400000D02*
X86925000Y-57900000D01*
X86925000Y-57900000D02*
X92325000Y-57900000D01*
X89125000Y-56650000D02*
X89125000Y-57650000D01*
X89225000Y-57150000D02*
X90125000Y-56650000D01*
X90125000Y-56650000D02*
X90125000Y-57650000D01*
X90125000Y-57650000D02*
X89225000Y-57150000D01*
X92325000Y-56400000D02*
X86925000Y-56400000D01*
X92325000Y-56400000D02*
X92325000Y-57900000D01*
D12*
X87875000Y-56050000D02*
G75*
G03*
X87875000Y-56050000I-50000J0D01*
G01*
X87966421Y-56050000D02*
G75*
G03*
X87966421Y-56050000I-141421J0D01*
G01*
D11*
%TO.C,SW13*%
X150650000Y-75400000D02*
X150650000Y-76400000D01*
X150650000Y-62400000D02*
X150650000Y-63400000D01*
X150650000Y-62400000D02*
X149650000Y-62400000D01*
X149650000Y-76400000D02*
X150650000Y-76400000D01*
X137650000Y-62400000D02*
X136650000Y-62400000D01*
X136650000Y-76400000D02*
X137650000Y-76400000D01*
X136650000Y-76400000D02*
X136650000Y-75400000D01*
X136650000Y-63400000D02*
X136650000Y-62400000D01*
X136650000Y-62400000D02*
X137650000Y-62400000D01*
%TO.C,D7*%
X122950000Y-52075000D02*
X122950000Y-53575000D01*
X122950000Y-53575000D02*
X128350000Y-53575000D01*
X125150000Y-52325000D02*
X125150000Y-53325000D01*
X125250000Y-52825000D02*
X126150000Y-52325000D01*
X126150000Y-52325000D02*
X126150000Y-53325000D01*
X126150000Y-53325000D02*
X125250000Y-52825000D01*
X128350000Y-52075000D02*
X122950000Y-52075000D01*
X128350000Y-52075000D02*
X128350000Y-53575000D01*
D12*
X123900000Y-51725000D02*
G75*
G03*
X123900000Y-51725000I-50000J0D01*
G01*
X123991421Y-51725000D02*
G75*
G03*
X123991421Y-51725000I-141421J0D01*
G01*
D11*
%TO.C,SW9*%
X156057722Y-60805117D02*
X156110058Y-59806488D01*
X155377355Y-73787301D02*
X155429691Y-72788672D01*
X155377355Y-73787301D02*
X156375984Y-73839637D01*
X157108687Y-59858824D02*
X156110058Y-59806488D01*
X168359539Y-74467668D02*
X169358168Y-74520004D01*
X170090871Y-60539191D02*
X169092242Y-60486855D01*
X170090871Y-60539191D02*
X170038535Y-61537820D01*
X169410504Y-73521375D02*
X169358168Y-74520004D01*
X169358168Y-74520004D02*
X168359539Y-74467668D01*
%TO.C,D9*%
X160342952Y-62009721D02*
X160264448Y-63507665D01*
X160264448Y-63507665D02*
X165657048Y-63790279D01*
X162526853Y-62374517D02*
X162474517Y-63373147D01*
X162600548Y-62879066D02*
X163525483Y-62426853D01*
X163525483Y-62426853D02*
X163473147Y-63425483D01*
X163473147Y-63425483D02*
X162600548Y-62879066D01*
X165735552Y-62292335D02*
X160342952Y-62009721D01*
X165735552Y-62292335D02*
X165657048Y-63790279D01*
D12*
X161310035Y-61707303D02*
G75*
G03*
X161310035Y-61707303I-49999J0D01*
G01*
X161401457Y-61707303D02*
G75*
G03*
X161401457Y-61707303I-141421J0D01*
G01*
D11*
%TO.C,SW5*%
X96625000Y-58350000D02*
X96625000Y-59350000D01*
X96625000Y-45350000D02*
X96625000Y-46350000D01*
X96625000Y-45350000D02*
X95625000Y-45350000D01*
X95625000Y-59350000D02*
X96625000Y-59350000D01*
X83625000Y-45350000D02*
X82625000Y-45350000D01*
X82625000Y-59350000D02*
X83625000Y-59350000D01*
X82625000Y-59350000D02*
X82625000Y-58350000D01*
X82625000Y-46350000D02*
X82625000Y-45350000D01*
X82625000Y-45350000D02*
X83625000Y-45350000D01*
%TO.C,D8*%
X141100000Y-46666790D02*
X141100000Y-48166790D01*
X141100000Y-48166790D02*
X146500000Y-48166790D01*
X143300000Y-46916790D02*
X143300000Y-47916790D01*
X143400000Y-47416790D02*
X144300000Y-46916790D01*
X144300000Y-46916790D02*
X144300000Y-47916790D01*
X144300000Y-47916790D02*
X143400000Y-47416790D01*
X146500000Y-46666790D02*
X141100000Y-46666790D01*
X146500000Y-46666790D02*
X146500000Y-48166790D01*
D12*
X142050000Y-46316790D02*
G75*
G03*
X142050000Y-46316790I-50000J0D01*
G01*
X142141421Y-46316790D02*
G75*
G03*
X142141421Y-46316790I-141421J0D01*
G01*
D11*
%TO.C,D4*%
X140950000Y-39333211D02*
X140950000Y-40833211D01*
X140950000Y-40833211D02*
X146350000Y-40833211D01*
X143150000Y-39583211D02*
X143150000Y-40583211D01*
X143250000Y-40083211D02*
X144150000Y-39583211D01*
X144150000Y-39583211D02*
X144150000Y-40583211D01*
X144150000Y-40583211D02*
X143250000Y-40083211D01*
X146350000Y-39333211D02*
X140950000Y-39333211D01*
X146350000Y-39333211D02*
X146350000Y-40833211D01*
D12*
X141900000Y-38983211D02*
G75*
G03*
X141900000Y-38983211I-50000J0D01*
G01*
X141991421Y-38983211D02*
G75*
G03*
X141991421Y-38983211I-141421J0D01*
G01*
D11*
%TO.C,D2*%
X104950000Y-38458211D02*
X104950000Y-39958211D01*
X104950000Y-39958211D02*
X110350000Y-39958211D01*
X107150000Y-38708211D02*
X107150000Y-39708211D01*
X107250000Y-39208211D02*
X108150000Y-38708211D01*
X108150000Y-38708211D02*
X108150000Y-39708211D01*
X108150000Y-39708211D02*
X107250000Y-39208211D01*
X110350000Y-38458211D02*
X104950000Y-38458211D01*
X110350000Y-38458211D02*
X110350000Y-39958211D01*
D12*
X105900000Y-38108211D02*
G75*
G03*
X105900000Y-38108211I-50000J0D01*
G01*
X105991421Y-38108211D02*
G75*
G03*
X105991421Y-38108211I-141421J0D01*
G01*
D11*
%TO.C,SW17*%
X51659000Y-106345400D02*
X51659000Y-107345400D01*
X51659000Y-93345400D02*
X51659000Y-94345400D01*
X51659000Y-93345400D02*
X50659000Y-93345400D01*
X50659000Y-107345400D02*
X51659000Y-107345400D01*
X38659000Y-93345400D02*
X37659000Y-93345400D01*
X37659000Y-107345400D02*
X38659000Y-107345400D01*
X37659000Y-107345400D02*
X37659000Y-106345400D01*
X37659000Y-94345400D02*
X37659000Y-93345400D01*
X37659000Y-93345400D02*
X38659000Y-93345400D01*
%TO.C,D15*%
X21904800Y-84309211D02*
X21904800Y-85809211D01*
X21904800Y-85809211D02*
X27304800Y-85809211D01*
X24104800Y-84559211D02*
X24104800Y-85559211D01*
X24204800Y-85059211D02*
X25104800Y-84559211D01*
X25104800Y-84559211D02*
X25104800Y-85559211D01*
X25104800Y-85559211D02*
X24204800Y-85059211D01*
X27304800Y-84309211D02*
X21904800Y-84309211D01*
X27304800Y-84309211D02*
X27304800Y-85809211D01*
D12*
X22854800Y-83959211D02*
G75*
G03*
X22854800Y-83959211I-50000J0D01*
G01*
X22946221Y-83959211D02*
G75*
G03*
X22946221Y-83959211I-141421J0D01*
G01*
D11*
%TO.C,D18*%
X69711005Y-99236338D02*
X70344933Y-100595800D01*
X70344933Y-100595800D02*
X75238995Y-98313662D01*
X71810537Y-98533155D02*
X72233155Y-99439463D01*
X72112477Y-98944047D02*
X72716845Y-98110537D01*
X72716845Y-98110537D02*
X73139463Y-99016845D01*
X73139463Y-99016845D02*
X72112477Y-98944047D01*
X74605067Y-96954200D02*
X69711005Y-99236338D01*
X74605067Y-96954200D02*
X75238995Y-98313662D01*
D12*
X70428767Y-98538774D02*
G75*
G03*
X70428767Y-98538774I-50001J0D01*
G01*
X70520188Y-98538774D02*
G75*
G03*
X70520188Y-98538774I-141422J0D01*
G01*
D11*
%TO.C,D14*%
X158967952Y-88084721D02*
X158889448Y-89582665D01*
X158889448Y-89582665D02*
X164282048Y-89865279D01*
X161151853Y-88449517D02*
X161099517Y-89448147D01*
X161225548Y-88954066D02*
X162150483Y-88501853D01*
X162150483Y-88501853D02*
X162098147Y-89500483D01*
X162098147Y-89500483D02*
X161225548Y-88954066D01*
X164360552Y-88367335D02*
X158967952Y-88084721D01*
X164360552Y-88367335D02*
X164282048Y-89865279D01*
D12*
X159935035Y-87782303D02*
G75*
G03*
X159935035Y-87782303I-49999J0D01*
G01*
X160026457Y-87782303D02*
G75*
G03*
X160026457Y-87782303I-141421J0D01*
G01*
D11*
%TO.C,SW7*%
X132625000Y-54125000D02*
X132625000Y-55125000D01*
X132625000Y-41125000D02*
X132625000Y-42125000D01*
X132625000Y-41125000D02*
X131625000Y-41125000D01*
X131625000Y-55125000D02*
X132625000Y-55125000D01*
X119625000Y-41125000D02*
X118625000Y-41125000D01*
X118625000Y-55125000D02*
X119625000Y-55125000D01*
X118625000Y-55125000D02*
X118625000Y-54125000D01*
X118625000Y-42125000D02*
X118625000Y-41125000D01*
X118625000Y-41125000D02*
X119625000Y-41125000D01*
%TO.C,D17*%
X41945400Y-104345200D02*
X41945400Y-105845200D01*
X41945400Y-105845200D02*
X47345400Y-105845200D01*
X44145400Y-104595200D02*
X44145400Y-105595200D01*
X44245400Y-105095200D02*
X45145400Y-104595200D01*
X45145400Y-104595200D02*
X45145400Y-105595200D01*
X45145400Y-105595200D02*
X44245400Y-105095200D01*
X47345400Y-104345200D02*
X41945400Y-104345200D01*
X47345400Y-104345200D02*
X47345400Y-105845200D01*
D12*
X42895400Y-103995200D02*
G75*
G03*
X42895400Y-103995200I-50000J0D01*
G01*
X42986821Y-103995200D02*
G75*
G03*
X42986821Y-103995200I-141421J0D01*
G01*
D11*
%TO.C,SW11*%
X114650000Y-74525000D02*
X114650000Y-75525000D01*
X114650000Y-61525000D02*
X114650000Y-62525000D01*
X114650000Y-61525000D02*
X113650000Y-61525000D01*
X113650000Y-75525000D02*
X114650000Y-75525000D01*
X101650000Y-61525000D02*
X100650000Y-61525000D01*
X100650000Y-75525000D02*
X101650000Y-75525000D01*
X100650000Y-75525000D02*
X100650000Y-74525000D01*
X100650000Y-62525000D02*
X100650000Y-61525000D01*
X100650000Y-61525000D02*
X101650000Y-61525000D01*
%TO.C,D13*%
X140975000Y-73558211D02*
X140975000Y-75058211D01*
X140975000Y-75058211D02*
X146375000Y-75058211D01*
X143175000Y-73808211D02*
X143175000Y-74808211D01*
X143275000Y-74308211D02*
X144175000Y-73808211D01*
X144175000Y-73808211D02*
X144175000Y-74808211D01*
X144175000Y-74808211D02*
X143275000Y-74308211D01*
X146375000Y-73558211D02*
X140975000Y-73558211D01*
X146375000Y-73558211D02*
X146375000Y-75058211D01*
D12*
X141925000Y-73208211D02*
G75*
G03*
X141925000Y-73208211I-50000J0D01*
G01*
X142016421Y-73208211D02*
G75*
G03*
X142016421Y-73208211I-141421J0D01*
G01*
D11*
%TO.C,D11*%
X104975000Y-72450000D02*
X104975000Y-73950000D01*
X104975000Y-73950000D02*
X110375000Y-73950000D01*
X107175000Y-72700000D02*
X107175000Y-73700000D01*
X107275000Y-73200000D02*
X108175000Y-72700000D01*
X108175000Y-72700000D02*
X108175000Y-73700000D01*
X108175000Y-73700000D02*
X107275000Y-73200000D01*
X110375000Y-72450000D02*
X104975000Y-72450000D01*
X110375000Y-72450000D02*
X110375000Y-73950000D01*
D12*
X105925000Y-72100000D02*
G75*
G03*
X105925000Y-72100000I-50000J0D01*
G01*
X106016421Y-72100000D02*
G75*
G03*
X106016421Y-72100000I-141421J0D01*
G01*
D11*
%TO.C,SW4*%
X150650000Y-41350000D02*
X150650000Y-42350000D01*
X150650000Y-28350000D02*
X150650000Y-29350000D01*
X150650000Y-28350000D02*
X149650000Y-28350000D01*
X149650000Y-42350000D02*
X150650000Y-42350000D01*
X137650000Y-28350000D02*
X136650000Y-28350000D01*
X136650000Y-42350000D02*
X137650000Y-42350000D01*
X136650000Y-42350000D02*
X136650000Y-41350000D01*
X136650000Y-29350000D02*
X136650000Y-28350000D01*
X136650000Y-28350000D02*
X137650000Y-28350000D01*
%TO.C,SW14*%
X168539992Y-90524975D02*
X168487656Y-91523604D01*
X169220359Y-77542791D02*
X169168023Y-78541420D01*
X169220359Y-77542791D02*
X168221730Y-77490455D01*
X167489027Y-91471268D02*
X168487656Y-91523604D01*
X156238175Y-76862424D02*
X155239546Y-76810088D01*
X154506843Y-90790901D02*
X155505472Y-90843237D01*
X154506843Y-90790901D02*
X154559179Y-89792272D01*
X155187210Y-77808717D02*
X155239546Y-76810088D01*
X155239546Y-76810088D02*
X156238175Y-76862424D01*
%TO.C,D3*%
X123000000Y-34983211D02*
X123000000Y-36483211D01*
X123000000Y-36483211D02*
X128400000Y-36483211D01*
X125200000Y-35233211D02*
X125200000Y-36233211D01*
X125300000Y-35733211D02*
X126200000Y-35233211D01*
X126200000Y-35233211D02*
X126200000Y-36233211D01*
X126200000Y-36233211D02*
X125300000Y-35733211D01*
X128400000Y-34983211D02*
X123000000Y-34983211D01*
X128400000Y-34983211D02*
X128400000Y-36483211D01*
D12*
X123950000Y-34633211D02*
G75*
G03*
X123950000Y-34633211I-50000J0D01*
G01*
X124041421Y-34633211D02*
G75*
G03*
X124041421Y-34633211I-141421J0D01*
G01*
D11*
%TO.C,SW8*%
X136775000Y-46225000D02*
X136775000Y-45225000D01*
X136775000Y-59225000D02*
X136775000Y-58225000D01*
X136775000Y-59225000D02*
X137775000Y-59225000D01*
X137775000Y-45225000D02*
X136775000Y-45225000D01*
X149775000Y-59225000D02*
X150775000Y-59225000D01*
X150775000Y-45225000D02*
X149775000Y-45225000D01*
X150775000Y-45225000D02*
X150775000Y-46225000D01*
X150775000Y-58225000D02*
X150775000Y-59225000D01*
X150775000Y-59225000D02*
X149775000Y-59225000D01*
%TO.C,SW18*%
X79319443Y-96922050D02*
X79742061Y-97828358D01*
X73825406Y-85140049D02*
X74248024Y-86046356D01*
X73825406Y-85140049D02*
X72919098Y-85562667D01*
X78835754Y-98250976D02*
X79742061Y-97828358D01*
X62043404Y-90634086D02*
X61137097Y-91056704D01*
X67053752Y-103745013D02*
X67960060Y-103322395D01*
X67053752Y-103745013D02*
X66631134Y-102838706D01*
X61559715Y-91963012D02*
X61137097Y-91056704D01*
X61137097Y-91056704D02*
X62043404Y-90634086D01*
%TD*%
D13*
X161950000Y-56525000D03*
X97750000Y-35300000D03*
X115125000Y-36050000D03*
X133675000Y-34250000D03*
X169241616Y-52534974D03*
X167275000Y-76825000D03*
X97934600Y-77790200D03*
X78425000Y-86575000D03*
X151825000Y-62000000D03*
X100550000Y-48625000D03*
X168250000Y-40600000D03*
X168900000Y-64225000D03*
X158500000Y-73075000D03*
X58666200Y-89626600D03*
X97675000Y-63500000D03*
X153800000Y-72725000D03*
X141200000Y-44025000D03*
X116500000Y-26775000D03*
X84400000Y-49300000D03*
X164000000Y-56550000D03*
X56475000Y-89625000D03*
X169593902Y-47466364D03*
X135525000Y-73950000D03*
X155150000Y-76825000D03*
X48341499Y-89856332D03*
X47300000Y-89125000D03*
X46037701Y-90312299D03*
X46257204Y-87693198D03*
X86375000Y-42425000D03*
X22625000Y-72025000D03*
X85425000Y-31950000D03*
X83475000Y-59400000D03*
X103825000Y-31200000D03*
X35225000Y-91100000D03*
X102100000Y-61344500D03*
X103775000Y-41250000D03*
X119425000Y-42525000D03*
X120700000Y-55800000D03*
X122050000Y-28500000D03*
X42600000Y-92975000D03*
X151475000Y-33725000D03*
X98100000Y-55675000D03*
X115300000Y-55475000D03*
X133550000Y-49075000D03*
X140096096Y-47421096D03*
X154650000Y-68300000D03*
X98050000Y-67450000D03*
X115575000Y-69875000D03*
X136049799Y-64874799D03*
X150275000Y-67750000D03*
X169725000Y-86600000D03*
X35171200Y-77383800D03*
X33600000Y-104200000D03*
X53075000Y-104650000D03*
X78675000Y-87825000D03*
X101000000Y-87150000D03*
X28618000Y-70525800D03*
X136050000Y-41000000D03*
X136300000Y-33500000D03*
X65447168Y-93122168D03*
X140375000Y-61075000D03*
X30154000Y-80362000D03*
X29654000Y-76612000D03*
X24654000Y-80362000D03*
X24654000Y-74412000D03*
X19154000Y-80362000D03*
X95150000Y-35375000D03*
X94650000Y-31625000D03*
X89650000Y-35375000D03*
X89650000Y-29425000D03*
X84150000Y-35375000D03*
X131125000Y-65125000D03*
X130625000Y-61375000D03*
X125625000Y-65125000D03*
X125625000Y-59175000D03*
X120125000Y-65125000D03*
X98272648Y-87998001D03*
X97447716Y-84305849D03*
X92793577Y-88477358D03*
X92275000Y-82550000D03*
X87314506Y-88956715D03*
X30146200Y-100339800D03*
X29646200Y-96589800D03*
X24646200Y-100339800D03*
X24646200Y-94389800D03*
X19146200Y-100339800D03*
X131175000Y-31125000D03*
X130675000Y-27375000D03*
X125675000Y-31125000D03*
X125675000Y-25175000D03*
X120175000Y-31125000D03*
X95150000Y-69375000D03*
X94650000Y-65625000D03*
X89650000Y-69375000D03*
X89650000Y-63425000D03*
X84150000Y-69375000D03*
X55497979Y-79673451D03*
X57800000Y-78600000D03*
X60102022Y-77526550D03*
X62404044Y-76453100D03*
X64706066Y-75379649D03*
X67008087Y-74306199D03*
X69310109Y-73232748D03*
X71612131Y-72159298D03*
X16782200Y-63685000D03*
X23782200Y-63685000D03*
D14*
X27082200Y-65785000D03*
X18582200Y-61585000D03*
X21582200Y-61585000D03*
X25582200Y-61585000D03*
D13*
X113150000Y-51525000D03*
X112650000Y-47775000D03*
X107650000Y-51525000D03*
X107650000Y-45575000D03*
X102150000Y-51525000D03*
X113125000Y-34525000D03*
X112625000Y-30775000D03*
X107625000Y-34525000D03*
X107625000Y-28575000D03*
X102125000Y-34525000D03*
X149150000Y-69400000D03*
X148650000Y-65650000D03*
X143650000Y-69400000D03*
X143650000Y-63450000D03*
X138150000Y-69400000D03*
X157241651Y-66875398D03*
X157544705Y-70646427D03*
X162734113Y-67163246D03*
X162422714Y-73105092D03*
X168226575Y-67451094D03*
X95125000Y-52350000D03*
X94625000Y-48600000D03*
X89625000Y-52350000D03*
X89625000Y-46400000D03*
X84125000Y-52350000D03*
X50159000Y-100345400D03*
X49659000Y-96595400D03*
X44659000Y-100345400D03*
X44659000Y-94395400D03*
X39159000Y-100345400D03*
X131125000Y-48125000D03*
X130625000Y-44375000D03*
X125625000Y-48125000D03*
X125625000Y-42175000D03*
X120125000Y-48125000D03*
X113150000Y-68525000D03*
X112650000Y-64775000D03*
X107650000Y-68525000D03*
X107650000Y-62575000D03*
X102150000Y-68525000D03*
X41648200Y-82209800D03*
X149150000Y-35350000D03*
X148650000Y-31600000D03*
X143650000Y-35350000D03*
X143650000Y-29400000D03*
X138150000Y-35350000D03*
X167356063Y-84454694D03*
X167053009Y-80683665D03*
X161863601Y-84166846D03*
X162175000Y-78225000D03*
X156371139Y-83878998D03*
X138275000Y-52225000D03*
X138775000Y-55975000D03*
X143775000Y-52225000D03*
X143775000Y-58175000D03*
X149275000Y-52225000D03*
X75424272Y-92118131D03*
X73386299Y-88930785D03*
X70439579Y-94442531D03*
X67925000Y-89050000D03*
X65454886Y-96766931D03*
M02*
