M48
METRIC,TZ
T1C0.991
T2C1.200
T3C1.702
T4C3.000
T5C4.950
T6C5.000
%
G90
G05
T1
X21805Y-121750
X21830Y-101750
X41805Y-121775
X70572Y-119980
X86755Y-56800
X86755Y-73825
X86785Y-90800
X90272Y-110331
X104755Y-89950
X104760Y-55950
X104805Y-72950
X122755Y-86550
X122780Y-52575
X122785Y-69550
X140755Y-73800
X140755Y-90800
X151195Y-48400
X158778Y-105304
X159701Y-88309
X171400Y-63500
T2
X81600Y-39250
X88600Y-39250
T3
X21525Y-117550
X21550Y-97550
X32525Y-117550
X32550Y-97550
X41525Y-117575
X52525Y-117575
X68544Y-116292
X78513Y-111643
X86475Y-52600
X86475Y-69625
X86505Y-86600
X89627Y-106171
X97475Y-52600
X97475Y-69625
X97505Y-86600
X100585Y-105213
X104475Y-85750
X104480Y-51750
X104525Y-68750
X115475Y-85750
X115480Y-51750
X115525Y-68750
X122475Y-82350
X122500Y-48375
X122505Y-65350
X133475Y-82350
X133500Y-48375
X133505Y-65350
X140475Y-52600
X140475Y-69600
X140475Y-86600
X151475Y-52600
X151475Y-69600
X151475Y-86600
X158718Y-101095
X159642Y-84100
X160475Y-67133
X169703Y-101671
X170627Y-84676
X171460Y-67709
T4
X27025Y-111600
X27050Y-91600
X32025Y-113800
X32050Y-93800
X47025Y-111625
X52025Y-113825
X71014Y-108575
X76475Y-108456
X91975Y-46650
X91975Y-63675
X92005Y-80650
X94588Y-99765
X96975Y-48850
X96975Y-65875
X97005Y-82850
X99760Y-101520
X109975Y-79800
X109980Y-45800
X110025Y-62800
X114975Y-82000
X114980Y-48000
X115025Y-65000
X127975Y-76400
X128000Y-42425
X128005Y-59400
X132975Y-78600
X133000Y-44625
X133005Y-61600
X140975Y-56350
X145975Y-58550
X145975Y-63650
X145975Y-80650
X150975Y-65850
X150975Y-82850
X160778Y-70904
X164522Y-95441
X165446Y-78446
X165656Y-73363
X169400Y-97900
X170324Y-80905
T5
X27025Y-117550
X27050Y-97550
X47025Y-117575
X73528Y-113968
X91975Y-52600
X91975Y-69625
X92005Y-86600
X95106Y-105692
X109975Y-85750
X109980Y-51750
X110025Y-68750
X127975Y-82350
X128000Y-48375
X128005Y-65350
X145975Y-52600
X145975Y-69600
X145975Y-86600
X164211Y-101383
X165134Y-84388
X165967Y-67421
T6
X82500Y-99300
T0
M30
