M48
METRIC,TZ
T1C0.400
T2C1.000
%
G90
G05
T1
X32125Y-102025
X33175Y-122175
X53100Y-122075
X81125Y-115175
X86350Y-50025
X86450Y-46725
X87625Y-41650
X88300Y-61050
X89350Y-40750
X97350Y-90925
X98425Y-74100
X98550Y-57125
X101650Y-109600
X102075Y-54775
X104650Y-45225
X105200Y-53775
X105661Y-82806
X115200Y-90225
X116775Y-71550
X118000Y-45925
X119125Y-60775
X120100Y-53575
X124675Y-57025
X124750Y-44875
X127950Y-57025
X130725Y-54175
X133275Y-41275
X133300Y-57375
X135050Y-67975
X135500Y-48000
X135625Y-85325
X137350Y-53850
X138375Y-68000
X140175Y-49375
X141588Y-49155
X142575Y-47550
X142925Y-54425
X148775Y-50375
X149225Y-47300
X150025Y-53887
X151675Y-77750
X152275Y-50700
X153250Y-72475
X153800Y-89650
X154025Y-77200
X154200Y-48850
X154450Y-62225
X154875Y-56100
X155050Y-45575
X155262Y-58388
X155475Y-47325
X158725Y-73775
X159300Y-61200
X160475Y-56875
X163075Y-56600
X165225Y-62050
X165625Y-56925
X168075Y-106200
X169975Y-89275
X172375Y-59225
X175625Y-54575
X175925Y-51575
X176200Y-49000
X176350Y-45775
T2
X57811Y-96939
X60113Y-95866
X62415Y-94792
X64717Y-93719
X67019Y-92645
X69321Y-91572
X71623Y-90498
X73925Y-89425
T2
G00X83150Y-37150
M15
G01X83650Y-37150
M16
G05
G00X86150Y-37150
M15
G01X86650Y-37150
M16
G05
G00X90150Y-37150
M15
G01X90650Y-37150
M16
G05
G00X91650Y-41350
M15
G01X92150Y-41350
M16
G05
T0
M30
