%TF.GenerationSoftware,KiCad,Pcbnew,7.0.7*%
%TF.CreationDate,2024-08-20T00:07:21+09:00*%
%TF.ProjectId,trackmacro,74726163-6b6d-4616-9372-6f2e6b696361,rev?*%
%TF.SameCoordinates,Original*%
%TF.FileFunction,Soldermask,Top*%
%TF.FilePolarity,Negative*%
%FSLAX46Y46*%
G04 Gerber Fmt 4.6, Leading zero omitted, Abs format (unit mm)*
G04 Created by KiCad (PCBNEW 7.0.7) date 2024-08-20 00:07:21*
%MOMM*%
%LPD*%
G01*
G04 APERTURE LIST*
%ADD10C,1.200000*%
%ADD11O,2.500000X1.700000*%
%ADD12C,1.701800*%
%ADD13C,3.000000*%
%ADD14C,4.950000*%
%ADD15C,0.990600*%
%ADD16R,1.300000X0.950000*%
%ADD17R,1.700000X1.700000*%
%ADD18O,1.700000X1.700000*%
G04 APERTURE END LIST*
D10*
%TO.C,J1*%
X95375000Y-79600000D03*
X88375000Y-79600000D03*
D11*
X85075000Y-77500000D03*
X93575000Y-81700000D03*
X90575000Y-81700000D03*
X86575000Y-81700000D03*
%TD*%
D12*
%TO.C,SW3*%
X73495000Y-79575000D03*
D13*
X72995000Y-75825000D03*
D14*
X67995000Y-79575000D03*
D13*
X67995000Y-73625000D03*
D15*
X62775000Y-83775000D03*
D12*
X62495000Y-79575000D03*
%TD*%
%TO.C,SW2*%
X54500000Y-79575000D03*
D13*
X54000000Y-75825000D03*
D14*
X49000000Y-79575000D03*
D13*
X49000000Y-73625000D03*
D15*
X43780000Y-83775000D03*
D12*
X43500000Y-79575000D03*
%TD*%
%TO.C,SW1*%
X35500000Y-79600000D03*
D13*
X35000000Y-75850000D03*
D14*
X30000000Y-79600000D03*
D13*
X30000000Y-73650000D03*
D15*
X24780000Y-83800000D03*
D12*
X24500000Y-79600000D03*
%TD*%
D16*
%TO.C,D3*%
X69775000Y-84325000D03*
X66225000Y-84325000D03*
%TD*%
%TO.C,D1*%
X31725000Y-84325000D03*
X28175000Y-84325000D03*
%TD*%
%TO.C,D2*%
X50775000Y-84425000D03*
X47225000Y-84425000D03*
%TD*%
D17*
%TO.C,J2*%
X50400000Y-65100000D03*
D18*
X47860000Y-65100000D03*
X45320000Y-65100000D03*
X42780000Y-65100000D03*
X40240000Y-65100000D03*
X37700000Y-65100000D03*
X35160000Y-65100000D03*
X32620000Y-65100000D03*
%TD*%
M02*
