M48
; DRILL file {KiCad 7.0.7} date Thu Oct 24 22:54:23 2024
; FORMAT={-:-/ absolute / metric / decimal}
; #@! TF.CreationDate,2024-10-24T22:54:23+09:00
; #@! TF.GenerationSoftware,Kicad,Pcbnew,7.0.7
; #@! TF.FileFunction,MixedPlating,1,2
FMAT,2
METRIC
; #@! TA.AperFunction,Plated,PTH,ViaDrill
T1C0.400
; #@! TA.AperFunction,Plated,PTH,ComponentDrill
T2C1.000
; #@! TA.AperFunction,NonPlated,NPTH,ComponentDrill
T3C1.200
; #@! TA.AperFunction,NonPlated,NPTH,ComponentDrill
T4C1.702
; #@! TA.AperFunction,NonPlated,NPTH,ComponentDrill
T5C3.000
; #@! TA.AperFunction,NonPlated,NPTH,ComponentDrill
T6C4.950
; #@! TA.AperFunction,NonPlated,NPTH,ComponentDrill
T7C5.000
%
G90
G05
T1
X22.625Y-72.025
X28.618Y-70.526
X33.6Y-104.2
X35.171Y-77.384
X35.225Y-91.1
X42.6Y-92.975
X46.038Y-90.312
X46.257Y-87.693
X47.3Y-89.125
X48.341Y-89.856
X53.075Y-104.65
X56.475Y-89.625
X58.666Y-89.627
X65.447Y-93.122
X78.425Y-86.575
X78.675Y-87.825
X83.475Y-59.4
X84.4Y-49.3
X85.425Y-31.95
X86.375Y-42.425
X97.675Y-63.5
X97.75Y-35.3
X97.935Y-77.79
X98.05Y-67.45
X98.1Y-55.675
X100.55Y-48.625
X101.0Y-87.15
X102.1Y-61.344
X103.775Y-41.25
X103.825Y-31.2
X115.125Y-36.05
X115.3Y-55.475
X115.575Y-69.875
X116.5Y-26.775
X119.425Y-42.525
X120.7Y-55.8
X122.05Y-28.5
X133.55Y-49.075
X133.675Y-34.25
X135.525Y-73.95
X136.05Y-64.875
X136.05Y-41.0
X136.3Y-33.5
X140.096Y-47.421
X140.375Y-61.075
X141.2Y-44.025
X150.275Y-67.75
X151.475Y-33.725
X151.825Y-62.0
X153.8Y-72.725
X154.65Y-68.3
X155.15Y-76.825
X158.5Y-73.075
X161.95Y-56.525
X164.0Y-56.55
X167.275Y-76.825
X168.25Y-40.6
X168.9Y-64.225
X169.242Y-52.535
X169.594Y-47.466
X169.725Y-86.6
T2
X55.498Y-79.673
X57.8Y-78.6
X60.102Y-77.527
X62.404Y-76.453
X64.706Y-75.38
X67.008Y-74.306
X69.31Y-73.233
X71.612Y-72.159
T3
X16.782Y-63.685
X23.782Y-63.685
T4
X19.146Y-100.34
X19.154Y-80.362
X30.146Y-100.34
X30.154Y-80.362
X39.159Y-100.345
X50.159Y-100.345
X65.455Y-96.767
X75.424Y-92.118
X84.125Y-52.35
X84.15Y-35.375
X84.15Y-69.375
X87.315Y-88.957
X95.125Y-52.35
X95.15Y-35.375
X95.15Y-69.375
X98.273Y-87.998
X102.125Y-34.525
X102.15Y-51.525
X102.15Y-68.525
X113.125Y-34.525
X113.15Y-51.525
X113.15Y-68.525
X120.125Y-48.125
X120.125Y-65.125
X120.175Y-31.125
X131.125Y-48.125
X131.125Y-65.125
X131.175Y-31.125
X138.15Y-35.35
X138.15Y-69.4
X138.275Y-52.225
X149.15Y-35.35
X149.15Y-69.4
X149.275Y-52.225
X156.371Y-83.879
X157.242Y-66.875
X167.356Y-84.455
X168.227Y-67.451
T5
X24.646Y-94.39
X24.654Y-74.412
X29.646Y-96.59
X29.654Y-76.612
X44.659Y-94.395
X49.659Y-96.595
X67.925Y-89.05
X73.386Y-88.931
X89.625Y-46.4
X89.65Y-29.425
X89.65Y-63.425
X92.275Y-82.55
X94.625Y-48.6
X94.65Y-31.625
X94.65Y-65.625
X97.448Y-84.306
X107.625Y-28.575
X107.65Y-45.575
X107.65Y-62.575
X112.625Y-30.775
X112.65Y-47.775
X112.65Y-64.775
X125.625Y-42.175
X125.625Y-59.175
X125.675Y-25.175
X130.625Y-44.375
X130.625Y-61.375
X130.675Y-27.375
X138.775Y-55.975
X143.65Y-29.4
X143.65Y-63.45
X143.775Y-58.175
X148.65Y-31.6
X148.65Y-65.65
X157.545Y-70.646
X162.175Y-78.225
X162.423Y-73.105
X167.053Y-80.684
T6
X24.646Y-100.34
X24.654Y-80.362
X44.659Y-100.345
X70.44Y-94.443
X89.625Y-52.35
X89.65Y-35.375
X89.65Y-69.375
X92.794Y-88.477
X107.625Y-34.525
X107.65Y-51.525
X107.65Y-68.525
X125.625Y-48.125
X125.625Y-65.125
X125.675Y-31.125
X143.65Y-35.35
X143.65Y-69.4
X143.775Y-52.225
X161.864Y-84.167
X162.734Y-67.163
T7
X41.648Y-82.21
T2
G00X18.332Y-61.585
M15
G01X18.832Y-61.585
M16
G05
G00X21.332Y-61.585
M15
G01X21.832Y-61.585
M16
G05
G00X25.332Y-61.585
M15
G01X25.832Y-61.585
M16
G05
G00X26.832Y-65.785
M15
G01X27.332Y-65.785
M16
G05
T0
M30
