M48
METRIC,TZ
T1C0.400
T2C1.000
%
G90
G05
T1
X22625Y-72025
X28618Y-70526
X33600Y-104200
X35171Y-77384
X35225Y-91100
X42600Y-92975
X46038Y-90312
X46257Y-87693
X47300Y-89125
X48341Y-89856
X53075Y-104650
X56475Y-89625
X58666Y-89627
X65447Y-93122
X78425Y-86575
X78675Y-87825
X83475Y-59400
X84400Y-49300
X85425Y-31950
X86375Y-42425
X97675Y-63500
X97750Y-35300
X97935Y-77790
X98050Y-67450
X98100Y-55675
X100550Y-48625
X101000Y-87150
X102100Y-61344
X103775Y-41250
X103825Y-31200
X115125Y-36050
X115300Y-55475
X115575Y-69875
X116500Y-26775
X119425Y-42525
X120700Y-55800
X122050Y-28500
X133550Y-49075
X133675Y-34250
X135525Y-73950
X136050Y-64875
X136050Y-41000
X136300Y-33500
X140096Y-47421
X140375Y-61075
X141200Y-44025
X150275Y-67750
X151475Y-33725
X151825Y-62000
X153800Y-72725
X154650Y-68300
X155150Y-76825
X158500Y-73075
X161950Y-56525
X164000Y-56550
X167275Y-76825
X168250Y-40600
X168900Y-64225
X169242Y-52535
X169594Y-47466
X169725Y-86600
T2
X55498Y-79673
X57800Y-78600
X60102Y-77527
X62404Y-76453
X64706Y-75380
X67008Y-74306
X69310Y-73233
X71612Y-72159
T2
G00X18332Y-61585
M15
G01X18832Y-61585
M16
G05
G00X21332Y-61585
M15
G01X21832Y-61585
M16
G05
G00X25332Y-61585
M15
G01X25832Y-61585
M16
G05
G00X26832Y-65785
M15
G01X27332Y-65785
M16
G05
T0
M30
