M48
; DRILL file {KiCad 7.0.7} date Sun Oct  6 22:50:33 2024
; FORMAT={-:-/ absolute / metric / decimal}
; #@! TF.CreationDate,2024-10-06T22:50:33+09:00
; #@! TF.GenerationSoftware,Kicad,Pcbnew,7.0.7
; #@! TF.FileFunction,NonPlated,1,2,NPTH
FMAT,2
METRIC
; #@! TA.AperFunction,NonPlated,NPTH,ComponentDrill
T1C1.200
; #@! TA.AperFunction,NonPlated,NPTH,ComponentDrill
T2C1.702
; #@! TA.AperFunction,NonPlated,NPTH,ComponentDrill
T3C3.000
; #@! TA.AperFunction,NonPlated,NPTH,ComponentDrill
T4C4.950
; #@! TA.AperFunction,NonPlated,NPTH,ComponentDrill
T5C5.000
%
G90
G05
T1
X17.625Y-65.6
X24.625Y-65.6
T2
X20.025Y-80.75
X20.075Y-100.725
X31.025Y-80.75
X31.075Y-100.725
X40.025Y-100.725
X51.025Y-100.725
X65.455Y-96.767
X75.424Y-92.118
X84.125Y-52.35
X84.15Y-35.375
X84.15Y-69.375
X87.315Y-88.957
X95.125Y-52.35
X95.15Y-35.375
X95.15Y-69.375
X98.273Y-87.998
X102.125Y-34.525
X102.15Y-51.525
X102.15Y-68.525
X113.125Y-34.525
X113.15Y-51.525
X113.15Y-68.525
X120.125Y-48.125
X120.125Y-65.125
X120.175Y-31.125
X131.125Y-48.125
X131.125Y-65.125
X131.175Y-31.125
X138.15Y-35.35
X138.15Y-69.4
X138.275Y-52.225
X149.15Y-35.35
X149.15Y-69.4
X149.275Y-52.225
X156.371Y-83.879
X157.242Y-66.875
X167.356Y-84.455
X168.227Y-67.451
T3
X25.525Y-74.8
X25.575Y-94.775
X30.525Y-77.0
X30.575Y-96.975
X45.525Y-94.775
X50.525Y-96.975
X67.925Y-89.05
X73.386Y-88.931
X89.625Y-46.4
X89.65Y-29.425
X89.65Y-63.425
X92.275Y-82.55
X94.625Y-48.6
X94.65Y-31.625
X94.65Y-65.625
X97.448Y-84.306
X107.625Y-28.575
X107.65Y-45.575
X107.65Y-62.575
X112.625Y-30.775
X112.65Y-47.775
X112.65Y-64.775
X125.625Y-42.175
X125.625Y-59.175
X125.675Y-25.175
X130.625Y-44.375
X130.625Y-61.375
X130.675Y-27.375
X138.775Y-55.975
X143.65Y-29.4
X143.65Y-63.45
X143.775Y-58.175
X148.65Y-31.6
X148.65Y-65.65
X157.545Y-70.646
X162.175Y-78.225
X162.423Y-73.105
X167.053Y-80.684
T4
X25.525Y-80.75
X25.575Y-100.725
X45.525Y-100.725
X70.44Y-94.443
X89.625Y-52.35
X89.65Y-35.375
X89.65Y-69.375
X92.794Y-88.477
X107.625Y-34.525
X107.65Y-51.525
X107.65Y-68.525
X125.625Y-48.125
X125.625Y-65.125
X125.675Y-31.125
X143.65Y-35.35
X143.65Y-69.4
X143.775Y-52.225
X161.864Y-84.167
X162.734Y-67.163
T5
X23.525Y-57.475
X52.525Y-86.75
T0
M30
