%TF.GenerationSoftware,KiCad,Pcbnew,7.0.7*%
%TF.CreationDate,2024-10-24T22:54:22+09:00*%
%TF.ProjectId,evoroll,65766f72-6f6c-46c2-9e6b-696361645f70,rev?*%
%TF.SameCoordinates,Original*%
%TF.FileFunction,Profile,NP*%
%FSLAX46Y46*%
G04 Gerber Fmt 4.6, Leading zero omitted, Abs format (unit mm)*
G04 Created by KiCad (PCBNEW 7.0.7) date 2024-10-24 22:54:22*
%MOMM*%
%LPD*%
G01*
G04 APERTURE LIST*
%TA.AperFunction,Profile*%
%ADD10C,0.200000*%
%TD*%
G04 APERTURE END LIST*
D10*
X114616743Y-78053643D02*
G75*
G03*
X117116743Y-75553687I-43J2500043D01*
G01*
X135116713Y-24153687D02*
G75*
G03*
X132616743Y-21653687I-2499913J87D01*
G01*
X166764749Y-49492797D02*
X167507920Y-35312258D01*
X73044232Y-67895880D02*
X74752574Y-71559432D01*
X154571585Y-93305738D02*
G75*
G03*
X152000945Y-90450706I-2082285J709938D01*
G01*
X153116743Y-34558048D02*
X153116743Y-28620288D01*
X134116743Y-74653687D02*
X134116743Y-76403687D01*
X157321899Y-34778431D02*
X156578728Y-48958971D01*
X102831504Y-94437760D02*
G75*
G03*
X100362008Y-97380789I-413314J-2160780D01*
G01*
X29168469Y-63246423D02*
X27734189Y-60170600D01*
X150400142Y-25903687D02*
X135116743Y-25903687D01*
X61940867Y-108940850D02*
G75*
G03*
X57747013Y-109870600I-1993867J-929750D01*
G01*
X74058994Y-75040426D02*
X67433736Y-81103499D01*
X74058996Y-75040428D02*
G75*
G03*
X74752573Y-71559432I-2025296J2213128D01*
G01*
X15508237Y-60170600D02*
X15156000Y-60670600D01*
X101398083Y-78053687D02*
X114616743Y-78053687D01*
X152606098Y-78903687D02*
X152000945Y-90450705D01*
X135116743Y-25903687D02*
X135116743Y-24153687D01*
X15156000Y-60670600D02*
X15156000Y-107153998D01*
X168169338Y-55174094D02*
X168462419Y-49581769D01*
X78122863Y-80430881D02*
G75*
G03*
X80116743Y-77301120I1993877J929761D01*
G01*
X17872601Y-109870600D02*
X57747013Y-109870600D01*
X170974906Y-91445088D02*
X173768309Y-38143782D01*
X61940890Y-108940839D02*
X83583517Y-98848717D01*
X27734189Y-60170600D02*
X15508237Y-60170600D01*
X154571647Y-93305759D02*
X168119852Y-94015790D01*
X80116724Y-27770354D02*
G75*
G03*
X82833343Y-25053687I599976J2116654D01*
G01*
X116116743Y-25053687D02*
X82833344Y-25053687D01*
X156578728Y-48958971D02*
X154881058Y-48870000D01*
X53416852Y-78097884D02*
X52441532Y-76006303D01*
X154587976Y-54462325D02*
X168169338Y-55174094D01*
X118616743Y-21653643D02*
G75*
G03*
X116116743Y-24153687I-43J-2499957D01*
G01*
X117116743Y-75553687D02*
X117116743Y-74653687D01*
X80116743Y-27770288D02*
X80116743Y-77301120D01*
X171402575Y-35516368D02*
X167507920Y-35312258D01*
X70658319Y-67511676D02*
X71633639Y-69603257D01*
X173768326Y-38143783D02*
G75*
G03*
X171402575Y-35516369I-2496526J130883D01*
G01*
X136616743Y-78903687D02*
X152606098Y-78903687D01*
X17872601Y-109870600D02*
G75*
G03*
X15156000Y-107153999I-2116601J600000D01*
G01*
X102831504Y-94437758D02*
X101398083Y-78053687D01*
X157321899Y-34778431D02*
X153116743Y-34558048D01*
X117116743Y-74653687D02*
X134116743Y-74653687D01*
X29168473Y-63246421D02*
G75*
G03*
X53416852Y-78097884I23337427J10882421D01*
G01*
X154881058Y-48870000D02*
X154587976Y-54462325D01*
X150400106Y-25903677D02*
G75*
G03*
X153116743Y-28620288I2116694J-599923D01*
G01*
X67433734Y-81103497D02*
G75*
G03*
X69629201Y-84391541I1350266J-1475403D01*
G01*
X170974916Y-91445059D02*
G75*
G03*
X168119853Y-94015790I-710016J-2082241D01*
G01*
X78122866Y-80430880D02*
X69629201Y-84391541D01*
X116116743Y-24153687D02*
X116116743Y-25053687D01*
X134116713Y-76403687D02*
G75*
G03*
X136616743Y-78903687I2500087J87D01*
G01*
X52441532Y-76006303D02*
X70658319Y-67511676D01*
X166764749Y-49492797D02*
X168462419Y-49581769D01*
X83583517Y-98848717D02*
X100362008Y-97380789D01*
X71633639Y-69603257D02*
G75*
G03*
X73044232Y-67895880I-19127639J17239157D01*
G01*
X132616743Y-21653687D02*
X118616743Y-21653687D01*
M02*
