M48
; DRILL file {KiCad 7.0.7} date Fri Aug 30 08:21:23 2024
; FORMAT={-:-/ absolute / metric / decimal}
; #@! TF.CreationDate,2024-08-30T08:21:23+09:00
; #@! TF.GenerationSoftware,Kicad,Pcbnew,7.0.7
; #@! TF.FileFunction,Plated,1,2,PTH
FMAT,2
METRIC
; #@! TA.AperFunction,Plated,PTH,ViaDrill
T1C0.400
; #@! TA.AperFunction,Plated,PTH,ComponentDrill
T2C1.000
%
G90
G05
T1
X32.125Y-102.025
X33.175Y-122.175
X53.1Y-122.075
X81.125Y-115.175
X86.35Y-50.025
X86.45Y-46.725
X87.625Y-41.65
X88.3Y-61.05
X89.35Y-40.75
X97.35Y-90.925
X98.425Y-74.1
X98.55Y-57.125
X101.65Y-109.6
X102.075Y-54.775
X104.65Y-45.225
X105.2Y-53.775
X105.661Y-82.806
X115.2Y-90.225
X116.775Y-71.55
X118.0Y-45.925
X119.125Y-60.775
X120.1Y-53.575
X124.675Y-57.025
X124.75Y-44.875
X127.95Y-57.025
X130.725Y-54.175
X133.275Y-41.274
X133.3Y-57.375
X135.05Y-67.975
X135.5Y-48.0
X135.625Y-85.325
X137.35Y-53.85
X138.375Y-68.0
X140.175Y-49.375
X141.588Y-49.155
X142.575Y-47.55
X142.925Y-54.425
X148.775Y-50.374
X149.225Y-47.3
X150.024Y-53.887
X151.675Y-77.75
X152.275Y-50.7
X153.25Y-72.475
X153.8Y-89.65
X154.025Y-77.2
X154.2Y-48.85
X154.45Y-62.225
X154.875Y-56.1
X155.05Y-45.575
X155.262Y-58.388
X155.475Y-47.325
X158.725Y-73.775
X159.3Y-61.2
X160.475Y-56.875
X163.075Y-56.6
X165.225Y-62.05
X165.625Y-56.925
X168.075Y-106.2
X169.975Y-89.275
X172.375Y-59.225
X175.625Y-54.575
X175.925Y-51.575
X176.2Y-49.0
X176.35Y-45.775
T2
X57.811Y-96.939
X60.113Y-95.866
X62.415Y-94.792
X64.717Y-93.719
X67.019Y-92.645
X69.321Y-91.572
X71.623Y-90.498
X73.925Y-89.425
T2
G00X83.15Y-37.15
M15
G01X83.65Y-37.15
M16
G05
G00X86.15Y-37.15
M15
G01X86.65Y-37.15
M16
G05
G00X90.15Y-37.15
M15
G01X90.65Y-37.15
M16
G05
G00X91.65Y-41.35
M15
G01X92.15Y-41.35
M16
G05
T0
M30
